<svg xmlns="http://www.w3.org/2000/svg" xmlns:xlink="http://www.w3.org/1999/xlink" width="62" height="56" viewBox="0 0 62 56">
  <defs>
    <clipPath id="clip-path">
      <rect id="長方形_9405" data-name="長方形 9405" width="62" height="56" transform="translate(7 0.086)" fill="#fff"/>
    </clipPath>
  </defs>
  <g id="マスクグループ_306" data-name="マスクグループ 306" transform="translate(-7 -0.086)" clip-path="url(#clip-path)">
    <g id="グループ_25906" data-name="グループ 25906" transform="translate(18.355 2.715)">
      <path id="楕円形_2" data-name="楕円形 2" d="M4.787-2a6.781,6.781,0,0,1,6.787,6.787,6.781,6.781,0,0,1-6.787,6.787A6.781,6.781,0,0,1-2,4.787,6.781,6.781,0,0,1,4.787-2Zm0,12.362a5.575,5.575,0,0,0,5.575-5.575A5.575,5.575,0,0,0,4.787-.789,5.575,5.575,0,0,0-.788,4.787a5.575,5.575,0,0,0,5.575,5.575Z" transform="translate(15.439 2)" fill="#fff"/>
      <path id="パス_27" data-name="パス 27" d="M120.314,27.688a3.878,3.878,0,0,1-1.786-.5l.56-1.074a2.062,2.062,0,0,0,1.739.251,1.042,1.042,0,0,0,.525-.614.745.745,0,0,0-.247-.684,3.33,3.33,0,0,0-.926-.467A3.922,3.922,0,0,1,119,23.982a1.614,1.614,0,0,1-.542-1.529,1.846,1.846,0,0,1,1.16-1.376,2.319,2.319,0,0,1,2.407.706l-.8.907c-.464-.41-.879-.581-1.171-.481a.678.678,0,0,0-.393.411.419.419,0,0,0,.136.447,3.089,3.089,0,0,0,.822.4,4.235,4.235,0,0,1,1.283.683,1.953,1.953,0,0,1,.659,1.686,1.787,1.787,0,0,1-.286.783,2.278,2.278,0,0,1-.808.774A2.317,2.317,0,0,1,120.314,27.688Z" transform="translate(-100.157 -17.566)" fill="#fff"/>
      <path id="線_21" data-name="線 21" d="M-.789.841H-2V0H-.789Z" transform="translate(21.621 3.168)" fill="#fff"/>
      <path id="線_22" data-name="線 22" d="M-.789.841H-2V0H-.789Z" transform="translate(21.621 9.565)" fill="#fff"/>
      <path id="パス_28" data-name="パス 28" d="M240.64,176.949a2.707,2.707,0,0,1-2.411-1.475,1.234,1.234,0,0,0-1.108-.626h-.712v-1.211h.712a2.561,2.561,0,0,1,1.261.33,2.313,2.313,0,0,1,.925.956,1.489,1.489,0,0,0,1.354.816,1.524,1.524,0,0,0,1.474-1.474,1.5,1.5,0,0,0-1.5-1.517v-1.212a2.707,2.707,0,0,1,.038,5.414Z" transform="translate(-200.077 -145.331)" fill="#fff"/>
      <path id="パス_29" data-name="パス 29" d="M3.884,96.158a12.772,12.772,0,0,1,4.068.653,10.638,10.638,0,0,1,3.1,1.62,19.877,19.877,0,0,1,3.419-1,21.3,21.3,0,0,1,4.117-.4A20.784,20.784,0,0,1,25.1,98.058a17.637,17.637,0,0,1,5.345,2.806,13.552,13.552,0,0,1,3.641,4.206,10.808,10.808,0,0,1,1.35,5.209,10.618,10.618,0,0,1-.381,2.814,11.321,11.321,0,0,1-1.085,2.6,12.912,12.912,0,0,1-1.7,2.319,14.934,14.934,0,0,1-2.036,1.84l-1.43,7.337H23.973l-.811-4.16a21.329,21.329,0,0,1-9.142,0l-.811,4.16H8.377l-1.43-7.337A13.375,13.375,0,0,1,2.662,114.6H1.255A2.758,2.758,0,0,1-1.5,111.846v-3.134a2.758,2.758,0,0,1,2.755-2.755H2.662a12.448,12.448,0,0,1,2.278-3.442l-3.35-4.48a1.053,1.053,0,0,1-.129-1.066,1.343,1.343,0,0,1,1.121-.748C3.013,96.179,3.451,96.158,3.884,96.158Zm6.964,3.666-.281-.234a10.583,10.583,0,0,0-6.683-2.221c-.394,0-.792.02-1.184.058a.4.4,0,0,0-.048.007L6.53,102.62l-.368.371a11.288,11.288,0,0,0-2.533,3.8l-.151.383H1.255a1.545,1.545,0,0,0-1.543,1.543v3.134a1.545,1.545,0,0,0,1.543,1.543H3.478l.151.383a12.1,12.1,0,0,0,4.224,5.242l.192.14,1.33,6.821h2.836l.863-4.428.621.158a20.068,20.068,0,0,0,9.791,0l.621-.158.863,4.428h2.836l1.33-6.822.192-.14a13.8,13.8,0,0,0,2.049-1.822,11.7,11.7,0,0,0,1.541-2.1,9.518,9.518,0,0,0,.1-9.444,12.351,12.351,0,0,0-3.32-3.829,16.431,16.431,0,0,0-4.979-2.611,19.575,19.575,0,0,0-6.132-.963,20.082,20.082,0,0,0-3.883.376,18.578,18.578,0,0,0-3.522,1.062Z" transform="translate(1.5 -81.369)" fill="#fff"/>
      <path id="パス_30" data-name="パス 30" d="M51.515,157.7l-1.046-.611a9.123,9.123,0,0,1,.917-1.29l.924.783A7.909,7.909,0,0,0,51.515,157.7Z" transform="translate(-42.558 -131.871)" fill="#fff"/>
      <path id="パス_31" data-name="パス 31" d="M112.032,127.592a16.011,16.011,0,0,0-3.81-.455,16.209,16.209,0,0,0-3.551.39l-.266-1.182a17.423,17.423,0,0,1,3.817-.42,17.223,17.223,0,0,1,4.1.49Z" transform="translate(-88.131 -106.63)" fill="#fff"/>
    </g>
  </g>
</svg>
