<svg xmlns="http://www.w3.org/2000/svg" xmlns:xlink="http://www.w3.org/1999/xlink" width="69" height="57" viewBox="0 0 69 57">
  <defs>
    <clipPath id="clip-path">
      <rect id="長方形_9409" data-name="長方形 9409" width="69" height="57" transform="translate(-10839 -15934.358)" fill="#fff"/>
    </clipPath>
  </defs>
  <g id="マスクグループ_309" data-name="マスクグループ 309" transform="translate(10839 15934.358)" clip-path="url(#clip-path)">
    <g id="グループ_25914" data-name="グループ 25914" transform="translate(-10826.969 -15927.661)">
      <path id="パス_16" data-name="パス 16" d="M81.983,153.109H79.607L77.7,149.5a1.261,1.261,0,0,1,1.115-1.849h3.953a1.261,1.261,0,0,1,1.115,1.849Zm-1.737-1.059h1.1L82.949,149a.2.2,0,0,0-.178-.3H78.818a.2.2,0,0,0-.178.3Z" transform="translate(-62.258 -123.939)" fill="#fff" stroke="#fff" stroke-width="0.3"/>
      <path id="パス_17" data-name="パス 17" d="M83.674,181.75,82.117,171.3h-.823L79.737,181.75l-1.048-.156,1.691-11.351h2.65l1.691,11.351Z" transform="translate(-63.169 -142.133)" fill="#fff" stroke="#fff" stroke-width="0.3"/>
      <path id="パス_18" data-name="パス 18" d="M55.492,58.2l-.52-.923a6.888,6.888,0,0,0,2.392-2.972,14.217,14.217,0,0,0,.825-2.129l.2-.739.619.452c.028.021,2.87,2.075,5.16,2.316a5.14,5.14,0,0,0,2.629-.39,3.649,3.649,0,0,0,.888-.534l.4-.37.357.415A11.161,11.161,0,0,1,70.406,56.7l-1.012.314A9.372,9.372,0,0,0,67.95,54.4a6,6,0,0,1-3.887.859A10.637,10.637,0,0,1,60.231,53.9c-.5-.271-.925-.535-1.243-.74a15.849,15.849,0,0,1-.669,1.614,11.065,11.065,0,0,1-1.139,1.893A5.688,5.688,0,0,1,55.492,58.2Z" transform="translate(-44.994 -46.889)" fill="#fff" stroke="#fff" stroke-width="0.3"/>
      <path id="パス_19" data-name="パス 19" d="M59.378,48a6.777,6.777,0,0,1-2.629-.53,7.471,7.471,0,0,1-2.228-1.457,8.629,8.629,0,0,1-1.673-2.183,9.6,9.6,0,0,1-.956-2.614,10.824,10.824,0,0,1-.719-1.222,1.99,1.99,0,0,1-.142-1.369,1.912,1.912,0,0,1,.531-.918,14.608,14.608,0,0,1-.332-5.5,5.459,5.459,0,0,1,.706-1.771,14.429,14.429,0,0,1,1.17-1.583c.128-.158.234-.313.346-.478a3.725,3.725,0,0,1,2.242-1.7,14.139,14.139,0,0,1,4.653-.774,7.36,7.36,0,0,1,2.747.569,5.544,5.544,0,0,1,2.348,1.918,8.237,8.237,0,0,1,1.043,2.162,15.035,15.035,0,0,1,.575,2.519,22.357,22.357,0,0,1,.146,4.925V38l-.022.2a1.141,1.141,0,0,1,.384.333,1.213,1.213,0,0,1,.13,1.215,10.288,10.288,0,0,1-.832,1.462,9.6,9.6,0,0,1-.956,2.614,8.63,8.63,0,0,1-1.673,2.183,7.471,7.471,0,0,1-2.228,1.457A6.777,6.777,0,0,1,59.378,48ZM52.107,37.947l.291.442a.906.906,0,0,0-.275,1.135,9.816,9.816,0,0,0,.7,1.172l.066.093.022.111a8.56,8.56,0,0,0,.87,2.424,7.572,7.572,0,0,0,1.467,1.916,6.416,6.416,0,0,0,1.912,1.252,5.719,5.719,0,0,0,4.439,0A6.416,6.416,0,0,0,63.51,45.24a7.573,7.573,0,0,0,1.467-1.916,8.562,8.562,0,0,0,.87-2.424l.022-.111.066-.092a9.487,9.487,0,0,0,.794-1.376.153.153,0,0,0-.015-.153c-.022-.03-.038-.029-.043-.028l-.663.082L66.15,37.9a21.251,21.251,0,0,0-.139-4.675A10.021,10.021,0,0,0,64.575,29,4.5,4.5,0,0,0,62.67,27.44a6.312,6.312,0,0,0-2.353-.481,13.078,13.078,0,0,0-4.291.721,2.707,2.707,0,0,0-1.7,1.293c-.12.176-.243.358-.4.551a6.551,6.551,0,0,0-1.66,2.9,14.748,14.748,0,0,0,.4,5.415Z" transform="translate(-40.849 -25.896)" fill="#fff" stroke="#fff" stroke-width="0.3"/>
      <path id="パス_20" data-name="パス 20" d="M.06,164.074H-1v-2.708l.223-4.1A6.572,6.572,0,0,1-.5,155.37,6.3,6.3,0,0,1,.292,153.7a6.967,6.967,0,0,1,2.838-2.4,4.2,4.2,0,0,1,.876-.3l4.181-.936a4.191,4.191,0,0,0,2.455-1.6l.852.63a5.251,5.251,0,0,1-3.075,2l-4.181.936a3.145,3.145,0,0,0-.655.224,5.909,5.909,0,0,0-2.41,2.031,5.237,5.237,0,0,0-.659,1.393,5.516,5.516,0,0,0-.232,1.6v.014l-.223,4.1Z" transform="translate(1 -124.535)" fill="#fff" stroke="#fff" stroke-width="0.3"/>
      <path id="パス_21" data-name="パス 21" d="M120.052,136.814l-.623-.857L132.3,126.6l5.046,3.667v-2.41h4.612v5.761l3.215,2.336-.623.857L140.9,134.16v-5.242h-2.493v3.43l-6.106-4.437Z" transform="translate(-96.912 -107.354)" fill="#fff" stroke="#fff" stroke-width="0.3"/>
      <path id="パス_22" data-name="パス 22" d="M155.727,184.429h-7.254v-7.567h-4.7v7.567h-7.253V172.976h1.06v10.393h5.134V175.8h6.817v7.567h5.135V172.977h1.06Z" transform="translate(-110.735 -144.524)" fill="#fff" stroke="#fff" stroke-width="0.3"/>
    </g>
  </g>
</svg>
