<svg xmlns="http://www.w3.org/2000/svg" xmlns:xlink="http://www.w3.org/1999/xlink" width="60" height="56" viewBox="0 0 60 56">
  <defs>
    <clipPath id="clip-path">
      <rect id="長方形_9407" data-name="長方形 9407" width="60" height="56" transform="translate(-10625 -16120)" fill="none"/>
    </clipPath>
  </defs>
  <g id="マスクグループ_308" data-name="マスクグループ 308" transform="translate(10625 16120)" clip-path="url(#clip-path)">
    <g id="グループ_25910" data-name="グループ 25910" transform="translate(4 -2)">
      <path id="パス_110097" data-name="パス 110097" d="M4.239.855A3.388,3.388,0,0,0,.855,4.239V29.77A4.24,4.24,0,0,1,6.48,28.72V1.7A3.361,3.361,0,0,0,4.239.855M38.519,28.083A4.238,4.238,0,0,1,41.9,29.772V4.242A3.385,3.385,0,0,0,36.278,1.7V28.724a4.212,4.212,0,0,1,2.241-.639Zm0,8.483H4.239A4.244,4.244,0,0,1,0,32.325V4.242a4.239,4.239,0,0,1,7.207-3.03.432.432,0,0,1,.128.306V29.6a.427.427,0,0,1-.727.3,3.385,3.385,0,1,0-2.369,5.8H38.517a3.385,3.385,0,1,0-2.369-5.8.424.424,0,0,1-.464.09.429.429,0,0,1-.263-.393V1.518a.432.432,0,0,1,.128-.306,4.239,4.239,0,0,1,7.207,3.027V32.323a4.246,4.246,0,0,1-4.239,4.242Z" transform="translate(-10619.848 -16109.596)" fill="#fff" stroke="#fff" stroke-width="0.3"/>
      <path id="パス_32_-_アウトライン" data-name="パス 32 - アウトライン" d="M4.137-.15a4.252,4.252,0,0,1,3,1.226.478.478,0,0,1,.142.339V29.5a.476.476,0,0,1-.476.474.465.465,0,0,1-.332-.137,3.337,3.337,0,1,0-2.336,5.722H38.414a3.338,3.338,0,1,0-2.336-5.721.465.465,0,0,1-.332.137.476.476,0,0,1-.476-.474V1.415a.477.477,0,0,1,.142-.339A4.286,4.286,0,0,1,42.7,4.137V32.22a4.293,4.293,0,0,1-4.174,4.287l0,0H4.137A4.293,4.293,0,0,1-.15,32.222V4.139A4.293,4.293,0,0,1,4.137-.15ZM6.8,29.88a.382.382,0,0,0,.381-.38V1.415a.384.384,0,0,0-.114-.272,4.192,4.192,0,0,0-7.126,3V32.222a4.2,4.2,0,0,0,4.192,4.194H38.3l0,0h.114a4.2,4.2,0,0,0,4.192-4.194V4.137a4.192,4.192,0,0,0-7.127-2.994.383.383,0,0,0-.114.272V29.5a.384.384,0,0,0,.234.35.379.379,0,0,0,.147.03.372.372,0,0,0,.265-.109,3.432,3.432,0,1,1,2.4,5.883H4.137a3.432,3.432,0,1,1,2.4-5.883A.372.372,0,0,0,6.8,29.88ZM4.137.705a3.422,3.422,0,0,1,2.272.858l.016.014V28.7l-.072-.045a4.2,4.2,0,0,0-4.114-.177A4.231,4.231,0,0,0,.79,29.7l-.085.112V4.137A3.435,3.435,0,0,1,4.137.705ZM6.33,1.62A3.338,3.338,0,0,0,.8,4.137V29.53A4.328,4.328,0,0,1,2.2,28.4a4.292,4.292,0,0,1,4.135.137ZM38.416.707a3.435,3.435,0,0,1,3.431,3.432V29.81l-.085-.112a4.244,4.244,0,0,0-1.448-1.215,4.136,4.136,0,0,0-1.851-.455v0h-.047a4.177,4.177,0,0,0-2.216.632l-.072.045V1.58l.016-.014A3.423,3.423,0,0,1,38.416.707Zm3.337,28.825V4.139a3.338,3.338,0,0,0-5.531-2.516V28.538a4.271,4.271,0,0,1,2.146-.6v0h.047a4.232,4.232,0,0,1,1.941.466A4.34,4.34,0,0,1,41.753,29.532Z" transform="translate(-10619.745 -16109.493)" fill="#fff" stroke="#fff" stroke-width="0.3"/>
      <path id="パス_110098" data-name="パス 110098" d="M58.555,23.2H33.069a.428.428,0,1,1,0-.855H58.555a.428.428,0,1,1,0,.855" transform="translate(-10644.279 -16126.323)" fill="#fff" stroke="#fff" stroke-width="0.3"/>
      <path id="パス_33_-_アウトライン" data-name="パス 33 - アウトライン" d="M58.452,23.147H32.966a.475.475,0,1,1,0-.949H58.452a.475.475,0,0,1,0,.949Zm-25.486-.855a.38.38,0,1,0,0,.761H58.452a.38.38,0,1,0,0-.761Z" transform="translate(-10644.177 -16126.221)" fill="#fff" stroke="#fff" stroke-width="0.3"/>
      <path id="パス_110099" data-name="パス 110099" d="M93.032,46.418a.429.429,0,0,1-.428-.428V41.317H85.2v4.673a.428.428,0,0,1-.855,0v-5.1a.429.429,0,0,1,.428-.428h8.263a.429.429,0,0,1,.428.428v5.1a.429.429,0,0,1-.428.428" transform="translate(-10682.977 -16139.882)" fill="#fff" stroke="#fff" stroke-width="0.3"/>
      <path id="パス_34_-_アウトライン" data-name="パス 34 - アウトライン" d="M92.929,46.362a.475.475,0,0,1-.475-.475V41.261H85.14v4.626a.475.475,0,0,1-.949,0v-5.1a.475.475,0,0,1,.475-.475h8.263a.475.475,0,0,1,.475.475v5.1A.475.475,0,0,1,92.929,46.362Zm-7.883-5.2h7.5v4.721a.38.38,0,1,0,.761,0v-5.1a.381.381,0,0,0-.38-.38H84.666a.381.381,0,0,0-.38.38v5.1a.38.38,0,0,0,.761,0Z" transform="translate(-10682.874 -16139.779)" fill="#fff" stroke="#fff" stroke-width="0.3"/>
      <path id="パス_110100" data-name="パス 110100" d="M108.17,89.217h-3.1a.428.428,0,0,1,0-.855h3.1a.428.428,0,1,1,0,.855" transform="translate(-10698.17 -16175.734)" fill="#fff" stroke="#fff" stroke-width="0.3"/>
      <path id="パス_35_-_アウトライン" data-name="パス 35 - アウトライン" d="M108.067,89.161h-3.1a.475.475,0,1,1,0-.949h3.1a.475.475,0,0,1,0,.949Zm-3.1-.855a.38.38,0,0,0,0,.761h3.1a.38.38,0,0,0,0-.761Z" transform="translate(-10698.067 -16175.632)" fill="#fff" stroke="#fff" stroke-width="0.3"/>
      <path id="パス_110101" data-name="パス 110101" d="M73.2,98.149H69.307a.429.429,0,0,1-.428-.428V88.79a.429.429,0,0,1,.428-.428h6.076a.428.428,0,1,1,0,.855H69.734v8.077H73.2a.428.428,0,1,1,0,.855" transform="translate(-10671.403 -16175.734)" fill="#fff" stroke="#fff" stroke-width="0.3"/>
      <path id="パス_36_-_アウトライン" data-name="パス 36 - アウトライン" d="M73.092,98.094H69.2a.475.475,0,0,1-.475-.475V88.687a.475.475,0,0,1,.475-.475H75.28a.475.475,0,0,1,0,.949h-5.6v7.983h3.414a.475.475,0,1,1,0,.949ZM69.2,88.306a.381.381,0,0,0-.38.38v8.932a.381.381,0,0,0,.38.38h3.889a.38.38,0,1,0,0-.761H69.584V89.067h5.7a.38.38,0,0,0,0-.761Z" transform="translate(-10671.3 -16175.632)" fill="#fff" stroke="#fff" stroke-width="0.3"/>
      <path id="パス_110102" data-name="パス 110102" d="M102.295,86.678h-5.15a.428.428,0,1,1,0-.855h4.723V73.464a.428.428,0,0,1,.855,0V86.25a.429.429,0,0,1-.428.428" transform="translate(-10692.24 -16164.264)" fill="#fff" stroke="#fff" stroke-width="0.3"/>
      <path id="パス_37_-_アウトライン" data-name="パス 37 - アウトライン" d="M102.192,86.622h-5.15a.475.475,0,1,1,0-.949h4.675V73.361a.475.475,0,1,1,.949,0V86.147A.475.475,0,0,1,102.192,86.622Zm-5.15-.855a.38.38,0,1,0,0,.761h5.15a.381.381,0,0,0,.38-.38V73.361a.38.38,0,1,0-.761,0V85.767Z" transform="translate(-10692.137 -16164.16)" fill="#fff" stroke="#fff" stroke-width="0.3"/>
      <path id="パス_110103" data-name="パス 110103" d="M49.841,55.74a.429.429,0,0,1-.428-.428V50.139a.429.429,0,0,1,.428-.428H58.57a.428.428,0,1,1,0,.855h-8.3v4.746a.429.429,0,0,1-.428.428" transform="translate(-10656.833 -16146.805)" fill="#fff" stroke="#fff" stroke-width="0.3"/>
      <path id="パス_38_-_アウトライン" data-name="パス 38 - アウトライン" d="M49.738,55.684a.475.475,0,0,1-.475-.475V50.036a.475.475,0,0,1,.475-.475h8.729a.475.475,0,1,1,0,.949H50.212v4.7A.475.475,0,0,1,49.738,55.684Zm0-6.029a.381.381,0,0,0-.38.38v5.174a.38.38,0,0,0,.761,0V50.416h8.349a.38.38,0,0,0,0-.761Z" transform="translate(-10656.73 -16146.702)" fill="#fff" stroke="#fff" stroke-width="0.3"/>
      <path id="パス_110104" data-name="パス 110104" d="M54.69,89.554h-4.84a.429.429,0,0,1-.427-.428V83.953a.427.427,0,1,1,.855,0V88.7H54.69a.428.428,0,0,1,0,.855" transform="translate(-10656.84 -16172.114)" fill="#fff" stroke="#fff" stroke-width="0.3"/>
      <path id="パス_39_-_アウトライン" data-name="パス 39 - アウトライン" d="M54.587,89.5h-4.84a.475.475,0,0,1-.474-.475V83.85a.475.475,0,1,1,.949,0v4.7h4.366a.475.475,0,0,1,0,.949Zm-4.84-6.029a.381.381,0,0,0-.38.38v5.174a.381.381,0,0,0,.38.38h4.84a.38.38,0,0,0,0-.761h-4.46V83.85A.381.381,0,0,0,49.746,83.469Z" transform="translate(-10656.736 -16172.011)" fill="#fff" stroke="#fff" stroke-width="0.3"/>
      <path id="パス_110105" data-name="パス 110105" d="M84.769,77.7a.429.429,0,0,1-.428-.428v-3.8a.428.428,0,1,1,.855,0v3.8a.429.429,0,0,1-.428.428" transform="translate(-10682.977 -16164.268)" fill="#fff" stroke="#fff" stroke-width="0.3"/>
      <path id="パス_40_-_アウトライン" data-name="パス 40 - アウトライン" d="M84.666,77.642a.475.475,0,0,1-.475-.475v-3.8a.475.475,0,1,1,.949,0v3.8A.475.475,0,0,1,84.666,77.642Zm0-4.654a.381.381,0,0,0-.38.381v3.8a.38.38,0,0,0,.761,0v-3.8A.381.381,0,0,0,84.666,72.987Z" transform="translate(-10682.874 -16164.165)" fill="#fff" stroke="#fff" stroke-width="0.3"/>
    </g>
  </g>
</svg>
