<svg xmlns="http://www.w3.org/2000/svg" width="175" height="87" viewBox="0 0 175 87">
  <g id="グループ_26151" data-name="グループ 26151" transform="translate(9384 17548)" opacity="0.9">
    <path id="長方形_8039" data-name="長方形 8039" d="M0,0H159a16,16,0,0,1,16,16V87a0,0,0,0,1,0,0H0a0,0,0,0,1,0,0V0A0,0,0,0,1,0,0Z" transform="translate(-9384 -17548)" fill="#216724"/>
    <g id="電話の受話器のアイコン素材_その2" data-name="電話の受話器のアイコン素材 その2" transform="translate(-9301.394 -17535.012)">
      <path id="パス_20362" data-name="パス 20362" d="M104.459,113.78c-1.481.962-1.771,3.97-1.212,6.421a22.166,22.166,0,0,0,2.922,6.881,22.974,22.974,0,0,0,5.078,5.479c2.006,1.511,4.865,2.471,6.345,1.509a7.507,7.507,0,0,0,1.912-2.054l-.8-1.229-2.187-3.379c-.163-.251-1.182-.022-1.7.272a4.937,4.937,0,0,0-1.342,1.461c-.479.277-.88,0-1.718-.385a12.421,12.421,0,0,1-4.837-7.473c-.01-.924-.1-1.4.349-1.729a4.923,4.923,0,0,0,1.878-.632c.479-.354,1.1-1.193.941-1.444l-2.187-3.379-.8-1.229A7.485,7.485,0,0,0,104.459,113.78Z" transform="translate(-102.982 -106.67)" fill="#fff"/>
      <path id="パス_20363" data-name="パス 20363" d="M276,9.682a7.174,7.174,0,0,0-4.881-8.561L271.43,0a8.337,8.337,0,0,1,5.694,9.989Z" transform="translate(-262.171)" fill="#fff"/>
      <path id="パス_20364" data-name="パス 20364" d="M262.122,50.837a4.654,4.654,0,0,0-3.116-5.467l.307-1.121a5.816,5.816,0,0,1,3.931,6.9Z" transform="translate(-250.632 -41.82)" fill="#fff"/>
      <path id="パス_20365" data-name="パス 20365" d="M248.22,92.015a2.134,2.134,0,0,0-1.35-2.368l.308-1.124a3.3,3.3,0,0,1,2.166,3.8Z" transform="translate(-239.125 -83.728)" fill="#fff"/>
    </g>
    <path id="パス_110452" data-name="パス 110452" d="M-51.29.28a3.137,3.137,0,0,1-2.09-.84,5.793,5.793,0,0,1-1.56-2.52,12.455,12.455,0,0,1-.59-4.1,12.444,12.444,0,0,1,.6-4.12,5.944,5.944,0,0,1,1.57-2.55,3.14,3.14,0,0,1,2.11-.85,3.117,3.117,0,0,1,2.09.85A5.872,5.872,0,0,1-47.6-11.3a12.638,12.638,0,0,1,.59,4.12,12.264,12.264,0,0,1-.6,4.1A5.865,5.865,0,0,1-49.18-.56,3.16,3.16,0,0,1-51.29.28Zm.04-.68q1.16,0,1.83-1.69a14.6,14.6,0,0,0,.67-5.09,14.782,14.782,0,0,0-.67-5.11Q-50.09-14-51.25-14q-1.18,0-1.86,1.71a14.58,14.58,0,0,0-.68,5.11,14.4,14.4,0,0,0,.68,5.09Q-52.43-.4-51.25-.4Zm6.98.4q-.14,0-.14-.28,0-.3.14-.3h.32a3.549,3.549,0,0,0,1.58-.3.989.989,0,0,0,.6-.94V-11.4a1.984,1.984,0,0,0-.11-.81.673.673,0,0,0-.52-.28,10.862,10.862,0,0,0-1.53-.07h-.34q-.14,0-.14-.3,0-.28.14-.28a6.374,6.374,0,0,0,2.12-.33,5.566,5.566,0,0,0,1.78-1.05.164.164,0,0,1,.1-.06q.1,0,.1.14V-1.82q0,1.24,2.18,1.24h.3a.11.11,0,0,1,.11.07.633.633,0,0,1,.03.23q0,.28-.14.28Zm17.24-3.44q-.44,1.76-.64,2.64l-.1.4q-.04.16-.06.26a.157.157,0,0,1-.18.14h-7a.207.207,0,0,1-.2-.12l-.1-.22a.26.26,0,0,1,0-.2A13.839,13.839,0,0,1-33.88-3.3q.85-1.26,2.25-2.94a21.5,21.5,0,0,0,2.12-2.81,4.392,4.392,0,0,0,.66-2.27,3.132,3.132,0,0,0-.6-1.9,2.174,2.174,0,0,0-1.88-.82,2.686,2.686,0,0,0-1.6.47,1.38,1.38,0,0,0-.66,1.15,1.218,1.218,0,0,0,.07.44,1.826,1.826,0,0,0,.23.4,2.571,2.571,0,0,1,.21.39,1.076,1.076,0,0,1,.07.41,1.041,1.041,0,0,1-.29.77,1.015,1.015,0,0,1-.75.29.951.951,0,0,1-.73-.39,1.6,1.6,0,0,1-.33-1.07,3.252,3.252,0,0,1,.45-1.56,3.812,3.812,0,0,1,1.36-1.39,4.121,4.121,0,0,1,2.23-.57,4.21,4.21,0,0,1,2.32.57,3.219,3.219,0,0,1,1.25,1.42,4.389,4.389,0,0,1,.37,1.77,3.592,3.592,0,0,1-.28,1.47,4.357,4.357,0,0,1-.76,1.16q-.48.53-1.44,1.41-.22.22-.56.52t-.78.74a14.886,14.886,0,0,0-3,4.18h2.38a10.272,10.272,0,0,0,2.18-.17,1.961,1.961,0,0,0,1.09-.61,4.906,4.906,0,0,0,.73-1.42q.04-.12.14-.12a1.656,1.656,0,0,1,.18.04.784.784,0,0,1,.18.08.135.135,0,0,1,.06.12Zm6.1,3.72a3.137,3.137,0,0,1-2.09-.84,5.793,5.793,0,0,1-1.56-2.52,12.455,12.455,0,0,1-.59-4.1,12.444,12.444,0,0,1,.6-4.12A5.945,5.945,0,0,1-23-13.85a3.14,3.14,0,0,1,2.11-.85,3.117,3.117,0,0,1,2.09.85,5.872,5.872,0,0,1,1.56,2.55,12.638,12.638,0,0,1,.59,4.12,12.264,12.264,0,0,1-.6,4.1A5.865,5.865,0,0,1-18.82-.56,3.16,3.16,0,0,1-20.93.28Zm.04-.68q1.16,0,1.83-1.69a14.6,14.6,0,0,0,.67-5.09,14.782,14.782,0,0,0-.67-5.11Q-19.73-14-20.89-14q-1.18,0-1.86,1.71a14.58,14.58,0,0,0-.68,5.11,14.4,14.4,0,0,0,.68,5.09Q-22.07-.4-20.89-.4Zm9.74-3.8a.141.141,0,0,1-.16.16h-3.38a.141.141,0,0,1-.16-.16v-.96a.141.141,0,0,1,.16-.16h3.38a.141.141,0,0,1,.16.16ZM-8.49,0q-.14,0-.14-.28,0-.3.14-.3h.32a3.549,3.549,0,0,0,1.58-.3.989.989,0,0,0,.6-.94V-11.4a1.984,1.984,0,0,0-.11-.81.673.673,0,0,0-.52-.28,10.862,10.862,0,0,0-1.53-.07h-.34q-.14,0-.14-.3,0-.28.14-.28a6.374,6.374,0,0,0,2.12-.33,5.566,5.566,0,0,0,1.78-1.05.164.164,0,0,1,.1-.06q.1,0,.1.14V-1.82q0,1.24,2.18,1.24h.3a.11.11,0,0,1,.11.07.633.633,0,0,1,.03.23q0,.28-.14.28ZM8.75-3.44Q8.31-1.68,8.11-.8l-.1.4q-.04.16-.06.26A.157.157,0,0,1,7.77,0h-7a.207.207,0,0,1-.2-.12L.47-.34a.26.26,0,0,1,0-.2A13.839,13.839,0,0,1,1.9-3.3q.85-1.26,2.25-2.94A21.5,21.5,0,0,0,6.27-9.05a4.392,4.392,0,0,0,.66-2.27,3.132,3.132,0,0,0-.6-1.9,2.174,2.174,0,0,0-1.88-.82,2.686,2.686,0,0,0-1.6.47,1.38,1.38,0,0,0-.66,1.15,1.218,1.218,0,0,0,.07.44,1.826,1.826,0,0,0,.23.4,2.572,2.572,0,0,1,.21.39,1.076,1.076,0,0,1,.07.41,1.041,1.041,0,0,1-.29.77,1.015,1.015,0,0,1-.75.29A.951.951,0,0,1,1-10.11a1.6,1.6,0,0,1-.33-1.07,3.252,3.252,0,0,1,.45-1.56,3.812,3.812,0,0,1,1.36-1.39,4.121,4.121,0,0,1,2.23-.57,4.21,4.21,0,0,1,2.32.57,3.219,3.219,0,0,1,1.25,1.42,4.389,4.389,0,0,1,.37,1.77,3.592,3.592,0,0,1-.28,1.47,4.357,4.357,0,0,1-.76,1.16q-.48.53-1.44,1.41-.22.22-.56.52t-.78.74a14.886,14.886,0,0,0-3,4.18H4.21a10.272,10.272,0,0,0,2.18-.17,1.961,1.961,0,0,0,1.09-.61,4.906,4.906,0,0,0,.73-1.42q.04-.12.14-.12a1.656,1.656,0,0,1,.18.04.784.784,0,0,1,.18.08.135.135,0,0,1,.06.12Zm5.48-.76a.141.141,0,0,1-.16.16H10.69a.141.141,0,0,1-.16-.16v-.96a.141.141,0,0,1,.16-.16h3.38a.141.141,0,0,1,.16.16Zm10.16.76q-.44,1.76-.64,2.64l-.1.4q-.04.16-.06.26a.157.157,0,0,1-.18.14h-7a.207.207,0,0,1-.2-.12l-.1-.22a.26.26,0,0,1,0-.2A13.839,13.839,0,0,1,17.54-3.3q.85-1.26,2.25-2.94a21.5,21.5,0,0,0,2.12-2.81,4.392,4.392,0,0,0,.66-2.27,3.132,3.132,0,0,0-.6-1.9,2.174,2.174,0,0,0-1.88-.82,2.686,2.686,0,0,0-1.6.47,1.38,1.38,0,0,0-.66,1.15,1.218,1.218,0,0,0,.07.44,1.826,1.826,0,0,0,.23.4,2.572,2.572,0,0,1,.21.39,1.076,1.076,0,0,1,.07.41,1.041,1.041,0,0,1-.29.77,1.015,1.015,0,0,1-.75.29.951.951,0,0,1-.73-.39,1.6,1.6,0,0,1-.33-1.07,3.252,3.252,0,0,1,.45-1.56,3.812,3.812,0,0,1,1.36-1.39,4.121,4.121,0,0,1,2.23-.57,4.21,4.21,0,0,1,2.32.57,3.219,3.219,0,0,1,1.25,1.42,4.389,4.389,0,0,1,.37,1.77,3.592,3.592,0,0,1-.28,1.47,4.357,4.357,0,0,1-.76,1.16q-.48.53-1.44,1.41-.22.22-.56.52t-.78.74a14.886,14.886,0,0,0-3,4.18h2.38a10.272,10.272,0,0,0,2.18-.17,1.961,1.961,0,0,0,1.09-.61,4.906,4.906,0,0,0,.73-1.42q.04-.12.14-.12a1.656,1.656,0,0,1,.18.04.784.784,0,0,1,.18.08.135.135,0,0,1,.06.12Zm10.5-.68a.141.141,0,0,1,.16.16v.52a.141.141,0,0,1-.16.16h-2.1V-1.3a.558.558,0,0,0,.38.58,2.953,2.953,0,0,0,1,.14h.26q.18,0,.18.28,0,.3-.18.3h-4.8q-.16,0-.16-.3,0-.28.16-.28h.26a2.953,2.953,0,0,0,1-.14.558.558,0,0,0,.38-.58V-3.28H26.05a.141.141,0,0,1-.16-.16v-.58a.472.472,0,0,1,.06-.2l5.98-10.36a.152.152,0,0,1,.2-.08l.52.1a.173.173,0,0,1,.14.18V-4.12ZM31.27-11.8,26.85-4.12h4.42Zm9.84,4.12a5.173,5.173,0,0,1,2.7,1.28,3.215,3.215,0,0,1,1.04,2.44,4.794,4.794,0,0,1-.41,1.87A3.82,3.82,0,0,1,42.99-.42a4.906,4.906,0,0,1-2.78.7,4.435,4.435,0,0,1-2.23-.5,3.056,3.056,0,0,1-1.24-1.21,2.961,2.961,0,0,1-.37-1.37,1.293,1.293,0,0,1,.31-.95.977.977,0,0,1,.71-.31,1.252,1.252,0,0,1,.76.25.829.829,0,0,1,.34.71,1.219,1.219,0,0,1-.22.58,2.094,2.094,0,0,0-.17.28.706.706,0,0,0-.07.32,1.535,1.535,0,0,0,.44,1.06,2.059,2.059,0,0,0,1.56.48,2.729,2.729,0,0,0,1.58-.48,3.258,3.258,0,0,0,1.1-1.32,4.414,4.414,0,0,0,.4-1.92,3.42,3.42,0,0,0-.8-2.36,2.816,2.816,0,0,0-2.22-.9,3.26,3.26,0,0,0-.42.04,3.47,3.47,0,0,1-.48.04.609.609,0,0,1-.37-.11.362.362,0,0,1-.15-.31.369.369,0,0,1,.15-.3.574.574,0,0,1,.37-.12,2.14,2.14,0,0,1,.52.06,4.3,4.3,0,0,0,.5.04,2.742,2.742,0,0,0,1.62-.56,2.847,2.847,0,0,0,.78-2.4,3.2,3.2,0,0,0-.71-2.35,2.3,2.3,0,0,0-1.65-.69,2.537,2.537,0,0,0-1.13.27,1.02,1.02,0,0,0-.55,1.01,1.678,1.678,0,0,0,.16.68,1.014,1.014,0,0,1,.14.52.859.859,0,0,1-.23.62.758.758,0,0,1-.57.24,1,1,0,0,1-.89-.39,1.494,1.494,0,0,1-.27-.87,2.145,2.145,0,0,1,.45-1.19,3.721,3.721,0,0,1,1.27-1.11,3.777,3.777,0,0,1,1.88-.46,4.067,4.067,0,0,1,2.03.49,3.419,3.419,0,0,1,1.33,1.3,3.485,3.485,0,0,1,.46,1.75,3.356,3.356,0,0,1-.81,2.25A3.929,3.929,0,0,1,41.11-7.68Zm9.72-7a3.869,3.869,0,0,1,2.34.76,4.954,4.954,0,0,1,1.62,2.13,8.021,8.021,0,0,1,.58,3.15,13.345,13.345,0,0,1-.8,4.89A7.4,7.4,0,0,1,52.56-.71,3.737,3.737,0,0,1,50.19.3,4.244,4.244,0,0,1,48.6.03a2.348,2.348,0,0,1-1.01-.71,1.485,1.485,0,0,1-.34-.92.966.966,0,0,1,.29-.71.942.942,0,0,1,.69-.29.956.956,0,0,1,.74.37,1.6,1.6,0,0,1,.36.97,1.14,1.14,0,0,0,.24.68.856.856,0,0,0,.66.22,2.085,2.085,0,0,0,1.76-1.09,8.355,8.355,0,0,0,1.1-2.68,20.206,20.206,0,0,0,.5-3.19,4.139,4.139,0,0,1-1.48,1.48,3.637,3.637,0,0,1-1.82.5,3.39,3.39,0,0,1-2-.59,3.782,3.782,0,0,1-1.28-1.55,4.885,4.885,0,0,1-.44-2.06,6.175,6.175,0,0,1,.53-2.56,4.574,4.574,0,0,1,1.5-1.88A3.713,3.713,0,0,1,50.83-14.68Zm.04,8.4a2.669,2.669,0,0,0,1.61-.59A3.362,3.362,0,0,0,53.63-8.7a10.822,10.822,0,0,0-.59-3.72,2.167,2.167,0,0,0-2.21-1.5,1.85,1.85,0,0,0-1.31.54,3.587,3.587,0,0,0-.89,1.48,6.489,6.489,0,0,0-.32,2.1,3.7,3.7,0,0,0,.81,2.82A2.628,2.628,0,0,0,50.87-6.28Z" transform="translate(-9296 -17481)" fill="#fff"/>
  </g>
</svg>
