<svg xmlns="http://www.w3.org/2000/svg" xmlns:xlink="http://www.w3.org/1999/xlink" width="480" height="300" viewBox="0 0 480 300">
  <defs>
    <clipPath id="clip-path">
      <rect id="長方形_9389" data-name="長方形 9389" width="480" height="300" transform="translate(-11254 -18724)" fill="none"/>
    </clipPath>
  </defs>
  <g id="マスクグループ_305" data-name="マスクグループ 305" transform="translate(11254 18724)" clip-path="url(#clip-path)">
    <g id="グループ_25902" data-name="グループ 25902" transform="translate(-4331.538 2237.81) rotate(14)">
      <path id="パス_109781" data-name="パス 109781" d="M845.386,619.33a.446.446,0,0,1-.444-.708l3.236-4.25a.446.446,0,1,1,.71.541l-3.236,4.25a.446.446,0,0,1-.266.167" transform="translate(-12216.219 -19185.633)" fill="#216724"/>
      <path id="パス_109782" data-name="パス 109782" d="M824.443,635.694a.446.446,0,0,1-.454-.695,9.583,9.583,0,0,1,5.336-3.729.446.446,0,0,1,.233.862,8.686,8.686,0,0,0-4.84,3.382.447.447,0,0,1-.275.18" transform="translate(-12201.871 -19197.32)" fill="#216724"/>
      <path id="パス_109783" data-name="パス 109783" d="M827.022,649.068a.445.445,0,0,1-.3-.043,6.677,6.677,0,0,1-1.077-.712,5.753,5.753,0,0,1-1.68-2.048,5.146,5.146,0,0,1-.329-3.2.446.446,0,1,1,.874.181,4.259,4.259,0,0,0,.266,2.644,4.852,4.852,0,0,0,1.432,1.728,5.751,5.751,0,0,0,.932.616.446.446,0,0,1-.12.832" transform="translate(-12201.605 -19205.17)" fill="#216724"/>
      <path id="パス_109784" data-name="パス 109784" d="M845.919,660.521a21.066,21.066,0,0,1-8.451-.005.446.446,0,1,1,.179-.874,20.24,20.24,0,0,0,11.679-1.075.446.446,0,0,1,.333.828,21.6,21.6,0,0,1-3.741,1.127" transform="translate(-12210.917 -19216.01)" fill="#216724"/>
      <path id="パス_109785" data-name="パス 109785" d="M877.185,655.774a10.114,10.114,0,0,1-5.388-.346,9.924,9.924,0,0,1-3.131-1.8.446.446,0,1,1,.578-.681,9.025,9.025,0,0,0,2.849,1.641,9.278,9.278,0,0,0,5.284.23.446.446,0,1,1,.213.867c-.128.032-.264.062-.4.091" transform="translate(-12232.428 -19212.109)" fill="#216724"/>
      <path id="パス_109786" data-name="パス 109786" d="M905.565,664.363a.444.444,0,0,1-.321-.056l-4.12-2.51a.446.446,0,1,1,.464-.762l4.12,2.51a.446.446,0,0,1-.143.818" transform="translate(-12254.626 -19217.68)" fill="#216724"/>
      <path id="パス_109787" data-name="パス 109787" d="M1036.015,781.277a.459.459,0,0,1-.141.006,15.72,15.72,0,0,1-5.882-1.839,15.523,15.523,0,0,1-3.746-3.2l-.348-.368a.446.446,0,1,1,.647-.615l.35.37a14.629,14.629,0,0,0,3.532,3.032,14.832,14.832,0,0,0,5.55,1.731.446.446,0,0,1,.037.881" transform="translate(-12340.177 -19295.891)" fill="#216724"/>
      <path id="パス_109788" data-name="パス 109788" d="M950.6,704.778a.446.446,0,0,1-.386-.1,34.39,34.39,0,0,0-4.711-3.323c-.768-.479-1.561-.975-2.325-1.492a151.631,151.631,0,0,1-13.458-10.592,50.242,50.242,0,0,1-12.356-15.495.446.446,0,1,1,.8-.4A49.358,49.358,0,0,0,930.3,688.59a150.821,150.821,0,0,0,13.378,10.529c.75.509,1.537,1,2.3,1.474a35.069,35.069,0,0,1,4.832,3.413.446.446,0,0,1-.207.77" transform="translate(-12265.866 -19226.008)" fill="#216724"/>
      <path id="パス_109789" data-name="パス 109789" d="M999.093,586.824a.445.445,0,0,1-.394-.111,82.981,82.981,0,0,1-14.5-17.681c-1.2-1.983-2.093-3.662-3.041-5.44-1.311-2.46-2.667-5-4.931-8.506a107.773,107.773,0,0,0-9.735-12.836l-14.231-2.915a.446.446,0,1,1,.179-.874l14.377,2.945a.449.449,0,0,1,.244.141,108.7,108.7,0,0,1,9.915,13.055c2.285,3.533,3.65,6.094,4.969,8.571.941,1.767,1.831,3.435,3.016,5.4a82.1,82.1,0,0,0,14.343,17.49.446.446,0,0,1-.215.763" transform="translate(-12289.567 -19133.738)" fill="#216724"/>
      <path id="パス_109790" data-name="パス 109790" d="M1138.505,703.728a.455.455,0,0,1-.16,0,121.182,121.182,0,0,1-24.785-6.748c-2.279-.891-4.561-1.866-6.783-2.9a.446.446,0,0,1,.375-.81c2.206,1.024,4.471,1.992,6.733,2.876a120.289,120.289,0,0,0,24.6,6.7.446.446,0,0,1,.018.878" transform="translate(-12395.496 -19239.785)" fill="#216724"/>
      <path id="パス_109791" data-name="パス 109791" d="M1098.069,809.543a.444.444,0,0,1-.347-.073,118.665,118.665,0,0,0-33.269-16.508.446.446,0,1,1,.267-.851,119.531,119.531,0,0,1,33.519,16.631.446.446,0,0,1-.169.8" transform="translate(-12366.462 -19307.514)" fill="#216724"/>
      <path id="パス_109792" data-name="パス 109792" d="M893.085,611.089a.444.444,0,0,1-.366-.087,20.132,20.132,0,0,0-10.735-4.259.446.446,0,1,1,.078-.889,21.022,21.022,0,0,1,11.21,4.448.446.446,0,0,1-.187.787" transform="translate(-12241.382 -19179.916)" fill="#216724"/>
      <path id="パス_109793" data-name="パス 109793" d="M858.769,607.248a.446.446,0,0,1-.442-.711,6.179,6.179,0,0,1,3.236-2.167,6.1,6.1,0,0,1,3.072-.018.446.446,0,1,1-.219.865,5.2,5.2,0,0,0-2.621.014,5.281,5.281,0,0,0-2.763,1.853.443.443,0,0,1-.263.164" transform="translate(-12225.388 -19178.76)" fill="#216724"/>
      <path id="パス_109794" data-name="パス 109794" d="M937.912,625.313a.441.441,0,0,1-.268-.029c-6.611-2.908-12.162-4.093-17.47-3.727a.446.446,0,0,1-.061-.89c5.457-.376,11.142.832,17.891,3.8a.446.446,0,0,1-.091.846" transform="translate(-12267.499 -19190.02)" fill="#216724"/>
      <path id="パス_109795" data-name="パス 109795" d="M854.841,549.312a.446.446,0,0,1-.521-.548l4.09-15.981a.446.446,0,1,1,.865.221l-4.09,15.981a.445.445,0,0,1-.343.327" transform="translate(-12222.697 -19129.623)" fill="#216724"/>
      <path id="パス_109796" data-name="パス 109796" d="M830.783,580.032a.446.446,0,0,1-.49-.633l7.951-16.3a.446.446,0,1,1,.8.391l-7.951,16.3a.446.446,0,0,1-.312.242" transform="translate(-12206.214 -19150.451)" fill="#216724"/>
      <path id="パス_109797" data-name="パス 109797" d="M827.453,624.8a.447.447,0,0,1-.5-.267,6.528,6.528,0,0,1-.453-3.25,6.44,6.44,0,0,1,.83-2.479.446.446,0,1,1,.772.448,5.545,5.545,0,0,0-.716,2.137,5.626,5.626,0,0,0,.392,2.8.447.447,0,0,1-.242.583.463.463,0,0,1-.082.025" transform="translate(-12203.615 -19188.635)" fill="#216724"/>
      <path id="パス_109798" data-name="パス 109798" d="M841.526,600.331a.447.447,0,0,1-.516-.567c.771-2.547,1.576-5.126,2.393-7.665.5-1.547,1.011-3.113,1.525-4.654a.446.446,0,1,1,.847.282c-.513,1.538-1.025,3.1-1.522,4.645-.815,2.535-1.619,5.109-2.389,7.651a.447.447,0,0,1-.339.308" transform="translate(-12213.574 -19167.096)" fill="#216724"/>
      <path id="パス_109799" data-name="パス 109799" d="M889.941,551.969a.379.379,0,0,1-.047.007.446.446,0,0,1-.487-.4,28.52,28.52,0,0,0-2.172-8.494.446.446,0,0,1,.821-.351,29.428,29.428,0,0,1,2.24,8.76.447.447,0,0,1-.355.48" transform="translate(-12245.232 -19136.482)" fill="#216724"/>
      <path id="パス_109800" data-name="パス 109800" d="M841.062,673.981a.447.447,0,0,1-.456-.692l10.6-15.233a.446.446,0,1,1,.733.51l-10.6,15.233a.447.447,0,0,1-.277.182" transform="translate(-12213.256 -19215.551)" fill="#216724"/>
      <path id="パス_109801" data-name="パス 109801" d="M905.111,521.482a.446.446,0,0,1-.466-.677q2.821-4.429,5.632-8.86c6.944-10.946,13.949-22.071,20.82-33.066a.446.446,0,1,1,.757.473c-6.872,11-13.878,22.123-20.823,33.071q-2.812,4.432-5.633,8.861a.444.444,0,0,1-.287.2" transform="translate(-12257.139 -19092.779)" fill="#216724"/>
      <path id="パス_109802" data-name="パス 109802" d="M966.352,435.782a.446.446,0,0,1-.474-.664l5.76-9.785a.446.446,0,0,1,.769.453l-5.76,9.785a.446.446,0,0,1-.3.211" transform="translate(-12299.097 -19056.086)" fill="#216724"/>
      <path id="パス_109803" data-name="パス 109803" d="M995.238,427.659a.444.444,0,0,1-.239-.017,15.929,15.929,0,0,1-6.863-4.754.446.446,0,1,1,.683-.575,15.034,15.034,0,0,0,6.48,4.488.446.446,0,0,1-.061.858" transform="translate(-12314.317 -19054.057)" fill="#216724"/>
      <path id="パス_109804" data-name="パス 109804" d="M989.584,450.991a.446.446,0,0,1-.461-.684l5.663-8.565a.446.446,0,1,1,.744.492l-5.663,8.566a.447.447,0,0,1-.283.191" transform="translate(-12315.014 -19067.34)" fill="#216724"/>
      <path id="パス_109805" data-name="パス 109805" d="M973.578,463.147a.441.441,0,0,1-.114.008A7.894,7.894,0,0,1,969.3,461.7a7.734,7.734,0,0,1-2-2.118.446.446,0,1,1,.751-.482,6.849,6.849,0,0,0,1.774,1.875,7,7,0,0,0,3.7,1.285.446.446,0,0,1,.065.883" transform="translate(-12300.06 -19079.232)" fill="#216724"/>
      <path id="パス_109806" data-name="パス 109806" d="M970.767,468.611a.439.439,0,0,1-.156,0,11.478,11.478,0,0,1-5.141-2.135,11.275,11.275,0,0,1-2.551-2.664.446.446,0,1,1,.736-.5A10.4,10.4,0,0,0,966,465.765a10.586,10.586,0,0,0,4.74,1.967.446.446,0,0,1,.022.878" transform="translate(-12297.058 -19082.123)" fill="#216724"/>
      <path id="パス_109807" data-name="パス 109807" d="M966.008,464.358a.446.446,0,0,1-.481-.651l.756-1.383a.446.446,0,1,1,.783.428l-.756,1.384a.445.445,0,0,1-.3.223" transform="translate(-12298.861 -19081.42)" fill="#216724"/>
      <path id="パス_109808" data-name="パス 109808" d="M983.856,473.659a.446.446,0,0,1-.467-.675l.868-1.378a.446.446,0,0,1,.755.476l-.868,1.379a.447.447,0,0,1-.288.2" transform="translate(-12311.09 -19087.795)" fill="#216724"/>
      <path id="パス_109809" data-name="パス 109809" d="M876.118,507.057a.446.446,0,0,1-.473-.664L902,461.8a.446.446,0,1,1,.768.454l-26.359,44.595a.445.445,0,0,1-.3.21" transform="translate(-12237.274 -19081.068)" fill="#216724"/>
      <path id="パス_109810" data-name="パス 109810" d="M825.346,672.556a.446.446,0,0,1-.473-.664l4.807-8.154a.446.446,0,1,1,.769.453l-4.807,8.153a.444.444,0,0,1-.3.211" transform="translate(-12202.489 -19219.426)" fill="#216724"/>
      <path id="パス_109811" data-name="パス 109811" d="M827.154,700.239a.44.44,0,0,1-.172,0,7.986,7.986,0,0,1-5.366-3.784.446.446,0,0,1,.773-.447,7.081,7.081,0,0,0,4.76,3.354.446.446,0,0,1,.006.876" transform="translate(-12200.259 -19241.533)" fill="#216724"/>
      <path id="パス_109812" data-name="パス 109812" d="M830.8,695.378a.441.441,0,0,1-.143.006,7.916,7.916,0,0,1-3.983-1.656,7.776,7.776,0,0,1-1.954-2.317.446.446,0,0,1,.78-.434,6.894,6.894,0,0,0,1.731,2.053,7.017,7.017,0,0,0,3.533,1.467.446.446,0,0,1,.036.881" transform="translate(-12202.389 -19238.08)" fill="#216724"/>
      <path id="パス_109813" data-name="パス 109813" d="M811.753,706.382a.446.446,0,0,1-.5-.613l2.529-5.882a.446.446,0,0,1,.82.352l-2.53,5.882a.446.446,0,0,1-.321.261" transform="translate(-12193.177 -19244.156)" fill="#216724"/>
      <path id="パス_109814" data-name="パス 109814" d="M821.942,714.643a.446.446,0,0,1-.432-.723l5.058-6.06a.446.446,0,0,1,.686.572l-5.059,6.06a.444.444,0,0,1-.253.151" transform="translate(-12200.157 -19249.693)" fill="#216724"/>
      <path id="パス_109815" data-name="パス 109815" d="M815.329,723.706a.43.43,0,0,1-.1.008,3.942,3.942,0,0,1-3.426-2.135.446.446,0,0,1,.793-.41,3.052,3.052,0,0,0,2.652,1.653.446.446,0,0,1,.08.883" transform="translate(-12193.545 -19258.758)" fill="#216724"/>
      <path id="パス_109816" data-name="パス 109816" d="M808.541,726.862a.446.446,0,0,1-.5-.605l1.084-2.662a.446.446,0,1,1,.827.337l-1.084,2.662a.446.446,0,0,1-.325.269" transform="translate(-12190.976 -19260.395)" fill="#216724"/>
      <path id="パス_109817" data-name="パス 109817" d="M809.78,733.9l-.02,0a1.649,1.649,0,0,1-1.289-.35,1.605,1.605,0,0,1-.527-.887.446.446,0,0,1,.344-.53h0a.446.446,0,0,1,.526.344.709.709,0,0,0,.229.391.75.75,0,0,0,.575.151.446.446,0,0,1,.159.878" transform="translate(-12190.926 -19266.432)" fill="#216724"/>
      <path id="パス_109818" data-name="パス 109818" d="M813.078,730.1a.446.446,0,0,1-.438-.716l2.058-2.571a.446.446,0,0,1,.7.558l-2.058,2.571a.443.443,0,0,1-.259.158" transform="translate(-12194.084 -19262.676)" fill="#216724"/>
      <path id="パス_109819" data-name="パス 109819" d="M808.347,736.708c-.251.419-.382.8-.292.856s.366-.242.617-.662.382-.8.292-.856-.366.243-.617.662" transform="translate(-12190.99 -19269.111)" fill="#216724"/>
      <path id="パス_109820" data-name="パス 109820" d="M807.525,737.226a.343.343,0,0,1-.246-.04c-.267-.16-.146-.515-.106-.631a3.426,3.426,0,0,1,.3-.62c.16-.268.47-.727.75-.8a.354.354,0,0,1,.263.036.344.344,0,0,1,.155.214,1.835,1.835,0,0,1-.349,1.037c-.16.267-.47.727-.75.8l-.016,0m.194-1.143h0Z" transform="translate(-12190.362 -19268.486)" fill="#216724"/>
      <path id="パス_109821" data-name="パス 109821" d="M884.123,523.311a.445.445,0,0,1-.29-.039,30.243,30.243,0,0,0-8.333-2.828,6.934,6.934,0,0,0-3.76.092,6.474,6.474,0,0,0-3.192,2.637.446.446,0,0,1-.749-.486,7.358,7.358,0,0,1,3.641-2.992,7.8,7.8,0,0,1,4.214-.13,31.139,31.139,0,0,1,8.58,2.91.446.446,0,0,1-.112.836" transform="translate(-12231.894 -19120.645)" fill="#216724"/>
      <path id="パス_109822" data-name="パス 109822" d="M928.485,600.2l-.009,0a.446.446,0,0,1-.519-.359l-1.6-8.776a.446.446,0,0,1,.878-.16l1.6,8.776a.446.446,0,0,1-.35.517" transform="translate(-12272.056 -19169.426)" fill="#216724"/>
      <path id="パス_109823" data-name="パス 109823" d="M941.333,591.9a.447.447,0,0,1-.464-.68,40.373,40.373,0,0,0,4.994-11.043.446.446,0,0,1,.859.242,41.265,41.265,0,0,1-5.1,11.287.444.444,0,0,1-.285.195" transform="translate(-12281.955 -19162.102)" fill="#216724"/>
      <path id="パス_109824" data-name="パス 109824" d="M950.187,599.347a.446.446,0,0,1-.5-.615,23.218,23.218,0,0,1,6.22-8.393.446.446,0,1,1,.579.679,22.33,22.33,0,0,0-5.981,8.071.445.445,0,0,1-.32.259" transform="translate(-12288.022 -19169.213)" fill="#216724"/>
      <path id="パス_109825" data-name="パス 109825" d="M860.458,695.732a.446.446,0,0,1-.276-.843,8.834,8.834,0,0,0,2.9-2.117,9.613,9.613,0,0,0,1.928-3.542,65.584,65.584,0,0,0,2.292-8.287.446.446,0,0,1,.874.183,66.557,66.557,0,0,1-2.323,8.4,10.523,10.523,0,0,1-2.106,3.841,9.717,9.717,0,0,1-3.19,2.332.454.454,0,0,1-.1.032" transform="translate(-12226.546 -19231.119)" fill="#216724"/>
      <path id="パス_109826" data-name="パス 109826" d="M882.551,716.984a.446.446,0,0,1-.262-.849,8.689,8.689,0,0,0,2.811-1.88,9.844,9.844,0,0,0,2.613-7.205.446.446,0,0,1,.892-.033,10.742,10.742,0,0,1-2.872,7.868,9.573,9.573,0,0,1-3.1,2.073.474.474,0,0,1-.084.026" transform="translate(-12241.683 -19248.932)" fill="#216724"/>
      <path id="パス_109827" data-name="パス 109827" d="M902.239,698.014c-.1.02-.195.037-.293.054a.446.446,0,1,1-.142-.881,6.118,6.118,0,0,0,2.289-.859,6.208,6.208,0,0,0,1.912-1.889.446.446,0,0,1,.75.483,7.1,7.1,0,0,1-2.189,2.162,7.017,7.017,0,0,1-2.328.93" transform="translate(-12254.983 -19240.469)" fill="#216724"/>
      <path id="パス_109828" data-name="パス 109828" d="M918.955,692a.446.446,0,0,1-.265-.848l2.752-1.181a.446.446,0,1,1,.352.82l-2.752,1.181a.451.451,0,0,1-.087.027" transform="translate(-12266.624 -19237.525)" fill="#216724"/>
      <path id="パス_109829" data-name="パス 109829" d="M885.394,665.769a.447.447,0,0,1-.4-.755,9.875,9.875,0,0,0,2.77-5.236.446.446,0,0,1,.878.162,10.769,10.769,0,0,1-3.02,5.709.445.445,0,0,1-.224.12" transform="translate(-12243.629 -19216.611)" fill="#216724"/>
      <path id="パス_109830" data-name="パス 109830" d="M874.605,669.969a.444.444,0,0,1-.391-.108l-2.764-2.532a.446.446,0,0,1,.6-.658l2.763,2.532a.446.446,0,0,1-.212.766" transform="translate(-12234.345 -19221.504)" fill="#216724"/>
      <path id="パス_109831" data-name="パス 109831" d="M892.2,689.08a.447.447,0,0,1-.418-.135l-3.906-4.235a.446.446,0,0,1,.656-.606l3.906,4.235a.447.447,0,0,1-.238.74" transform="translate(-12245.62 -19233.43)" fill="#216724"/>
      <path id="パス_109832" data-name="パス 109832" d="M847.117,706.238a.446.446,0,0,1-.527-.523l1.119-5.728a.446.446,0,1,1,.876.171l-1.119,5.728a.447.447,0,0,1-.349.352" transform="translate(-12217.405 -19244.164)" fill="#216724"/>
      <path id="パス_109833" data-name="パス 109833" d="M867.392,729.2a.447.447,0,0,1-.507-.593l.828-2.225a.446.446,0,0,1,.837.311l-.829,2.225a.446.446,0,0,1-.329.282" transform="translate(-12231.296 -19262.297)" fill="#216724"/>
      <path id="パス_109834" data-name="パス 109834" d="M851.318,721.238a.41.41,0,0,1-.06.008,4.756,4.756,0,0,1-3.2-.943,4.667,4.667,0,0,1-1.444-1.863.446.446,0,1,1,.82-.353,3.784,3.784,0,0,0,1.166,1.508,3.929,3.929,0,0,0,2.594.761.446.446,0,0,1,.12.883" transform="translate(-12217.405 -19256.627)" fill="#216724"/>
      <path id="パス_109835" data-name="パス 109835" d="M871.887,735.254a5.623,5.623,0,0,1-3.06-.214,5.529,5.529,0,0,1-1.823-1.1.446.446,0,1,1,.6-.661,4.641,4.641,0,0,0,1.529.926,4.777,4.777,0,0,0,2.833.119.44.44,0,0,1,.544.32.446.446,0,0,1-.32.544c-.094.025-.2.048-.3.07" transform="translate(-12231.297 -19267.139)" fill="#216724"/>
      <path id="パス_109836" data-name="パス 109836" d="M995.805,427.229a.446.446,0,0,1-.462-.192,11.423,11.423,0,0,0-6.171-4.637.446.446,0,0,1,.264-.853,12.312,12.312,0,0,1,6.653,5,.446.446,0,0,1-.284.683" transform="translate(-12314.884 -19053.629)" fill="#216724"/>
      <path id="パス_109837" data-name="パス 109837" d="M821.186,694.866a.446.446,0,0,1-.482-.648l.52-.973a.446.446,0,0,1,.787.421l-.521.973a.444.444,0,0,1-.3.227" transform="translate(-12199.64 -19239.629)" fill="#216724"/>
    </g>
    <path id="パス_109865" data-name="パス 109865" d="M60.428,27.44c-1.629,1.4-.669.744-.958,1.091-1.912,1.692-.97.706-1.68,1.228-1.182,1.069-2.034,1.935-2.922,2.725-.082.045-.26.194-.079-.005-1.174,1.195-3.715,3.345-5.074,4.742a2.234,2.234,0,0,1-.214.152c.283-.173.374-.159.361-.085a17.365,17.365,0,0,1-1.557,1.456,5.1,5.1,0,0,0,.615-.661l-.7.71c-.752.537.961-.964.891-1.024-1.391,1.365-2.966,2.988-4.082,3.991-.323.137,2.514-2.423.977-1.124l1.721-1.557c-1.436,1.089,1.034-.956-.307.027-1.123,1.033-1.732,1.627-2.339,2.22l-.975.944c-.358.359-.779.774-1.324,1.3-.432.522.239-.1-.193.426a25.571,25.571,0,0,1-2.7,2.551c-.279.226-.533.427-.847.719s-.675.685-1.188,1.279a14.881,14.881,0,0,1-2.217,2.531l.419-.635c-2.041,2.108-1.013,1.313-3.146,3.522.321-.434,1.507-1.726,1.2-1.408a23.048,23.048,0,0,0-1.9,2.21l-.313.163L30.3,56.711c-.532.611-1.048,1.252-1.583,1.891L27.1,60.546l-.821.981c-.273.328-.531.667-.8,1,.088-.167.423-.644-.111-.041-.665.848-1.359,1.719-2.069,2.6-.351.442-.721.878-1.067,1.33L21.2,67.77l-2.073,2.675c-.665.886-1.292,1.765-1.907,2.6L16.4,74.387c-.212.3-.436.534-.225.2-.947,1.307.006.1-.385.757-.492.767-.714.981-.427.482-1.5,2.4-4.176,6.86-5.659,9.428l.248-.518A21.466,21.466,0,0,0,8.863,86.9c-.126.286-.262.562-.416.889s-.339.7-.6,1.167l.163-.372c-.557,1.112-1.15,2.247-1.684,3.4L4.8,95.426,3.493,98.71c-.221.516-.393,1.027-.573,1.514L2.4,101.617c-.135.7-1.456,4.642-1.324,4.987-.367,1.348-.515,1.828-.692,2.447-.082.311-.2.652-.3,1.163l-.428,2.149c-.207,1.03-.1,1.557-.229,2.839l-.121.023c-.02.584-.076,1.166-.066,1.75l-.2.924-.047,1.209a3.266,3.266,0,0,1,.147-.947c-.017.471-.048.994-.087,1.513-.019.52-.038,1.037-.054,1.5a13.039,13.039,0,0,1-.125,1.637c.114,1.487.175,2.975.407,4.449a13.287,13.287,0,0,1-.25-1.422c.379,2.361-.077.444.271,2.607-.005-.294.087.149.116.2.052.542.185,1.426.344,2.4s.453,2.021.665,2.917l-.159-.328a55.069,55.069,0,0,0,3.6,10.161c-.526-1.245-.265-1.008.2-.009.022.149.045.3.074.444.384.615-.463-1.056.267.228.609,1.269.29.9-.106.19l.4.762.423.752c.014.1-.194-.245-.286-.32A33.254,33.254,0,0,0,6.855,149.3l.019.1a42.043,42.043,0,0,0,2.73,3.749,40.909,40.909,0,0,0,2.8,3.068c.13-.023.974.892,1.766,1.461a40.634,40.634,0,0,0,6.219,4.832c1.78,1.019.563.243,1.385.671.053.175,2.634,1.549,1.264.881.387.208.734.4,1.066.573l.939.462.852.417c.28.13.561.249.846.376.574.247,1.163.525,1.894.8s1.565.621,2.634.982c-.442-.2-.949-.405-.669-.334a8.444,8.444,0,0,1,1.6.673l-.206-.066c2.411.781,5.194,1.67,7.913,2.381a57.066,57.066,0,0,0,7.388,1.509l-.227-.03c.7.109,1.4.2,2.1.285s1.4.178,2.1.25c1.928.27-1.17-.089.249.153,4.555.438,7.178.817,10.949.977a67.215,67.215,0,0,0,6.746.448c2.717.084,5.561.116,7.528.23l-.225-.064a16.451,16.451,0,0,1,1.979.076c-.1-.048-1.1-.069-.469-.093a252.072,252.072,0,0,0,26.65-1.213c3.222-.308,1.795-.483,5.866-.766l-1.139.231c6.478-.808,13.266-1.455,19.594-2.3a8.31,8.31,0,0,1-1,.175c.675-.037,1.914-.18,2.986-.322.536-.071,1.03-.142,1.391-.2a3.17,3.17,0,0,0,.592-.118c.989-.107.237.033.85,0,1.35-.109,3.359-.494,4.084-.5a4.035,4.035,0,0,1-.619.1,30.734,30.734,0,0,0,3.231-.456c2.386-.231,4.549-.56,6.455-.72,1.226-.241,4.082-.4,4.458-.592a44.454,44.454,0,0,0,5.689-.558c-.5.1,1.315-.09.732.036a15.552,15.552,0,0,0,2.983-.418c3.188-.143,6.355-.778,8.165-.711,5.1-.562,9.835-1.011,14.439-1.381a18.533,18.533,0,0,1-2.577.275,11.539,11.539,0,0,0-2.3.275c4.362-.416,6.875-.717,11.213-.963,1.124-.045-.634.1-1.011.158,4.365-.332,8.448-.479,12.336-.7-.01.014-.43.046-.826.073a9.427,9.427,0,0,0,1.7-.113l-.747.048c-.614-.026.146-.109,1.077-.192s2.033-.146,2.1-.175c-1.3.235,3.846-.06,1.781.25.5-.03,1.137-.07,1.021-.115.749,0,.987.023.228.089,2.746-.08,1.771-.152,4.26-.172-.009.034-.511.049-.769.089,1.259-.067,2.528-.151,4.63-.116-.127.019.116.047-.511.041,3.609.02,6.163-.123,10.115.1-1.177.1,1.342.1,1.542.235l2.126.08-.847-.11c.93.054,1.808.082,2.653.112s1.654.094,2.45.173l-1.385-.053c1.159.086,2.321.149,3.479.253-.651-.086-1.307-.14-1.961-.21,1.886.086-.18-.192,2.284.067-.5-.036,1.854.181,2.807.349h-.006c.919.068,1.866.14,3.226.334.347.082-.311.1-.085.158.461-.009,1.535.153,2.642.3l1.607.22c.492.074.918.131,1.207.153-.382-.039-.417.023-.3.057l.768.045c.839.173.959.207.809.235.635.11.9.156,1,.163s.012-.03-.054-.06c-.133-.061-.209-.1,1.28.234-.237-.041-.128-.005-.621-.093.749.162,1.488.313,2.218.459s1.437.327,2.144.485c1.42.3,2.773.7,4.121,1.082.75.34-2.371-.62-1.5-.267a62.763,62.763,0,0,1,11.459,4.06l-.635-.324a7.942,7.942,0,0,1,1.7.786c.776.427,1.654,1,2.526,1.431-.42-.219-.6-.217-.478-.173.575.309,1.112.676,1.685,1.037s1.183.719,1.767,1.166l.926.666a11.849,11.849,0,0,1,.965.732l.991.828a11.742,11.742,0,0,1,1.034.923l-.369-.3.864.911.493.509a6.359,6.359,0,0,1,.495.539l.923,1.119.433.528c.136.172.242.35.354.511.308.357.812,1.1.567.615.67,1.009,1.153,2.07,1.731,3.061.249.513.472,1.03.712,1.536l.356.758c.11.254.193.516.291.772l.562,1.534c.174.512.282,1.036.419,1.551l.188.774a5.451,5.451,0,0,1,.148.777q.1.782.18,1.561c-.077-.493-.228-1.168-.167-.776.094.584.21,1.166.286,1.753l.152,1.77a6.912,6.912,0,0,0,.034-1.22,21.189,21.189,0,0,1,.251,2.33c-.155-1.6-.116.02-.183.712.026-.117.059.12.085.061a2.931,2.931,0,0,0,.017,1.172,4.868,4.868,0,0,1,0,1.685l-.038-.136c-.036.952-.027,1.833-.151,2.858-.143.419.05-1.015-.027-1.084a31.163,31.163,0,0,1-.394,4.144c.069-.612.172-1.49.22-2.1-.291,1.407-.288,1.572-.463,2.619l.018-.1c-.13.807-.3,1.611-.445,2.416l.135-.613c-.039,1.822-.607,3.648-.91,6.077.3-2.361-.018-.4-.1-.595a6.276,6.276,0,0,1-.351,1.269c-.13,1.15-.448,1.889-.61,3.517-.05.067-.228,1.22-.273.951-.226,1.491.122-.344.151-.212-.141,1.152-.408,2.493-.65,3.967-.111.739-.245,1.5-.312,2.31a14.924,14.924,0,0,0,0,2.465,18.18,18.18,0,0,0,.434,3.088c.195.8.377,1.584.786,2.855.108.436.017.27-.1-.008s-.234-.672-.234-.672a15.7,15.7,0,0,0,1.332,3.706c-.15-.243-.052.028.091.428.529.991.442.624,1.167,1.913a7.619,7.619,0,0,1-.715-.9,18.316,18.316,0,0,0,2.474,3.228c.1.156-.062.013-.3-.213s-.509-.556-.682-.738a17.291,17.291,0,0,0,1.869,1.976,9.2,9.2,0,0,0,1.566,1.139c-.272-.212-.538-.431-.8-.652.468.354.171.253-.173-.016a4.573,4.573,0,0,1-1.422-1.462c.225.246.47.477.718.7-.3-.417-.988-1.138-1.686-2.007a15.879,15.879,0,0,1-1.816-2.768l.524.657-.523-.858c-.159-.293-.329-.584-.481-.881-.123-.405-.157-.695.243.172-.236-.649-.372-.924-.478-1.185a5.607,5.607,0,0,1-.356-1.07c-.027-.128,0-.073.041.04-.159-.42-.294-.847-.427-1.275.1.246.05-.239.248.558-.295-1.163-.5-2.1-.651-2.87-.074-.382-.136-.72-.165-1.021a4.112,4.112,0,0,1-.038-.786l.024.2c-.08-.825-.1-1.26-.121-1.484s-.04-.238-.059-.226c-.036.024-.1.156-.142-1.1l.192-.838.226-.827-.073-.335c.049-.342.149-1.018.178-.888.09-1.281-.08.212-.056-.534a46.193,46.193,0,0,1,.96-4.88c.02-.6-.357,1.558-.1-.2a35.845,35.845,0,0,0,.737-3.508c.012.473-.32,1.882.064.4.006-.925.609-2.907.813-4.175-.129-.077.462-2.755.71-4.893.019.07.174-.932.346-2.2.069-.636.156-1.339.218-2.008s.115-1.3.143-1.8l.021.059a7.915,7.915,0,0,1-.068-1.559c-.008-.375-.018-.785-.027-1.2,0-.2-.009-.41-.013-.611s-.033-.4-.049-.582c.079.054.166.321.2,1.135.005-.472-.029-.942-.067-1.412a15.46,15.46,0,0,1-.207-1.68l.13.345c-.019-.235-.039-.47-.058-.706-.035-.235-.08-.47-.121-.708l-.262-1.459c-.051-.249-.075-.507-.147-.762l-.2-.784c-.134-.534-.262-1.094-.395-1.688-.059-.056-.013.43-.032.617-.01.094-.037.113-.1-.044-.033-.078-.077-.2-.132-.382s-.158-.409-.266-.71c.02-.1.076-.217.316.414-.078-.207-.3-.731-.42-1.157l.419.948c-.323-1.059-.26-.529-.539-1.368.078-.005-.162-.636-.064-.534.081.212.221.741.361,1.054-.164-.473-.3-1.007-.476-1.455s-.321-.824-.377-1.018c0,.1-.095.034-.406-.635-.1-.216-.171-.392-.239-.526l-.162-.308a.8.8,0,0,1-.095-.239c-.006-.067.042-.049-.217-.547-.138-.193-.347-.562-.535-.881a2.366,2.366,0,0,0-.275-.4c-.083-.1-.146-.161-.175-.155a3.921,3.921,0,0,1-.435-.773c-.154-.2-.4-.542-.67-.926l-.941-1.114c-.3-.349-.553-.644-.695-.793s-.175-.147-.011.085l.16.2-.109-.125.005.006-.005-.006a37.277,37.277,0,0,0-8.024-6.572l.026-.025c-.432-.272-.926-.509-1.4-.778s-.961-.536-1.441-.777c-.974-.458-1.879-.89-2.566-1.169-.565-.238-1.3-.618-1.041-.551l-1.646-.651c-.5-.178-1.082-.4-2.152-.818a10.008,10.008,0,0,1,1.563.527c-.967-.369-1.555-.61-2.17-.837-.625-.2-1.275-.4-2.358-.7.379.075.016-.069-.562-.267-.586-.176-1.391-.4-1.874-.516l1.39.447c-1.083-.28-2.015-.562-2.977-.81.187.005.374.009.559.023-4.121-1.2-7.629-1.434-10.811-2.177-.573-.043,0,.054.594.156.588.117,1.189.239.677.2-.971-.187-1.969-.349-2.792-.52s-1.482-.3-1.792-.335c-2.693-.378-2.545-.164-5.373-.473.357.075.683.215-1.438.047-1.978-.174-2.416-.356-1.159-.294a3.275,3.275,0,0,1,.682.075c.643.036,1.483.108.705-.014l-.262.015c-.978-.122-3.71-.321-3.061-.339-1.5-.076-.648.017.46.122-1.269-.134-2.266-.184-3.271-.24l-3.333-.179c.417.039.8.1.382.084-3.851-.2-1.7-.009-4.314-.056-1.481-.1.539-.133-2.094-.144-1.605-.073-.336-.117.3-.132-1.2,0-2.321,0-3.312-.04s-1.854-.078-2.54-.077c.422-.011.843-.029,1.265-.034-.756.014-1.376.023-2.006.023l.721.077a10.994,10.994,0,0,1-1.356-.041c-.765.056.583.131-.934.21-.989-.046-3.011.089-3.353-.017,3.111-.017-.344-.1,2.29-.163-.508.021-1.128.032-1.873.03-.112-.01.105-.024.308-.033-2.978-.041-1.368.132-4.453.217.391-.071-.717-.094-1.221-.066,1.244-.034.6.083-.543.162-1.978.022-2.148.116-3.183.149l1.182-.024c-.4.076-1.387.106-2.764.18-.12-.044,1.25-.082.758-.084-1.525.17-3.46.05-5.589.234-.99.017-.1-.107-.97-.084-2.385.215-2.593.064-5.1.3.728.033.853,0-.908.2,1.374-.107,2.748-.225,4.122-.322l-2.641.285c1.245-.085,2.624-.221,3.371-.247-1.258.138-1.129.111-.53.143-1.711-.025-3.372.288-5.346.333l.046-.2c-1.483.064-2.8.186-4.218.321s-2.953.3-4.875.433l1.237-.067c-.508.116-2.369.211-3.609.35.109-.076-.669-.033-1.2-.029.069.04-2.808.252-3.143.416l-1.721.071c-3.1.265-3.513.526-6.489.807.888-.163-.469-.073,1.518-.326a16.237,16.237,0,0,0-1.9.225c-.585.015-2.743.371-3.662.405a11.478,11.478,0,0,1-1.658.268c-.123,0,0-.033,0-.033,0,.032-1.738.232-.757.2-3.081.12-8.537.949-11.217,1.077l-6.726.821c.123-.034,0-.033.374-.07-2.716.252-1.641.382-4.731.672-1.588.076,1.629-.248.642-.174-.455-.168-3.715.462-5.805.575l.5-.071c-1.594.11-3.857.531-6.449.811,0,0,.123-.033.011-.035-1.757.314-5.106.73-7.6,1.031.765-.17,1.127-.168.643-.2-1.116.134.344.1-1.884.37a24.817,24.817,0,0,1-2.57.091l2.1-.228c-1.092,0-2.724.29-3.835.387l.136-.067c-3.224.342-3.255.484-6.727.8l.363.006c-1.884.309-1.6.068-3.482.332l-.584-.083-2.938.309c-1.22.117-2.565.243-3.689.321,1.27-.173,3.9-.4,5.517-.6-1.241.105-4.219.319-4.862.426.5-.047,1.129-.122,1.624-.135-1.517.209-3.521.393-6,.49.215-.139-1.4-.077-3.293-.052a49.051,49.051,0,0,1-4.962-.105c-4.39.043-8.7-.169-13.791-.414,1.79.291-1.488-.067-1.193.151-1.187-.059-1.64-.09-1.744-.11-1.193-.122-2.385-.243-3.573-.388-.841-.134,1.129.053,1.026-.008a26.843,26.843,0,0,1-2.776-.379A7.839,7.839,0,0,1,54.978,172l2.056.3a26.578,26.578,0,0,1-3.356-.389c-.775-.128-1.547-.275-3.362-.463l1.154.088c-.93-.1-2.635-.343-4.328-.616-.847-.133-1.693-.269-2.437-.4s-1.4-.217-1.853-.278c-.315-.093-.723-.239.08-.081-2.173-.455-4.573-1.019-6.825-1.638a48.649,48.649,0,0,1-5.9-1.995c.11.026.219.054.332.075a23.637,23.637,0,0,1-2.275-.879c.059,0,.324.088-.017-.068a30.229,30.229,0,0,1-2.947-1.311l.849.357c-.933-.484-1.773-.887-2.519-1.3l-1.094-.576-1.013-.573c-.329-.189-.666-.363-.984-.56l-.964-.6c-.662-.393-1.3-.857-2.006-1.363.079-.074-2.375-2.15-3.506-3.263l.058.024a50.37,50.37,0,0,1-4.249-4.6,40.653,40.653,0,0,1-3.4-4.868c-.579-1.18-1.6-3.157-2.516-5.385A48.919,48.919,0,0,1,1.7,134.928c.138.622-.155-.07-.367-.783a12.885,12.885,0,0,1-.545-2.486l.075.34a5.765,5.765,0,0,0-.09-.758c-.035-.314-.087-.678-.148-1.067-.117-.778-.3-1.651-.36-2.43l-.229-.234c-.019-.513-.053-1.063-.1-1.638-.021-.577-.044-1.179-.067-1.795-.087-1.229-.054-2.511-.068-3.736-.02-.612.038-1.21.062-1.78s.066-1.111.1-1.611a19,19,0,0,1,.363-2.378c.041-.99.274-2.2.393-3.18l.1.066c.225-1.358.5-2.361.747-3.449.136-.542.235-1.112.421-1.74l.6-2.158-.115.688c.513-1.859.4-2.407.968-4.111l.327-.471c.252-.808.6-1.593.912-2.387s.631-1.589.975-2.373.706-1.561,1.045-2.343l.5-1.173.526-1.158a1.761,1.761,0,0,1-.246.664l1.652-3.266c.6-1.142,1.078-2.038.832-1.822A9.751,9.751,0,0,0,10.979,84.6l.4-.771.44-.782.793-1.425-.056.293c.347-.7.519-1.072.742-1.5.111-.215.236-.445.4-.741s.4-.646.691-1.115c.3-.435.326-.349-.079.224,1.005-1.443.658-1.187,1.868-2.941l-.374.693c.985-1.509.9-1.394,1.4-2.248a27.984,27.984,0,0,1,2.235-2.969,11.527,11.527,0,0,1,1.292-1.9c.117-.1-.1.224-.208.386.946-1.2,1.6-2.111,2.188-2.931s1.153-1.516,1.85-2.31a.972.972,0,0,0,.274-.244L22.9,66.7c-.463.609-.732.958-.68.884.081.048,1.27-1.5.447-.2.429-.649,1.059-1.5,1.716-2.383s1.357-1.791,1.975-2.522c.066-.067.13-.133.186-.179l-.115.159c.28-.34.531-.645.761-.935.411-.455.673-.744,1.056-1.188.212-.129,1.5-1.686,2.142-2.427-.137,0,.711-.96-.141-.1a5.756,5.756,0,0,1-.531.644c-.094.113-.205.246-.263.323l.036-.056-1.58,1.852a20.818,20.818,0,0,1,1.7-2.045c.273-.418.578-.877.755-1.131,1.012-.924,2.828-2.794,3.14-3.012L35.1,52.6l1.71-1.826c1.111-1.195,2.112-2.3,2.693-3.04a5.873,5.873,0,0,1,1-.871c-.336.362-.763.771-.925.982,1.176-1.244,3.6-3.594,3.79-3.966,1.588-1.486-.771.932,1.33-1.174l-.255.307c2.207-1.957,3.888-3.639,5.625-5.382,1.787-1.7,3.622-3.468,6.174-5.543-.356.285-.535.427-.619.475,1.434-1.2,2.882-2.429,4.327-3.674.725-.62,1.441-1.254,2.176-1.872l2.217-1.844c1.481-1.225,2.946-2.463,4.436-3.65s3-2.332,4.482-3.447c1.681-1.277,1.792-1.486,2.777-2.308l.439-.2,1.668-1.421c2.427-1.954,4.473-3.1,7.569-5.546l-.462.249c1.158-.83,3.611-2.693,3.475-2.492a4.829,4.829,0,0,1,.8-.631l.073.016c.914-.717,1.861-1.4,2.79-2.1,2.247-1.535-.2.409,3.047-1.866A28.507,28.507,0,0,0,98.276-.469a9.25,9.25,0,0,1-1.338.834l1.083-.8c.091-.263.829-.988-1.954.834L94.248,1.8l-.661.369,1.584-1.123a17.621,17.621,0,0,0-2.086,1.515,6.128,6.128,0,0,0-.849.492L90.491,4.48c-.268.111.744-.68-.522.17-.813.671.921-.488-.468.574A10.048,10.048,0,0,0,87.779,6.4c-.176.076.027-.105.428-.422-.895.717-2.444,1.814-2.864,2.229-.99.61-3.12,2.311-3.135,2.131-.266.241-1.528,1.312-2.364,1.953,1.405-1.3-3.152,2.381-2.886,1.929-.506.5-1.53,1.276-2.643,2.162s-2.334,1.856-3.29,2.67a5.185,5.185,0,0,1,.48-.419c-1.123.87-1.483,1.09-2.221,1.633a5.853,5.853,0,0,1-1,.98c-.544.472-1.169,1.04-1.6,1.445-1.436,1.009.7-.784.182-.527.149.023-2.246,1.995-1.723,1.685A12.559,12.559,0,0,1,63.617,24.9c-.053.268-.933.806-1.7,1.579a13.74,13.74,0,0,0-2.061,1.609c-.8.616.576-.646.576-.646M25.508,62.549h0l.63-.789-.628.791m-2.582,3.2,1.124-1.386c.121-.094.054.047-.208.368a12.855,12.855,0,0,0-.916,1.018m6.143-6.32a4.991,4.991,0,0,1-.646.713l.732-.871.04-.066a1.15,1.15,0,0,1-.125.224" transform="matrix(0.998, 0.07, -0.07, 0.998, -11175.279, -18785.283)" fill="#216724"/>
  </g>
</svg>
