<svg xmlns="http://www.w3.org/2000/svg" xmlns:xlink="http://www.w3.org/1999/xlink" width="136" height="116" viewBox="0 0 136 116">
  <defs>
    <clipPath id="clip-path">
      <rect id="長方形_9065" data-name="長方形 9065" width="136" height="116" transform="translate(864 5491)" fill="none"/>
    </clipPath>
    <clipPath id="clip-path-2">
      <rect id="長方形_8069" data-name="長方形 8069" width="104.474" height="98.834" transform="translate(0)" fill="#fff"/>
    </clipPath>
    <clipPath id="clip-path-3">
      <rect id="長方形_8068" data-name="長方形 8068" width="148.835" height="165.56" fill="none"/>
    </clipPath>
  </defs>
  <g id="グループ_19410" data-name="グループ 19410" transform="translate(-864 -5488)">
    <g id="マスクグループ_126" data-name="マスクグループ 126" transform="translate(0 -3)" clip-path="url(#clip-path)">
      <g id="マスクグループ_67" data-name="マスクグループ 67" transform="translate(880.5 5498.583)" clip-path="url(#clip-path-2)">
        <g id="グループ_18897" data-name="グループ 18897" transform="translate(0.75 0.154)">
          <g id="グループ_18896" data-name="グループ 18896" clip-path="url(#clip-path-3)">
            <path id="パス_109321" data-name="パス 109321" d="M228.327,131c.007.228-.094.361-.26.39a.333.333,0,0,1-.384-.265,1.46,1.46,0,0,1-.063-.213c-.034-.189-.072-.377-.115-.565a.435.435,0,0,1,.634.319.477.477,0,0,1,.186.253c0,.027,0,.054,0,.081" transform="translate(-125.357 -71.799)" fill="#373635"/>
            <path id="パス_109322" data-name="パス 109322" d="M216.792,95.347a2.485,2.485,0,0,1,.071.506.474.474,0,0,0-.186-.253.435.435,0,0,0-.634-.32c-.264-1.162-.684-2.28-1.043-3.414q-2.963-9.361-5.919-18.721a39.46,39.46,0,0,0-1.717-4.889c-.125-.268-.251-.535-.406-.865-.034,0-.067-.007-.1-.009a.428.428,0,0,0-.045-.544.389.389,0,0,0-.11-.171.825.825,0,0,1,.792.33,3.638,3.638,0,0,1,.312.587,30.265,30.265,0,0,1,1.505,4.02q2.072,6.688,4.176,13.365c.917,2.9,1.884,5.777,2.821,8.665.182.563.33,1.137.48,1.712" transform="translate(-113.897 -36.73)" fill="#373635"/>
            <path id="パス_109323" data-name="パス 109323" d="M227.3,133.3a.44.44,0,0,1,.079.327.2.2,0,0,1-.026.059.472.472,0,0,1-.045.06.456.456,0,0,1-.758-.21c.038-.029.076-.059.114-.092a1.193,1.193,0,0,1,.377-.224.291.291,0,0,1,.258.079" transform="translate(-124.829 -73.401)" fill="#373635"/>
            <path id="パス_109324" data-name="パス 109324" d="M167.685,60.342a.449.449,0,0,0,.045-.06.834.834,0,0,1-.2.228,7.467,7.467,0,0,1-1.448,1.029c-1.215.666-2.425,1.342-3.634,2.013-.213.119-.422.244-.668.386.07.233.126.444.195.648.314.939.632,1.875.946,2.812.039.117.072.237.115.354.193.532.06.787-.464.95-.991.311-1.97.656-2.953.984l-3.092,1.036c-.114.038-.224.092-.343.143a2.611,2.611,0,0,0-.009.968c.083,1.159.166,2.32.262,3.479.135,1.652.249,3.307.52,4.945.088.536.127,1.081.211,1.619a3.923,3.923,0,0,1-.092,1.389c-.383.2-.749.4-1.15.6v.6c.027,4.331.088,8.663.074,13-.02,6.165-.09,12.328-.146,18.493q-.1,11.252-.213,22.5-.043,4.234-.112,8.467c-.014.913-.076,1.827-.118,2.764-.249.149-.476.288-.745.451a2.5,2.5,0,0,0,.251.4,11.7,11.7,0,0,0,1.926,1.737c1.536,1.085,3.058,2.189,4.593,3.276a10.479,10.479,0,0,1,1.883,1.78,2.894,2.894,0,0,1,.645,1.239,4.832,4.832,0,0,1,.042,2.422,1.343,1.343,0,0,0-.049.509,1,1,0,0,1-.5,1,4.565,4.565,0,0,1-1.266.61,20.065,20.065,0,0,1-3.554.709,4.553,4.553,0,0,1-.964,0,44.383,44.383,0,0,1-5.364-.713,7.693,7.693,0,0,1-1.76-.56,2.358,2.358,0,0,1-1.18-1.178.643.643,0,0,1-.065-.571.449.449,0,0,0-.029-.486,3.464,3.464,0,0,1-.412-1.563c0-.026,0-.051,0-.076-.061-.774-.063-.773-.737-1.237a12.454,12.454,0,0,1-1.029-.731,5.781,5.781,0,0,1-.769-.792,1.735,1.735,0,0,1-.431-1.584.253.253,0,0,0,.009-.074,18.042,18.042,0,0,1,.259-3.4,4.14,4.14,0,0,0,0-.475l-.55-.357c-.047-.493-.1-.984-.137-1.477-.056-.765-.1-1.531-.15-2.3-.118-1.9-.225-3.806-.352-5.707-.17-2.592-.356-5.184-.533-7.779-.119-1.727-.231-3.455-.356-5.184-.2-2.739-.377-5.481-.608-8.218-.192-2.244-.464-4.48-.668-6.723-.143-1.576-.293-3.152-.382-4.736-.11-2-.312-4-.509-5.99-.233-2.338-.511-4.672-.753-7.01-.088-.863-.124-1.729-.2-2.592a7.338,7.338,0,0,0-.235-1.393c-.018.2-.038.4-.053.6-.135,1.852-.249,3.7-.406,5.555-.181,2.119-.433,4.234-.589,6.356-.155,2.1-.213,4.2-.345,6.3-.1,1.58-.246,3.158-.374,4.735-.06.717-.139,1.43-.184,2.147-.173,2.641-.345,5.284-.5,7.929-.115,2-.2,4-.3,6.006-.145,2.7-.3,5.389-.446,8.082q-.224,4.151-.446,8.3c-.041.791-.112,1.581-.123,2.372a1.223,1.223,0,0,1-.5,1.092,2.03,2.03,0,0,0-.159.145,3.813,3.813,0,0,0-.016,1.479,8.335,8.335,0,0,1,.161,2.139.847.847,0,0,0,.034.29,1.656,1.656,0,0,1-.265,1.34,3.847,3.847,0,0,1-.989,1.094c-.379.278-.748.577-1.148.818a.939.939,0,0,0-.491.849,5.338,5.338,0,0,1-.056.74,6.8,6.8,0,0,1-.235.928c-.09.272-.314.513-.083.828.049.067-.022.235-.062.351a2.272,2.272,0,0,1-1.094,1.256,6.311,6.311,0,0,1-1.6.587,27.5,27.5,0,0,1-3.576.621c-.54.062-1.085.094-1.619.192a7.963,7.963,0,0,1-2.658-.087c-.682-.1-1.359-.26-2.031-.422a4.707,4.707,0,0,1-1.495-.634,1.01,1.01,0,0,1-.546-.977,2.275,2.275,0,0,0-.075-.578,5.354,5.354,0,0,1,.108-2.713,2.514,2.514,0,0,1,.37-.72,8.8,8.8,0,0,1,1.742-1.817q2.413-1.793,4.827-3.587a9.9,9.9,0,0,0,2.2-2.2c-.169-.247-.352-.494-.512-.755a.663.663,0,0,1-.067-.285c-.032-.32-.074-.641-.087-.96-.056-1.486-.11-2.97-.154-4.454q-.16-5.383-.3-10.765-.149-5.307-.3-10.616-.151-5.457-.3-10.913c-.1-3.935-.21-7.871-.295-11.8-.09-4.259-.211-8.516-.14-12.774.011-.668.02-1.338.027-2.005,0-.246,0-.491,0-.748a3.67,3.67,0,0,0-.911-.509.869.869,0,0,1-.607-1.047c.056-.516.143-1.029.209-1.544.081-.614.175-1.226.231-1.841.1-1.034.18-2.071.246-3.107.075-1.161.123-2.324.186-3.486.087-1.63.209-3.258.4-4.883.151-1.3.242-2.612.337-3.919.143-1.924.269-3.852.4-5.778A3.119,3.119,0,0,0,126,56.812a.3.3,0,0,1,.157-.394c0,.016,0,.031,0,.047a4.793,4.793,0,0,0,.155.969.439.439,0,0,0,.43.319c-.009.461-.02.923-.054,1.381q-.252,3.406-.532,6.81c-.128,1.529-.29,3.054-.421,4.583-.074.886-.121,1.778-.168,2.667-.07,1.336-.123,2.671-.2,4.006-.069,1.26-.182,2.516-.369,3.766-.1.659-.169,1.321-.256,2.006a8.3,8.3,0,0,0,3.61,1.294c.69.041,1.379.117,2.071.141a7.618,7.618,0,0,0,3.782-.9,11.6,11.6,0,0,0,2.212-1.49,8.039,8.039,0,0,0,2.343-3.38c.37-1,.678-2.015,1.014-3.022.07-.211.123-.43.2-.638.154-.419.262-.473.715-.476a.451.451,0,0,1,.471.282c.022.05.043.1.065.154.061.155.119.31.171.469.313.912.608,1.831.933,2.737a9.235,9.235,0,0,0,5.876,5.679,7.821,7.821,0,0,0,3.363.4c.616-.051,1.224-.172,1.84-.235a6.085,6.085,0,0,0,2.034-.655c.375-.183.74-.392,1.083-.574a.772.772,0,0,0,.031-.19c-.6-3.742-.787-7.524-1.11-11.3,0-.02-.027-.038-.074-.1a3.253,3.253,0,0,0-.457.087q-5.765,1.917-11.529,3.839a7.025,7.025,0,0,1-.708.224c-.375.083-.545-.011-.687-.377-.033-.085-.065-.17-.1-.256-.1-.287-.2-.578-.3-.865-.032-.09-.072-.18-.1-.256-1.567-.563-1.567-.563-1.831-1.7a4.125,4.125,0,0,1-.722-.762,4.42,4.42,0,0,1-.267-1.052,1.687,1.687,0,0,1-1.117-1.805c-.184-.07-.345-.124-.5-.193a1.566,1.566,0,0,1-.805-.928.962.962,0,0,1,.056-.792,1.879,1.879,0,0,1,.829-.92l1.166-.6c-.157-.186-.3-.335-.422-.5a.781.781,0,0,1-.137-.637c.053-.215.143-.418.237-.691-.394-1.186-.8-2.43-1.217-3.671q-1.668-5-3.338-9.99a5.214,5.214,0,0,1-.2-.713.444.444,0,0,1,.285-.54c.2-.087.419-.148.628-.218q2.424-.812,4.847-1.625c.161-.054.318-.121.518-.2-.051-.163-.087-.3-.139-.428-.328-.827-.65-1.657-.993-2.478a34.879,34.879,0,0,1-1.841-6.021c-.316-1.449-.673-2.89-.984-4.339-.146-.675-.243-1.363-.33-2.051-.244-1.914-.471-3.829-.7-5.746-.007-.063-.024-.13-.029-.193a.364.364,0,0,1,.005-.1,9.2,9.2,0,0,0,.024-1.919,4,4,0,0,0-.565-2.1,5.143,5.143,0,0,1-.722-2.267,3.033,3.033,0,0,1-2.1-1.917,4.616,4.616,0,0,1-.544-2.578,2.206,2.206,0,0,1,1.056-1.888c-.038-.164-.078-.326-.112-.489a9.589,9.589,0,0,1,.013-4.486,9.485,9.485,0,0,1,1.52-3.439,6.186,6.186,0,0,1,1.309-1.307,2.693,2.693,0,0,1,1.872-.578.691.691,0,0,0,.639-.267,2.48,2.48,0,0,1,.691-.55A6.464,6.464,0,0,1,143.962.8a10.127,10.127,0,0,1,4.445,5.11,6.882,6.882,0,0,1,.44,2.1,8.607,8.607,0,0,1-.31,3.305c-.051.161-.087.327-.136.516a1.954,1.954,0,0,1,1.2,1.82,5.048,5.048,0,0,1-1.184,3.791,1.829,1.829,0,0,1-1.284.763,1.362,1.362,0,0,0-.085.246,7.817,7.817,0,0,1-1.242,3.149,1.8,1.8,0,0,0-.31,1.113,3.863,3.863,0,0,0,.157,1.406.437.437,0,0,0-.068.679l.133.136c-.065,1.125-.13,2.249-.211,3.372a65.835,65.835,0,0,1-1.489,8.77q-.273,1.305-.6,2.6a43.5,43.5,0,0,1-1.646,4.764c-.1.269-.189.544-.292.843a.81.81,0,0,0,.26.025q1.546-.514,3.087-1.043c.035-.011.06-.051.09-.083v0c.331-.084.666-.153.99-.26q3.62-1.2,7.235-2.421c.163-.054.326-.115.495-.155a.511.511,0,0,1,.7.365c.157.415.291.84.432,1.262.118.352.226.706.348,1.056a2.293,2.293,0,0,0,.2.338c.038-.189.061-.269.072-.352q.35-2.722.7-5.447.316-2.5.624-5.008a1.034,1.034,0,0,1,.054-.363.406.406,0,0,1,.276-.19.356.356,0,0,1,.284.166,1.177,1.177,0,0,1,.052.507c-.078.739-.17,1.475-.262,2.212q-.349,2.759-.7,5.52-.271,2.1-.559,4.192a1.834,1.834,0,0,0,.081.872c.819,2.437,1.627,4.878,2.441,7.317a5.306,5.306,0,0,0,.226.5c.386-.182.749-.336,1.1-.52a2.563,2.563,0,0,1,2.67.216c.229.134.308.325.236.484-.092.2-.3.258-.567.09a2.3,2.3,0,0,0-2.518.031,29.5,29.5,0,0,0-2.738,1.624c-2.336,1.627-4.717,3.181-7.191,4.591a1.494,1.494,0,0,0-.2.176c.986,2.358,2.049,4.685,3.138,6.994a1.6,1.6,0,0,0,.791-.278c1.359-.706,2.722-1.408,4.065-2.145,2.688-1.475,5.364-2.973,8.046-4.459a9.892,9.892,0,0,0,1.491-.973.456.456,0,0,0,.758.21m-4.316,100.342a4.432,4.432,0,0,0-.045-1.841,2.8,2.8,0,0,0-.565-1.112,9.4,9.4,0,0,0-1.836-1.717c-1.531-1.093-3.053-2.194-4.587-3.282a11.814,11.814,0,0,1-1.866-1.688c-.2-.215-.369-.453-.522-.644-.83.137-1.605.3-2.387.385a16.892,16.892,0,0,1-2.294.112c-.782-.024-1.562-.154-2.322-.235-.048.083-.092.123-.1.167q-.138,1.327-.269,2.656a1.393,1.393,0,0,0,.585,1.289,10.866,10.866,0,0,0,1.022.739,2.819,2.819,0,0,1,1.283,2.229c.058.466.081.935.13,1.4a2.031,2.031,0,0,0,1.051,1.611,3.784,3.784,0,0,0,1.327.446c1.022.17,2.047.325,3.069.5a16.35,16.35,0,0,0,3.47.253,8.122,8.122,0,0,0,2.672-.547c.206-.081.412-.166.619-.244a1.482,1.482,0,0,1,.283-.081.38.38,0,0,1,.4.26.294.294,0,0,1-.195.356c-.247.11-.5.206-.755.3a9.813,9.813,0,0,1-4.587.59c-.933-.1-1.867-.214-2.795-.35a17.231,17.231,0,0,1-3.907-.819,1.529,1.529,0,0,0,.932.687c.518.159,1.038.32,1.569.43,1.136.238,2.3.332,3.443.5a13.281,13.281,0,0,0,5.78-.536,2.481,2.481,0,0,0,1.285-.742,3.512,3.512,0,0,1,.106-1.074m-1.061-92.541c.039-.013.065-.07.1-.106a22.552,22.552,0,0,0-1.275-3.757c-2.933,1.569-5.793,3.176-8.77,4.656l-.513-.587c-.269.144-.546.3-.829.442-.383.194-.48.142-.634-.29-.023-.065-.058-.127-.1-.22a5.111,5.111,0,0,0-1.545,1.159,5.81,5.81,0,0,1-1.085,1c-.721.522-1.457,1.024-2.194,1.52a9.474,9.474,0,0,1-2.894,1.3,2.946,2.946,0,0,0-.414.175c.072.251.123.464.2.67s.161.394.258.625c6.6-2.2,13.152-4.392,19.7-6.584M157.8,54.75a1.112,1.112,0,0,0,.175-.207c-1.383-4.149-2.775-8.317-4.192-12.569-.276.082-.462.128-.647.19q-2.742.909-5.482,1.821-6.64,2.215-13.276,4.436c-.186.062-.392.078-.5.309q2.291,6.867,4.609,13.812c.2-.127.37-.224.527-.332.347-.237.675-.507,1.039-.715a3.273,3.273,0,0,1,.951-.386c.8-.163,1.608-.256,2.41-.406a1.427,1.427,0,0,1,1.065.188c.251.157.5.323.751.477.594.356,1.188.708,1.787,1.054a.512.512,0,0,0,.708-.074c-.027-.115-.067-.253-.091-.393-.048-.3.011-.417.275-.522.206-.083.413-.154.65-.242-.154-.4.024-.625.361-.787a34.134,34.134,0,0,0,3.9-2.291c1.673-1.1,3.325-2.237,4.982-3.362m-2.486,50c.065-6.635.163-13.269-.057-19.9-.005-.187-.034-.374-.056-.608-.189.058-.325.108-.466.141-.48.108-.959.237-1.446.311-.61.092-1.228.143-1.841.2a7.49,7.49,0,0,1-3.08-.307,9.9,9.9,0,0,1-6.643-6.089c-.311-.834-.581-1.683-.876-2.522-.062-.179-.143-.35-.249-.608-.1.276-.166.458-.228.644-.3.892-.569,1.791-.886,2.676a9.016,9.016,0,0,1-2.939,4.112,11.167,11.167,0,0,1-2.729,1.63,10.745,10.745,0,0,1-1.192.4,11.429,11.429,0,0,1-4.639.071c-.558-.079-1.107-.215-1.684-.33-.017.163-.042.307-.045.451-.023,1.435-.081,2.872-.06,4.307q.114,7.945.276,15.89c.062,3.02.163,6.039.244,9.057.065,2.425.121,4.851.194,7.275.121,4.132.256,8.265.374,12.4.123,4.281.229,8.561.354,12.843.027.912.112,1.825.168,2.715,1.85,1,6.723,1.179,8.394.225a2,2,0,0,0,.044-.251c.139-2.372.281-4.742.413-7.114.123-2.249.231-4.5.349-6.748.05-.964.112-1.928.164-2.892q.2-3.557.4-7.116c.065-1.212.1-2.425.189-3.634.179-2.592.378-5.183.574-7.774.057-.765.133-1.529.195-2.293.078-.987.159-1.975.218-2.962.1-1.728.163-3.461.293-5.189.139-1.874.344-3.744.507-5.618q.211-2.439.39-4.883c.15-2.024.28-4.049.433-6.071a4.974,4.974,0,0,0-.094-1.621.627.627,0,0,1-.033-.29.365.365,0,0,1,.164-.222.341.341,0,0,1,.275.013.714.714,0,0,1,.317.63c.1,1.133.213,2.265.312,3.4.191,2.17.367,4.339.561,6.508.1,1.159.228,2.314.357,3.469.161,1.452.374,2.9.5,4.351.186,2.119.305,4.244.471,6.365.1,1.283.231,2.564.356,3.843.17,1.75.361,3.5.518,5.245.137,1.528.241,3.06.354,4.589q.276,3.778.547,7.553c.117,1.679.227,3.358.341,5.037q.081,1.224.164,2.444c.128,1.852.26,3.7.384,5.554.115,1.753.224,3.507.338,5.26a2.9,2.9,0,0,0,.056.32,3.651,3.651,0,0,0,.6.249,11.077,11.077,0,0,0,2.271.325,17.3,17.3,0,0,0,2.888-.151,10.5,10.5,0,0,0,2.3-.559c.154-.063.295-.156.437-.231.013-.286.032-.533.038-.78.052-3.118.117-6.237.154-9.355q.159-13.924.3-27.849.035-3.266.065-6.535m-3.733-37.07a2.73,2.73,0,0,0-.088-.329q-1.171-2.637-2.349-5.271a2.124,2.124,0,0,0-.226-.314l-.55.295a29.747,29.747,0,0,0,1.263,2.946c.448.98.863,1.978,1.388,2.915a1.363,1.363,0,0,0,.262-.054,3.308,3.308,0,0,0,.3-.188m-1.93.176c.139-.092.265-.206.39-.3a37.475,37.475,0,0,0-2.034-4.385.4.4,0,0,0-.145-.015,1.881,1.881,0,0,1-1.605-.366c-.6-.384-1.223-.747-1.821-1.143a1.493,1.493,0,0,0-1.193-.233c-.726.148-1.457.266-2.184.4a1.123,1.123,0,0,0-.417.137c-.653.444-1.3.893-1.937,1.364a.521.521,0,0,0-.2.679,1.644,1.644,0,0,0,1.54.069c.614-.258,1.206-.569,1.811-.847a2.723,2.723,0,0,1,.556-.193.29.29,0,0,1,.347.213.3.3,0,0,1-.15.376c-.044.023-.087.048-.132.07-.989.448-1.982.89-2.97,1.345-.626.289-1.245.6-1.87.9a1.4,1.4,0,0,0-.607.527.574.574,0,0,0,0,.69c.2.29.356.375.69.283.451-.123.892-.287,1.339-.424a2.655,2.655,0,0,1,.639-.135.352.352,0,0,1,.252.216.509.509,0,0,1-.108.329c-.033.049-.134.054-.2.081-.321.128-.643.255-.96.39a.809.809,0,0,0-.307.186.877.877,0,0,0,.009.911.6.6,0,0,0,.693.3c.189-.051.381-.1.576-.132a2.236,2.236,0,0,1,.583-.053.349.349,0,0,1,.244.226.354.354,0,0,1-.139.3,6.787,6.787,0,0,1-.756.286,2.689,2.689,0,0,0-.123.439.647.647,0,0,0,.745.775c.123-.009.242-.056.365-.069a5.892,5.892,0,0,1,.59-.035.261.261,0,0,1,.28.278.544.544,0,0,1-.173.29.712.712,0,0,1-.28.085c-.188.053-.377.1-.612.166a2.063,2.063,0,0,0,.132.5.731.731,0,0,0,.319.291,1.291,1.291,0,0,0,.861.145,9.4,9.4,0,0,0,2.775-1.008c.841-.516,1.664-1.067,2.479-1.624a4.23,4.23,0,0,0,.964-.807,7.2,7.2,0,0,1,1.74-1.482m-.677-53.537a2.129,2.129,0,0,0-.484-1.652c-.538.173-.538.173-.729.547-.079.154-.15.312-.238.46a.4.4,0,0,1-.383.228.178.178,0,0,1-.042-.011.424.424,0,0,1-.289-.394c-.011-.148-.007-.3-.009-.446,0-.321,0-.643-.011-.964a2.542,2.542,0,0,0-.589-1.569c-.173-.209-.347-.418-.529-.623q-1.308-1.468-2.625-2.93a2.847,2.847,0,0,0-.289-.237,4.752,4.752,0,0,0,.081.585c.146.524.309,1.042.462,1.563a.425.425,0,0,1-.1.477.4.4,0,0,1-.479.048,7.437,7.437,0,0,1-2.284-1.495c-.258-.265-.507-.54-.766-.807-.081-.083-.141-.211-.338-.161.02.21.025.426.062.639.058.342.144.677.2,1.018a3.083,3.083,0,0,1,.061.587.358.358,0,0,1-.468.338,1.081,1.081,0,0,1-.274-.1,7.22,7.22,0,0,1-2.4-1.955c-.1-.135-.21-.262-.357-.444a11.48,11.48,0,0,1-1.489,2.527,6.647,6.647,0,0,0-1.28,3.121c-.045.294-.1.585-.17.874a.317.317,0,0,1-.323.256.454.454,0,0,1-.305-.173,6.2,6.2,0,0,1-.329-.63c-.164-.07-.3-.128-.437-.182-.022-.009-.049,0-.157.011a2.271,2.271,0,0,0-.428,1.682,4.711,4.711,0,0,0,.966,2.453,3.173,3.173,0,0,0,.533.507,1.061,1.061,0,0,0,.316.1,2.851,2.851,0,0,0,0-.327c-.063-.44-.143-.879-.2-1.32a2.373,2.373,0,0,1,.005-.66c.014-.088.154-.185.255-.224a.3.3,0,0,1,.356.193,1.292,1.292,0,0,1,.045.217c.154,1.1.3,2.2.461,3.3a3.131,3.131,0,0,0,.161.644,10.886,10.886,0,0,0,1.112,2.175,16.393,16.393,0,0,0,2.928,3.139,1.125,1.125,0,0,0,.457.233,5.722,5.722,0,0,0,3.076-.027,1.476,1.476,0,0,0,.572-.319c.509-.469,1.013-.948,1.486-1.453a10.549,10.549,0,0,0,2.307-3.684,4.743,4.743,0,0,0,.238-.93c.146-1.052.267-2.11.4-3.164a.571.571,0,0,1,.065-.282.438.438,0,0,1,.28-.172h.007a.4.4,0,0,1,.264.206.736.736,0,0,1,.04.361c-.026.347-.061.69-.1,1.034a2.262,2.262,0,0,0-.018.919,1.132,1.132,0,0,0,.666-.462,4.738,4.738,0,0,0,1.047-2.65m-.849,142.325c.079.058.159.1.237-.03a2.823,2.823,0,0,0-1.233-.876,2.808,2.808,0,0,0,1,.906m-.083-146.2a7.37,7.37,0,0,0-.3-4.305,9.155,9.155,0,0,0-2.977-4A6.681,6.681,0,0,0,142.222.832a4.411,4.411,0,0,0-1.9-.139,6.268,6.268,0,0,0-3.152,1.348,1.316,1.316,0,0,1-1.018.354,1.961,1.961,0,0,0-1.434.5,5.471,5.471,0,0,0-.95.931,9.029,9.029,0,0,0-1.629,7.231,3,3,0,0,0,.264.767c.054.11.211.172.347.273.063-.186.121-.323.157-.466a6.408,6.408,0,0,1,1.208-2.439c.2-.253.377-.52.556-.787a6.565,6.565,0,0,0,1.11-2.645c.011-.074,0-.166.044-.215.092-.1.2-.238.32-.267.151-.036.274.1.326.244a1.849,1.849,0,0,1,.076.363,2.963,2.963,0,0,0,.713,1.444,5.189,5.189,0,0,0,1.363,1.131.924.924,0,0,0,.249.045c-.07-.414-.159-.8-.193-1.186-.051-.565-.065-1.134-.087-1.7a.35.35,0,0,1,.233-.347.34.34,0,0,1,.4.125c.1.11.179.236.269.353.271.354.525.719.816,1.056a6.127,6.127,0,0,0,1.681,1.441c.1.058.2.139.365,0-.078-.357-.186-.733-.238-1.119-.074-.561-.117-1.128-.152-1.693a.318.318,0,0,1,.247-.33.352.352,0,0,1,.392.141c.074.1.141.2.216.3.368.466.722.944,1.112,1.39.767.872,1.538,1.744,2.34,2.585a4.293,4.293,0,0,1,1.236,2.233,1.326,1.326,0,0,0,.119.228c.162-.578.317-1.047.424-1.527M144.6,30.288a26.6,26.6,0,0,0,.374-4.638c0-.031-.063-.056-.1-.085a9.731,9.731,0,0,1-3.625,2.17,16.683,16.683,0,0,0,2.508,2.121,2.263,2.263,0,0,0,.841.431m.273-5.948a7.466,7.466,0,0,0-.058-1.2,1.409,1.409,0,0,0-.228.139q-.912.918-1.822,1.843a1.553,1.553,0,0,1-.678.431,6.609,6.609,0,0,1-3.726.036,1.493,1.493,0,0,1-.641-.347,23.658,23.658,0,0,1-2.2-2.2c-.068-.085-.124-.222-.308-.166v1.329a7.9,7.9,0,0,0,5.076,3.112c.581-.215,1.231-.448,1.874-.693a6.38,6.38,0,0,0,2.556-1.966.569.569,0,0,0,.157-.321M143.1,37.98a56.105,56.105,0,0,0,1.4-6.883c-.3-.172-.626-.343-.94-.531-.332-.2-.607-.489-.986-.684l-1.1,1.962c.28,1.017.554,2.015.825,3.013.276,1.017.408,2.071.8,3.123m-.24,1.349a4.342,4.342,0,0,1-.527-1.431c-.179-.72-.316-1.45-.5-2.166-.287-1.1-.581-2.2-.917-3.284a1.379,1.379,0,0,1,.155-1.327,12.333,12.333,0,0,0,.738-1.285,4.62,4.62,0,0,0,.2-.468c-.314-.261-.59-.507-.884-.731a4.428,4.428,0,0,0-.948-.7c-.307.255-.6.482-.874.731a3.614,3.614,0,0,0-.867.833c.361.6.706,1.2,1.076,1.785a1.035,1.035,0,0,1,.146.913c-.105.33-.21.661-.289,1-.357,1.516-.7,3.034-1.058,4.549a4.916,4.916,0,0,1-.542,1.608c.063.217.123.43.188.643.571,1.872,1.37,3.654,2.1,5.463a1.381,1.381,0,0,0,.094.2.258.258,0,0,0,.388.025,1.442,1.442,0,0,0,.17-.323c.538-1.408,1.087-2.812,1.6-4.229.22-.6.374-1.222.549-1.809m-3.735-11.6c-.275-.1-.549-.206-.822-.316s-.549-.224-.814-.354a5.809,5.809,0,0,1-.708-.4c-.245-.164-.473-.358-.708-.538a3.57,3.57,0,0,0-.729-.581,5.4,5.4,0,0,0,0,.572c.172,1.388.286,2.786.5,4.172a1.98,1.98,0,0,0,1.116-.587c1.547-1.217,1.976-1.606,2.163-1.971m-.139,4.1c-.3-.529-.621-1.087-.948-1.639a1.459,1.459,0,0,0-.2-.231c-.654.433-1.264.839-1.874,1.244a56,56,0,0,0,1.356,6.443,3.573,3.573,0,0,0,.191.42c.5-2.132.986-4.168,1.475-6.237m-3.717,122.983a1.345,1.345,0,0,0,.519-1.244c-.085-.711-.166-1.422-.262-2.134-.029-.21.029-.449-.207-.652a15.812,15.812,0,0,1-6.912-.279,10.834,10.834,0,0,1-2.688,2.7c-1.459,1.063-2.9,2.156-4.349,3.23a8.4,8.4,0,0,0-1.684,1.663,2.967,2.967,0,0,0-.445.762,3.7,3.7,0,0,0-.126,2.19,3.751,3.751,0,0,1,.145,1.121,2.6,2.6,0,0,0,1.191.653c.571.157,1.148.285,1.728.409a10.587,10.587,0,0,0,3.468.146c.957-.116,1.91-.255,2.861-.4a15.555,15.555,0,0,0,2.52-.59,3.013,3.013,0,0,0,1.045-.544,2.192,2.192,0,0,0,.227-.274c-.1-.016-.151-.043-.184-.027a5.572,5.572,0,0,1-1.758.549c-1.217.2-2.434.4-3.65.614a12.638,12.638,0,0,1-3.764.128,10.655,10.655,0,0,1-2.766-.8.271.271,0,0,1-.133-.374c.059-.088.193-.2.28-.186a3.254,3.254,0,0,1,.782.193,8.085,8.085,0,0,0,2.962.576,14.413,14.413,0,0,0,2.144-.127c1.517-.211,3.026-.458,4.522-.785a3.307,3.307,0,0,0,1.285-.547,1.889,1.889,0,0,0,.8-1.289c.07-.489.112-.983.139-1.476a2.886,2.886,0,0,1,1.312-2.441,10.244,10.244,0,0,0,1-.766m-1.251,2.127a4.126,4.126,0,0,0,1.363-1.2c-1.1.63-1.1.63-1.363,1.2" transform="translate(-65.21 0)" fill="#373635"/>
            <path id="パス_109325" data-name="パス 109325" d="M206.289,66.851a.428.428,0,0,1,.045.543l-.307-.032a.282.282,0,0,1-.276-.289.331.331,0,0,1,.229-.341.772.772,0,0,1,.2-.053.39.39,0,0,1,.11.172" transform="translate(-113.371 -36.741)" fill="#373635"/>
            <path id="パス_109326" data-name="パス 109326" d="M203.944,65.589a.3.3,0,0,1-.05.218.356.356,0,0,1-.3.173.494.494,0,0,1,.352-.392" transform="translate(-112.181 -36.14)" fill="#373635"/>
            <path id="パス_109327" data-name="パス 109327" d="M191.242,59.118a.241.241,0,0,1,.115.173.494.494,0,0,0-.352.392.3.3,0,0,1-.078-.009.113.113,0,0,1-.022-.007l-.029-.011c-.029-.014-.056-.031-.083-.043-1.954-.885-3.914-1.747-5.815-2.746-.6-.318-1.219-.614-1.836-.9s-1.219-.571-1.825-.863a4.594,4.594,0,0,1-.569-.3.426.426,0,0,0,.044-.607l.032-.031c.206.076.4.13.569.213,1.267.608,2.549,1.186,3.789,1.843,1.721.915,3.475,1.753,5.275,2.5a5.929,5.929,0,0,1,.784.4" transform="translate(-99.595 -29.842)" fill="#373635"/>
            <path id="パス_109328" data-name="パス 109328" d="M182.549,66.7c.244.314.264.417.047.73-.948,1.363-1.688,2.85-2.53,4.278-.94,1.6-1.863,3.208-2.8,4.811a1.793,1.793,0,0,1-.219.269c-.4-.179-.486-.323-.354-.648a5.191,5.191,0,0,1,.343-.657c.693-1.17,1.4-2.333,2.087-3.509.932-1.6,1.849-3.212,2.787-4.847a7.482,7.482,0,0,0-.706-1.025c-.29-.4-.6-.784-.908-1.175-.092-.118-.186-.231-.275-.352-.33-.457-.308-.59.143-.9.246-.164.5-.323.74-.494.222-.155.437-.325.652-.493a1.861,1.861,0,0,0,.177-.186c-.04-.124-.069-.267-.124-.4a10.245,10.245,0,0,0-1.065-1.95,2.155,2.155,0,0,1-.265-.525.337.337,0,0,1,.222-.414.346.346,0,0,1,.157-.016.3.3,0,0,1,.224.163c.48.865.951,1.731,1.424,2.6a2.134,2.134,0,0,1,.123.269.631.631,0,0,1-.2.8c-.334.258-.672.509-1.008.762-.177.133-.356.262-.559.412.106.16.193.307.294.44.527.687,1.06,1.37,1.589,2.056" transform="translate(-97.33 -32.62)" fill="#373635"/>
            <path id="パス_109329" data-name="パス 109329" d="M180.576,54.227a.426.426,0,0,1-.044.607c-.025-.016-.05-.035-.075-.052a.383.383,0,0,1-.1-.327c.02-.083.123-.146.215-.228" transform="translate(-99.378 -29.88)" fill="#373635"/>
            <path id="パス_109330" data-name="パス 109330" d="M178.984,53.844a.861.861,0,0,1,.023.439l-.016.26-.134-.136a.436.436,0,0,1,.069-.678c.017.038.036.077.058.115" transform="translate(-98.479 -29.605)" fill="#373635"/>
            <path id="パス_109331" data-name="パス 109331" d="M177.537,98.383l-.013.013v0a.023.023,0,0,0-.011,0l0,0Z" transform="translate(-97.812 -54.21)" fill="#373635"/>
            <path id="パス_109332" data-name="パス 109332" d="M177.54,98.379l-.022.014.016-.018s0,0,.005,0" transform="translate(-97.814 -54.206)" fill="#373635"/>
            <path id="パス_109333" data-name="パス 109333" d="M173.414,23.786a.321.321,0,0,1-.3.415.546.546,0,0,1-.146-.013,2.527,2.527,0,0,0-1.8.166c-.045.018-.1.051-.141.038-.108-.035-.256-.059-.307-.141a.385.385,0,0,1,0-.341.636.636,0,0,1,.338-.263c.4-.109.818-.179,1.173-.251.334.034.6.052.874.1a.382.382,0,0,1,.3.294" transform="translate(-94.05 -12.891)" fill="#373635"/>
            <path id="パス_109334" data-name="パス 109334" d="M173.021,29.144a1.344,1.344,0,0,1,.152.328c-.006.259-.07.41-.246.495a.382.382,0,0,1-.458-.135.563.563,0,0,1,.07-.681c.125-.1.394-.121.482-.007" transform="translate(-94.987 -16.016)" fill="#373635"/>
            <path id="パス_109335" data-name="パス 109335" d="M166.22,43.823a1.071,1.071,0,0,1-.05.363,5.91,5.91,0,0,1-1.193,2.116,3.084,3.084,0,0,1-.375.359,2.047,2.047,0,0,1-2.834.036,3.665,3.665,0,0,1-1.049-1.237,10.268,10.268,0,0,1-.569-1.2c-.206-.559.022-.854.612-.854.816,0,1.632,0,2.448,0v-.022h2.374c.074,0,.148-.006.222,0a.453.453,0,0,1,.415.44m-.823.307h-4.476a3.735,3.735,0,0,0,1.248,2,1.42,1.42,0,0,0,2.009-.026,4.3,4.3,0,0,0,1.11-1.558,2.69,2.69,0,0,0,.108-.419" transform="translate(-88.203 -23.902)" fill="#373635"/>
            <path id="パス_109336" data-name="パス 109336" d="M166.744,38.777A.285.285,0,0,1,166.6,39a.907.907,0,0,1-.832-.016c-.054-.031-.119-.121-.108-.168a.328.328,0,0,1,.142-.218,2.023,2.023,0,0,1,.776-.02.3.3,0,0,1,.166.2" transform="translate(-91.279 -21.239)" fill="#373635"/>
            <path id="パス_109337" data-name="パス 109337" d="M159.344,23.892a.344.344,0,0,1,.058.464.294.294,0,0,1-.388.1,2.737,2.737,0,0,0-1.866-.155.326.326,0,0,1-.421-.184.348.348,0,0,1,.213-.475,7.578,7.578,0,0,1,.782-.175c.424.072.836.132,1.241.219a1.075,1.075,0,0,1,.383.209" transform="translate(-86.341 -12.929)" fill="#373635"/>
            <path id="パス_109338" data-name="パス 109338" d="M159.83,29.174c.269-.009.428.168.422.469a.423.423,0,0,1-.365.462.428.428,0,0,1-.419-.484c0-.285.128-.439.361-.448" transform="translate(-87.869 -16.075)" fill="#373635"/>
            <path id="パス_109339" data-name="パス 109339" d="M150.283,76.434a.394.394,0,0,1,.045.28.512.512,0,0,1-.233.253.332.332,0,0,1-.269-.051.692.692,0,0,1-.175-.231q-.883-1.462-1.762-2.924c-.713-1.188-1.422-2.377-2.145-3.56-.491-.8-1-1.59-1.5-2.386-.065-.1-.115-.217-.189-.36a3.634,3.634,0,0,1,.237-.431c.527-.719,1.063-1.43,1.594-2.145.072-.1.132-.206.224-.35-.3-.207-.577-.4-.855-.6-.242-.172-.488-.341-.715-.531-.338-.278-.4-.448-.219-.84.283-.632.594-1.249.91-1.866.168-.329.365-.644.55-.964a.326.326,0,0,1,.428-.175.293.293,0,0,1,.179.365,2.206,2.206,0,0,1-.269.6,11.234,11.234,0,0,0-.991,1.9,3.673,3.673,0,0,0-.126.426,5.9,5.9,0,0,0,1.385,1.014c.738.421.684.607.242,1.19-.583.769-1.15,1.551-1.756,2.368.55.923,1.065,1.795,1.59,2.659,1.13,1.86,2.271,3.715,3.4,5.575.153.253.291.516.421.782" transform="translate(-79.375 -32.799)" fill="#373635"/>
            <path id="パス_109340" data-name="パス 109340" d="M140.533,54.792a.775.775,0,0,1-.161.251,2.68,2.68,0,0,1-.451.253c-1.863.957-3.723,1.924-5.6,2.863-1.04.52-2.1,1.013-3.148,1.51a.425.425,0,0,0-.553-.414,2.392,2.392,0,0,0-.767.377.24.24,0,0,1,.066-.074,2.6,2.6,0,0,1,.438-.263c.448-.21.907-.394,1.349-.611q1.757-.863,3.506-1.747c1.471-.749,2.937-1.511,4.407-2.263a3.5,3.5,0,0,1,.543-.228c.155-.049.356.121.368.347" transform="translate(-71.552 -29.995)" fill="#373635"/>
            <path id="パス_109341" data-name="パス 109341" d="M117.549,83.208a.986.986,0,0,1-.022.28.426.426,0,0,0-.43.271.341.341,0,0,1-.191-.226c-.024-.121-.027-.246-.04-.368q-.127-1.105-.258-2.21a1.433,1.433,0,0,0-.1-.256c-.119.2-.215.332-.285.48-.466.982-.9,1.98-1.394,2.95q-.975,1.917-2.022,3.8a18.317,18.317,0,0,1-3.242,4.04,3.892,3.892,0,0,1-2.094,1.041,1.749,1.749,0,0,1-1.016-.124,4.345,4.345,0,0,1-.717-.387,12.749,12.749,0,0,1-2.188-1.885,3.678,3.678,0,0,1-1.048-2.768c.043-.888.108-1.778.2-2.662.173-1.674.388-3.342.554-5.015.2-1.969.365-3.941.536-5.912.125-1.455.235-2.91.352-4.366.018-.222.033-.446.072-.665a1.142,1.142,0,0,1,.159-.485,2.231,2.231,0,0,0,.486-1.179c.025-.258.294-.491.5-.8a5.466,5.466,0,0,0-.487-2.132c-1.062-2.688-2.23-5.34-3.038-8.122a6.561,6.561,0,0,1-.219-.937,1.044,1.044,0,0,1,.383-.987,8.743,8.743,0,0,1,1.47-1.125q1.451-.821,2.9-1.645a1.744,1.744,0,0,1,.334-.161,1.139,1.139,0,0,1,1.435.439,3.429,3.429,0,0,1,.327.58,6.433,6.433,0,0,1,.2.63c.814.556.935.816,1,2.154a2.541,2.541,0,0,1,.715,1.92,2.27,2.27,0,0,1,.881,1.544A1.663,1.663,0,0,1,111.138,60c-.154.308-.33.608-.47.926a.509.509,0,0,1-.659.326c-.022,0-.044-.011-.065-.016a.9.9,0,0,1,.087-.574c.139-.233.242-.487.383-.72a1.553,1.553,0,0,0-.077-1.62.488.488,0,0,0-.623-.258,3.054,3.054,0,0,0-1,.469c-.8.491-1.607.971-2.414,1.452-.229.135-.44.1-.52-.054a.4.4,0,0,1,.164-.515c.119-.087.251-.157.377-.233l2.04-1.21c.255-.15.511-.3.773-.435.167-.09.346-.157.525-.236a5.561,5.561,0,0,0-.065-.628c-.141-.609-.377-.731-.955-.45a19.886,19.886,0,0,0-3.49,1.95c-.038.029-.085.076-.125.074a.713.713,0,0,1-.339-.062.274.274,0,0,1-.056-.4,1.38,1.38,0,0,1,.374-.348c.506-.31,1.013-.619,1.536-.9.8-.428,1.619-.828,2.478-1.264-.067-.3-.115-.612-.215-.913a.411.411,0,0,0-.581-.287,4.978,4.978,0,0,0-.814.347c-.955.524-1.9,1.063-2.849,1.594a2.146,2.146,0,0,1-.538.24.36.36,0,0,1-.3-.148.409.409,0,0,1,.018-.339.719.719,0,0,1,.285-.225c1.188-.663,2.377-1.318,3.567-1.977.123-.069.24-.146.35-.213-.22-.8-.249-.845-.764-1.135a.594.594,0,0,0-.141.032,29.688,29.688,0,0,0-3.75,2.1,5.077,5.077,0,0,0-.814.753.634.634,0,0,0-.15.4,2.079,2.079,0,0,0,.09.581c.15.524.305,1.043.473,1.562.752,2.305,1.717,4.529,2.648,6.764a6.55,6.55,0,0,1,.516,2c.018.217.06.43.1.688a5.218,5.218,0,0,0,.677.1c.867.015,1.733.017,2.6.013a3.845,3.845,0,0,0,.5-.068c0-.136,0-.235,0-.334a3,3,0,0,1,.424-1.764,1.941,1.941,0,0,0-.123-2.237,6.185,6.185,0,0,0-.478-.567c-.215-.239-.448-.462-.652-.712a.988.988,0,0,1-.236-.448,1.605,1.605,0,0,1,.467-1.351.285.285,0,0,1,.264-.054.455.455,0,0,1,.215.267.731.731,0,0,1-.076.35c-.07.206-.153.408-.24.632l.392.368a3.588,3.588,0,0,0,.256.357,4.275,4.275,0,0,1,1.045,1.531,2.236,2.236,0,0,0,.229-.348c.3-.785.577-1.58.884-2.361a3.4,3.4,0,0,1,1.018-1.523c.016-.013.032-.024.048-.035a.459.459,0,0,0,.237.7,4.431,4.431,0,0,0-.881,1.636c-.332.907-.65,1.816-.975,2.724-.058.161-.08.378-.2.47-.312.247-.365.637-.574.924a2.2,2.2,0,0,0-.322,1.6c.117.029.251.065.385.1a.423.423,0,0,1,.072.023v.549a.43.43,0,0,1-.054.024,2.55,2.55,0,0,1-.426.117,15.2,15.2,0,0,1-4,.062c-.363-.044-.726-.072-1.128-.112v.8a2.048,2.048,0,0,0,.4.123c.738.069,1.479.164,2.218.17a14.639,14.639,0,0,0,2.982-.28v.032c0,.547.7.563.887.119a1.154,1.154,0,0,0,.084-.377,2.64,2.64,0,0,1,.585-.1.35.35,0,0,1,.262.2.365.365,0,0,1-.1.321,1.355,1.355,0,0,1-.467.215,12.264,12.264,0,0,1-2.623.457,19.423,19.423,0,0,1-4.775-.237,3.008,3.008,0,0,0-.1.414c-.155,1.749-.3,3.5-.457,5.25-.175,1.946-.345,3.894-.54,5.838-.179,1.773-.4,3.538-.578,5.311-.07.713-.072,1.433-.077,2.15a2.735,2.735,0,0,0,.691,1.834,10.686,10.686,0,0,0,2.348,2.033,1.755,1.755,0,0,0,1.7.161,3.622,3.622,0,0,0,1.24-.789,19.587,19.587,0,0,0,3.428-4.455c.756-1.363,1.451-2.757,2.1-4.172.467-1.009.94-2.016,1.426-3.017a1.351,1.351,0,0,0,.146-.782q-.428-3.609-.831-7.225c-.18-1.621-.33-3.248-.5-4.871-.121-1.131-.26-2.26-.385-3.392-.034-.32-.054-.641-.06-.962a.291.291,0,0,1,.265-.305.3.3,0,0,1,.334.231,3.169,3.169,0,0,1,.117.581c.114,1.008.22,2.016.327,3.026q.2,1.882.4,3.762c.119,1.132.233,2.266.354,3.4q.184,1.736.383,3.468c.107.933.213,1.866.348,2.8.108.758.273,1.509.381,2.267.072.488.092.984.128,1.479" transform="translate(-55.984 -28.411)" fill="#373635"/>
            <path id="パス_109342" data-name="パス 109342" d="M136.3,125.883a2.727,2.727,0,0,1,.034.516c-.005.182-.009.365-.013.549a.439.439,0,0,1-.43-.319,4.76,4.76,0,0,1-.155-.969c0-.017,0-.031,0-.047.016-.005.032-.013.05-.018a.414.414,0,0,1,.516.289" transform="translate(-74.791 -69.194)" fill="#373635"/>
            <path id="パス_109343" data-name="パス 109343" d="M136.542,122.668a.039.039,0,0,1,0,.014.333.333,0,0,1-.3.283.233.233,0,0,1-.132-.027.426.426,0,0,1,.43-.271" transform="translate(-74.999 -67.591)" fill="#373635"/>
            <path id="パス_109344" data-name="パス 109344" d="M131.122,65.556l-.787.374a1.054,1.054,0,0,1-.135.059.335.335,0,0,1-.385-.145.291.291,0,0,1-.013-.325,2.379,2.379,0,0,1,.767-.378.424.424,0,0,1,.552.414" transform="translate(-71.499 -35.884)" fill="#373635"/>
            <path id="パス_109345" data-name="パス 109345" d="M128.532,67.522a.284.284,0,0,1-.085.4,2.232,2.232,0,0,0-.513.394.459.459,0,0,1-.237-.7,2.253,2.253,0,0,1,.462-.249.285.285,0,0,1,.372.155" transform="translate(-70.314 -37.107)" fill="#373635"/>
            <path id="パス_109346" data-name="パス 109346" d="M126.045,90.223a1.31,1.31,0,0,1,.058.506c-.058,1.36-.125,2.719-.188,4.078h.022c-.123,1.951-.219,3.9-.379,5.851-.133,1.6-.343,3.2-.522,4.793a2.276,2.276,0,0,1-.079.435.3.3,0,0,1-.354.2.241.241,0,0,1-.231-.246,9.035,9.035,0,0,1,.066-1.034q.558-4.084.728-8.2.125-3,.26-6.006a.832.832,0,0,1,.053-.361.4.4,0,0,1,.283-.185.355.355,0,0,1,.283.168" transform="translate(-68.53 -49.621)" fill="#373635"/>
            <path id="パス_109347" data-name="パス 109347" d="M123.69,88.9c.022-.005.043-.011.065-.018a1.154,1.154,0,0,1-.085.377c-.184.444-.887.428-.887-.119v-.032q.455-.09.907-.208" transform="translate(-67.655 -48.975)" fill="#373635"/>
            <path id="パス_109348" data-name="パス 109348" d="M122.945,86.373a.3.3,0,0,1-.161.323v-.549a.267.267,0,0,1,.161.226" transform="translate(-67.655 -47.468)" fill="#373635"/>
            <path id="パス_109349" data-name="パス 109349" d="M329.928,134.107a.418.418,0,0,1,.286.312.216.216,0,0,1-.1.068.408.408,0,0,1-.334-.065.863.863,0,0,1-.229-.439.44.44,0,0,1,.374.123" transform="translate(-181.588 -73.824)" fill="#373635"/>
            <path id="パス_109350" data-name="パス 109350" d="M329.646,137.215c.112-.358.3-.494.516-.4a.426.426,0,0,1,.1.062c.009.1.017.2.019.3a.423.423,0,0,1-.319.43.461.461,0,0,1-.481.081c.065-.153.116-.313.166-.474" transform="translate(-181.547 -75.371)" fill="#373635"/>
            <path id="パス_109351" data-name="パス 109351" d="M315.554,78.128a1.815,1.815,0,0,0-.177-.449.259.259,0,0,1,.17.053.992.992,0,0,1,.308.317,9.639,9.639,0,0,1,.394.9c.627,1.6,1.088,3.25,1.554,4.9,1.056,3.737,2.121,7.471,3.023,11.249.479,2.011.927,4.03,1.373,6.05.12.54.179,1.093.264,1.628a2.432,2.432,0,0,1-.008.468.347.347,0,0,1-.079.149.417.417,0,0,0-.285-.312.441.441,0,0,0-.374-.123.07.07,0,0,1,0-.018A60.724,60.724,0,0,0,320,94.572c-1.069-4.413-2.306-8.78-3.618-13.126-.227-.747-.5-1.482-.776-2.212a5.383,5.383,0,0,0-.28-.581.469.469,0,0,0,.225-.525" transform="translate(-173.75 -42.801)" fill="#373635"/>
            <path id="パス_109352" data-name="パス 109352" d="M315.229,78.128a.469.469,0,0,1-.225.525c-.088-.166-.177-.33-.251-.5a.416.416,0,0,1,.07-.337.3.3,0,0,1,.229-.136,1.817,1.817,0,0,1,.177.449" transform="translate(-173.425 -42.802)" fill="#373635"/>
            <path id="パス_109353" data-name="パス 109353" d="M313.393,76.591c0,.135-.193.255-.343.23a1.787,1.787,0,0,1-.331-.094.461.461,0,0,1,.167-.175.432.432,0,0,1,.319-.05.452.452,0,0,1,.18,0,.525.525,0,0,1,.007.09" transform="translate(-172.311 -42.147)" fill="#373635"/>
            <path id="パス_109354" data-name="パス 109354" d="M289.081,32.181a1.652,1.652,0,0,0-1.86-.4c-.168.065-.344.12-.485-.042-.1-.113.054-.332.319-.42s.531-.129.8-.19a2.407,2.407,0,0,1,1.4.507.99.99,0,0,1,.269.348.287.287,0,0,1-.061.263c-.052.048-.175.03-.265.021-.04,0-.079-.055-.116-.09" transform="translate(-157.978 -17.154)" fill="#373635"/>
            <path id="パス_109355" data-name="パス 109355" d="M287.86,39.036c0-.242.138-.405.343-.4a.4.4,0,1,1-.008.8c-.2,0-.33-.157-.335-.405" transform="translate(-158.614 -21.291)" fill="#373635"/>
            <path id="パス_109356" data-name="パス 109356" d="M285.427,25.274a6.889,6.889,0,0,1-.868-.769,6.583,6.583,0,0,1,1.615.484c.638.483,1.289.955,1.919,1.451a9.495,9.495,0,0,1,.923.835c-.686-.3-1.358-.642-2.043-.946-.1-.046-.21-.1-.319-.145-.409-.3-.818-.606-1.228-.911" transform="translate(-156.795 -13.502)" fill="#373635"/>
            <path id="パス_109357" data-name="パス 109357" d="M284.416,111.746a.464.464,0,0,1,.6-.295c-.039.131-.083.262-.135.389a.329.329,0,0,1-.379.177.248.248,0,0,1-.151-.074c.022-.066.044-.131.066-.2" transform="translate(-156.68 -61.397)" fill="#373635"/>
            <path id="パス_109358" data-name="パス 109358" d="M282.852,20.339a4.852,4.852,0,0,0,1.642,1.941l.378.287a6.589,6.589,0,0,0-1.615-.484,7.424,7.424,0,0,1-.8-.981,2.007,2.007,0,0,1-.251-.54.361.361,0,0,1,.219-.433.328.328,0,0,1,.422.21" transform="translate(-155.493 -11.08)" fill="#373635"/>
            <path id="パス_109359" data-name="パス 109359" d="M284.145,116.275a.481.481,0,0,1-.684-.525c0-.008,0-.015,0-.022a.248.248,0,0,1,.052-.022.4.4,0,0,1,.51.2c.043.122.083.245.118.37" transform="translate(-156.186 -63.742)" fill="#373635"/>
            <path id="パス_109360" data-name="パス 109360" d="M280.746,30.169a2.778,2.778,0,0,0,.979,0c0,.229-.182.385-.347.339a1.552,1.552,0,0,1-.409-.182c-.076-.05-.15-.1-.223-.155" transform="translate(-154.694 -16.622)" fill="#373635"/>
            <path id="パス_109361" data-name="パス 109361" d="M281.6,48.216a1.418,1.418,0,0,1-.944,0,.221.221,0,0,1-.109-.175.211.211,0,0,1,.107-.171,4.228,4.228,0,0,1,.5-.072,2.994,2.994,0,0,1,.45.072.207.207,0,0,1,.107.171.221.221,0,0,1-.109.173" transform="translate(-154.583 -26.338)" fill="#373635"/>
            <path id="パス_109362" data-name="パス 109362" d="M279.142,115.906a.364.364,0,0,1,.363-.225.421.421,0,0,1,.048,0,.47.47,0,0,1-.468.454l-.019.011c.024-.081.05-.162.076-.242" transform="translate(-153.768 -63.741)" fill="#373635"/>
            <path id="パス_109363" data-name="パス 109363" d="M278.235,111.684a1.365,1.365,0,0,1-.2-.481l-.044-.175h0a.434.434,0,0,1,.582.3,3.927,3.927,0,0,1,.1.383.256.256,0,0,1-.105.065.39.39,0,0,1-.338-.09" transform="translate(-153.175 -61.161)" fill="#373635"/>
            <path id="パス_109364" data-name="パス 109364" d="M276.324,52.09a2.745,2.745,0,0,0,4.178-.031,1.537,1.537,0,0,1,.2-.223.287.287,0,0,1,.348-.031.318.318,0,0,1,.157.382,1.694,1.694,0,0,1-.2.319,3.653,3.653,0,0,1-2.632,1.255,3.6,3.6,0,0,1-2.638-1.322.51.51,0,0,1-.138-.26.443.443,0,0,1,.118-.324.4.4,0,0,1,.343-.022c.105.043.182.164.262.258" transform="translate(-151.859 -28.52)" fill="#373635"/>
            <path id="パス_109365" data-name="パス 109365" d="M273.925,21.3c-.039-.1-.072-.207-.1-.312a1.691,1.691,0,0,1-.061-.369.3.3,0,0,1,.272-.306.7.7,0,0,1,.324.145.323.323,0,0,1,.1.194,5.211,5.211,0,0,0,2.072,2.977c.062.054.127.106.193.153a7.212,7.212,0,0,1-2.8-2.483" transform="translate(-150.845 -11.19)" fill="#373635"/>
            <path id="パス_109366" data-name="パス 109366" d="M274.544,39.47a.39.39,0,0,1-.4-.356.4.4,0,0,1,.387-.446.344.344,0,0,1,.348.389c0,.247-.128.405-.332.413" transform="translate(-151.052 -21.307)" fill="#373635"/>
            <path id="パス_109367" data-name="パス 109367" d="M273.277,11.91a.308.308,0,0,1,.026-.037c.114-.061.23-.12.347-.177a.469.469,0,0,1,.63.2,4,4,0,0,0-.357.277.564.564,0,0,1-.249.16.541.541,0,0,1-.337-.083.245.245,0,0,1-.059-.341" transform="translate(-150.554 -6.415)" fill="#373635"/>
            <path id="パス_109368" data-name="パス 109368" d="M277.834,25.634a1.5,1.5,0,0,1,.242.278c0,.011,0,.022,0,.033a2.778,2.778,0,0,1-.979,0s0,0,0,0a10.084,10.084,0,0,1-2.131-1.956,5.128,5.128,0,0,1-.839-1.486,7.218,7.218,0,0,0,2.8,2.483c.293.225.612.42.907.645" transform="translate(-151.047 -12.401)" fill="#373635"/>
            <path id="パス_109369" data-name="パス 109369" d="M272.89,31.845a1.636,1.636,0,0,0-1.857.422c-.053.052-.118.092-.219.172-.265-.243-.295-.341-.169-.505a1.676,1.676,0,0,1,.936-.6,2.126,2.126,0,0,1,1.543.074.593.593,0,0,1,.227.185.227.227,0,0,1,0,.2.233.233,0,0,1-.173.111.8.8,0,0,1-.287-.066" transform="translate(-149.089 -17.208)" fill="#373635"/>
            <path id="パス_109370" data-name="パス 109370" d="M272.172,22.829a.477.477,0,0,1-.053-.537v0a.27.27,0,0,1,.166.013.375.375,0,0,1,.2.442,1.21,1.21,0,0,1-.055.142c-.02.059-.042.116-.065.175-.066-.079-.131-.157-.194-.234" transform="translate(-149.908 -12.279)" fill="#373635"/>
            <path id="パス_109371" data-name="パス 109371" d="M270.818,14.47a.432.432,0,0,1-.048-.673c.013-.013.026-.024.039-.035l.159.016c.291.035.462.236.436.433s-.208.306-.532.268c-.018,0-.035-.006-.053-.009" transform="translate(-149.12 -7.583)" fill="#373635"/>
            <path id="パス_109372" data-name="パス 109372" d="M264.579,37.432a5.157,5.157,0,0,1,.074-.82.47.47,0,0,1,.07.73.856.856,0,0,1-.143.09" transform="translate(-145.786 -20.174)" fill="#373635"/>
            <path id="パス_109373" data-name="パス 109373" d="M262.034,37.449a.731.731,0,0,1,.468-.044.306.306,0,0,1,.264.322.434.434,0,0,1-.074.182.475.475,0,0,1-.293-.219c-.031-.012-.063-.02-.094-.031a.49.49,0,0,1-.271-.211" transform="translate(-144.383 -20.6)" fill="#373635"/>
            <path id="パス_109374" data-name="パス 109374" d="M260.772,27.171a7.269,7.269,0,0,1-1.051-.6,3.853,3.853,0,0,1-1.526-3.862,2.028,2.028,0,0,1,.8-1.248,1.152,1.152,0,0,1,.175-.1.493.493,0,0,0,.271.21l.094.031a.475.475,0,0,0,.293.219.213.213,0,0,1-.114.1c-.741.19-.89.765-.909,1.4a3.032,3.032,0,0,0,1.495,2.795c.168.109.351.192.577.313a2.372,2.372,0,0,0,0-.383,31.83,31.83,0,0,1-.553-3.821c-.009-.155-.013-.306-.009-.458a.846.846,0,0,0,.144-.09.47.47,0,0,0-.07-.73,5.75,5.75,0,0,1,.807-2.112c.319-.515.645-1.027.984-1.53a9.35,9.35,0,0,0,1.167-2.285,1.638,1.638,0,0,1,.116-.278.431.431,0,0,1,.269-.218.477.477,0,0,0,.053.537c.063.077.127.155.194.234a9.1,9.1,0,0,1-.9,1.875c-.4.61-.787,1.235-1.188,1.847a5.333,5.333,0,0,0-.851,3.537,27,27,0,0,0,.706,4.181,7.1,7.1,0,0,0,2.4,3.86,9.108,9.108,0,0,0,2.007,1.346c.367.162.75.293,1.127.431a2.637,2.637,0,0,0,1.78-.053,8.192,8.192,0,0,0,3.449-2.256,7.482,7.482,0,0,0,1.65-2.61,9.571,9.571,0,0,0,.368-1.386,30.437,30.437,0,0,0,.563-3.589,3.18,3.18,0,0,0-.573-2.142,10.907,10.907,0,0,0-2.35-2.557q-.387-.3-.776-.586l.319.145c.684.3,1.357.643,2.043.946a11.819,11.819,0,0,1,1.51,1.946,6.158,6.158,0,0,1,.713,1.827.58.58,0,0,1-.039.427,1.905,1.905,0,0,0-.252.861c-.212,1.218-.409,2.44-.642,3.655a9.807,9.807,0,0,1-.385,1.185,1.474,1.474,0,0,0,.933-.116,6.12,6.12,0,0,0,2.177-1.34,1.174,1.174,0,0,0,.273-.36,5.839,5.839,0,0,0,.666-2.389,14.673,14.673,0,0,0-.483-3.747,29.3,29.3,0,0,0-2.118-5.985,11.789,11.789,0,0,0-1.4-2.249,9.307,9.307,0,0,0-3.323-2.579,5.094,5.094,0,0,0-2.638-.555A6.906,6.906,0,0,0,265.242,10a.469.469,0,0,0-.63-.2c-.116.057-.233.116-.347.177a1.473,1.473,0,0,1,.275-.291,6.95,6.95,0,0,1,3.533-1.421,6.672,6.672,0,0,1,4.55,1.049,9.875,9.875,0,0,1,3.67,3.845,28.443,28.443,0,0,1,2.216,5.545,23.477,23.477,0,0,1,.876,4.451,6.572,6.572,0,0,1-.759,3.582,1.92,1.92,0,0,1-.468.588,7.57,7.57,0,0,1-1.9,1.241,6.6,6.6,0,0,1-1.083.317c-.319.073-.647.109-.922.155-.568.663-1.109,1.294-1.642,1.93a1.106,1.106,0,0,0-.3.826c.055.7.07,1.412.131,2.116a2.323,2.323,0,0,0,.584,1.449.976.976,0,0,1,.194.321.376.376,0,0,1,.024.173.33.33,0,0,1-.142.232.3.3,0,0,1-.411-.042,2.926,2.926,0,0,1-.835-1.416,8.087,8.087,0,0,1-.19-1.8c-.007-.295-.018-.592-.029-.877-.286-.07-.417.118-.579.219a7.091,7.091,0,0,1-2.736,1.043,2.172,2.172,0,0,1-.523,0,6.383,6.383,0,0,1-2.542-.92c-.212-.125-.427-.243-.7-.4a4.8,4.8,0,0,0-.075.486c-.028.505-.031,1.01-.072,1.515a3.255,3.255,0,0,1-.84,2.063.856.856,0,0,1-.159.158.315.315,0,0,1-.416-.018.416.416,0,0,1-.088-.2.327.327,0,0,1,0-.136.917.917,0,0,1,.219-.385,2.391,2.391,0,0,0,.529-1.156,12.717,12.717,0,0,0,.153-2.569,1.123,1.123,0,0,0-.422-.774c-.313-.328-.63-.655-.924-1-.2-.23-.35-.494-.538-.763a6.837,6.837,0,0,1-.721-.15,5.762,5.762,0,0,1-4.2-4.352,7.094,7.094,0,0,1-.077-2.778,31.778,31.778,0,0,1,.975-4.588,18.421,18.421,0,0,1,1.53-3.539,13.011,13.011,0,0,1,1.77-2.359,2.222,2.222,0,0,1,2-.649c-.013.011-.026.022-.039.035a.432.432,0,0,0,.048.673,1.524,1.524,0,0,0-.319-.049,1.732,1.732,0,0,0-1.279.544,13.921,13.921,0,0,0-2.809,4.809,22.488,22.488,0,0,0-1.06,4.334c-.075.474-.134.949-.2,1.425a5.3,5.3,0,0,0,2.059,4.921,4.8,4.8,0,0,0,1.595.844.881.881,0,0,0,.221,0c.081-.163-.039-.282-.074-.413a.935.935,0,0,0-.573-.649" transform="translate(-141.516 -4.515)" fill="#373635"/>
            <path id="パス_109375" data-name="パス 109375" d="M258.113,69.919a1.439,1.439,0,0,0-.437.007c-.549.185-1.093.385-1.635.594q-2.788,1.078-5.572,2.162a2.341,2.341,0,0,1-.343.114c0-.031,0-.062,0-.094a.463.463,0,0,0-.378-.448.233.233,0,0,1,.048-.035,4.662,4.662,0,0,1,.485-.212q3.031-1.181,6.063-2.359c.4-.153.807-.286,1.216-.409a1.444,1.444,0,0,1,1.213.087c.013.059.024.118.036.177q.54,2.588,1.071,5.132a2.5,2.5,0,0,0,1.211.258q3.033,0,6.066,0a3.509,3.509,0,0,0,1.25-.219c.2-.544,1.039-4.607,1.084-5.252a.143.143,0,0,0,0-.027,1.189,1.189,0,0,1,1.187-.218,5.516,5.516,0,0,1,1.008.319q3.249,1.244,6.494,2.5a1.192,1.192,0,0,1,.4.2.423.423,0,0,1,.105.243.452.452,0,0,0-.18,0,.432.432,0,0,0-.319.05.462.462,0,0,0-.168.175.186.186,0,0,1-.028-.009q-2.756-1.048-5.513-2.1c-.52-.2-1.037-.391-1.561-.575-.188-.066-.387-.1-.562-.144a1.037,1.037,0,0,0-.284.64c-.293,1.358-.566,2.719-.879,4.071q-1.02,4.388-2.07,8.769c-.369,1.548-.747,3.093-1.124,4.638-.015.061-.031.123-.05.184a.464.464,0,0,0-.6.295c-.022.066-.045.131-.066.2a.305.305,0,0,1-.094-.256,5.373,5.373,0,0,1,.114-.594q1.429-5.925,2.861-11.851c.028-.118.043-.237.07-.4-2.7.129-5.368.14-8.079.016.043.253.066.474.118.688q1.44,5.845,2.883,11.69a1.621,1.621,0,0,1,.079.516.339.339,0,0,1-.12.194,3.951,3.951,0,0,0-.1-.383.433.433,0,0,0-.582-.3h0q-.316-1.233-.612-2.47c-.918-3.776-1.841-7.554-2.745-11.334-.306-1.275-.559-2.564-.837-3.847-.027-.122-.078-.238-.123-.379" transform="translate(-137.615 -38.084)" fill="#373635"/>
            <path id="パス_109376" data-name="パス 109376" d="M249.615,76.106a.463.463,0,0,1,.378.448c0,.031,0,.062,0,.094v0c-.03.008-.059.013-.089.018a.348.348,0,0,1-.372-.2.324.324,0,0,1,.085-.36" transform="translate(-137.48 -41.935)" fill="#373635"/>
            <path id="パス_109377" data-name="パス 109377" d="M248.156,77.9a.313.313,0,0,1,.286.369.528.528,0,0,1-.048.142c-.009.015-.018.031-.027.046a.418.418,0,0,1-.207-.057.451.451,0,0,1-.216-.474.462.462,0,0,1,.212-.026" transform="translate(-136.616 -42.923)" fill="#373635"/>
            <path id="パス_109378" data-name="パス 109378" d="M232.8,137.947a.287.287,0,0,1,.282-.188.7.7,0,0,1,.317.157.418.418,0,0,1,.087.207,2.62,2.62,0,0,0,.092.291.481.481,0,0,1-.613-.37.415.415,0,0,1-.164-.1" transform="translate(-128.275 -75.906)" fill="#373635"/>
            <path id="パス_109379" data-name="パス 109379" d="M233.117,134.368a.238.238,0,0,1-.163-.092c.033-.123.068-.247.1-.371a.435.435,0,0,1,.606-.293c0,.029,0,.057-.007.087a1.419,1.419,0,0,1-.153.5.332.332,0,0,1-.385.172" transform="translate(-128.36 -73.602)" fill="#373635"/>
            <path id="パス_109380" data-name="パス 109380" d="M242.452,111.32c.079.1.129.293.358.194a16.036,16.036,0,0,0,.306-2.531,4.955,4.955,0,0,0-.037-.827c-.09-.647-.2-1.292-.309-1.937-.091-.536-.19-1.073-.31-1.742a15.966,15.966,0,0,0-.914,2.433c-.271.778-.531,1.561-.782,2.306.586.734,1.131,1.423,1.688,2.1m24.09-2.435c.118.746.271,1.488.415,2.228a2.328,2.328,0,0,0,.131.343,14.372,14.372,0,0,0,1.871-2.343c-.173-.5-.343-1-.516-1.5q-.533-1.534-1.074-3.068c-.033-.094-.133-.164-.252-.308-.212,1.287-.422,2.477-.6,3.672a3.348,3.348,0,0,0,.024.977m-3.414,19.36a4.79,4.79,0,0,0,2.315.516,8.361,8.361,0,0,0,3.867-1.047,31.442,31.442,0,0,0-.762-4.493,1.39,1.39,0,0,0-.144-.288,3.16,3.16,0,0,0-.785.84.456.456,0,0,1-.468.236l-.739-.577a9.159,9.159,0,0,0-1.714,2.249,12.716,12.716,0,0,1-1.528,2.422c-.03.033-.028.094-.043.142M257.357,212.6a2.7,2.7,0,0,0,2.16,2.17,9.781,9.781,0,0,0,2.557.194,12.441,12.441,0,0,0,1.421-.18A1.367,1.367,0,0,0,264.7,213.6a5.576,5.576,0,0,0-.02-2.473c-.029-.133.007-.315-.194-.361a3.009,3.009,0,0,1-1.7.748,17.585,17.585,0,0,1-3.393.216,3.718,3.718,0,0,1-1.967-.7c-.14-.1-.278-.2-.512-.372.162.717.3,1.329.44,1.939m-2.332-31.219V180.4l-.011-.006v.985Zm-.225-50.44a23.075,23.075,0,0,0,2.9-1.924,5.845,5.845,0,0,1,.558-.387.286.286,0,0,1,.386.138.411.411,0,0,1-.02.341,3.023,3.023,0,0,1-.5.452,25.565,25.565,0,0,1-3.5,2.253c-.118.064-.3.075-.319.274.079.155.213.1.326.072a16.07,16.07,0,0,0,3.734-1.418c.92-.475,1.8-1.014,2.695-1.539a3.027,3.027,0,0,0,.715-.551,12.305,12.305,0,0,0,2.159-3,9.212,9.212,0,0,1,1.485-2.187c.164-.186.337-.363.533-.573-1.051-1.046-2.086-2.074-3.133-3.113-.328.166-.627.3-.907.461a3.252,3.252,0,0,1-1.587.44,5.1,5.1,0,0,1-.529.02,1.012,1.012,0,0,0-.527.114.349.349,0,0,0-.282.14,1.119,1.119,0,0,0-.656-.1,6.566,6.566,0,0,0-2.007.592,2.483,2.483,0,0,0-.5.433c-.029.026-.024.086-.042.167.145.1.3.212.45.313a14.345,14.345,0,0,1,2.473-1.353,1.1,1.1,0,0,1,.286-.054c.094-.046.188-.1.282-.14a.5.5,0,0,1,.3.151.375.375,0,0,1,.074.274c-.007.14-.115.2-.247.247a7.9,7.9,0,0,0-2.669,1.39,17.492,17.492,0,0,0-3.062,3.137c-.444.614-.909,1.213-1.346,1.832-.3.431-.582.885-.855,1.338-.052.085-.175.2-.015.354a1.14,1.14,0,0,0,.328-.121,4.753,4.753,0,0,0,.7-.573,36.561,36.561,0,0,1,3.616-3.226,3.473,3.473,0,0,1,.365-.269.32.32,0,0,1,.465.079.3.3,0,0,1-.039.413,7.468,7.468,0,0,1-.569.5,29.728,29.728,0,0,0-3.388,3.025,2.971,2.971,0,0,1-.688.586c-.367.208-.516.575-.879.92a1.725,1.725,0,0,0,.47-.008,3.078,3.078,0,0,0,.61-.3,35.421,35.421,0,0,0,4.38-3.109c.171-.15.348-.293.529-.431a.323.323,0,0,1,.418,0,.334.334,0,0,1,.022.475c-.232.231-.478.45-.73.66a43.419,43.419,0,0,1-3.954,2.8,4.4,4.4,0,0,0-.493.347c-.061.053-.062.171-.094.273a1.173,1.173,0,0,0,.982-.037,12.733,12.733,0,0,0,1.3-.6m.3,67.648c.275-4.719-.1-9.434-.075-14.16-.068,4.807-.179,9.624-.017,14.44a.6.6,0,0,0,.092-.28m-7.426-71.4a6.984,6.984,0,0,1-1.158-1.939c-.312-.743-.7-1.457-1.062-2.175a1.589,1.589,0,0,0-.66-.719,4.589,4.589,0,0,0-.678.625c-.433.422-.861.855-1.3,1.266a.383.383,0,0,1-.6-.039c-.083-.094-.144-.208-.227-.3a2.009,2.009,0,0,0-.7-.634c-.313,1.379-.623,2.724-.924,4.074a2,2,0,0,0,0,.4c.594.239,1.169.5,1.76.7a5.46,5.46,0,0,0,1.246.3,7.328,7.328,0,0,0,4.387-.857,1.644,1.644,0,0,0,.267-.242c-.135-.177-.234-.322-.35-.455M243.962,178.4c1.193.207,2.405.228,3.6.4.874.124,1.761.151,2.644.2.959.054,1.917.114,2.877.118s1.9.109,2.865.041c1.308-.1,2.625-.082,3.937-.163,1.384-.087,2.752-.31,4.137-.389.6-.035,1.2-.168,1.8-.225a36.067,36.067,0,0,0,6.3-1.231,7.131,7.131,0,0,0,.791-.255.734.734,0,0,0,.49-.765c-.157-1.508-.321-3.014-.481-4.521q-.193-1.808-.383-3.617c-.125-1.182-.243-2.363-.369-3.543q-.193-1.847-.392-3.694-.185-1.77-.369-3.541-.191-1.808-.385-3.618c-.123-1.18-.242-2.361-.367-3.543-.177-1.657-.361-3.314-.536-4.972s-.338-3.318-.515-4.975c-.175-1.633-.352-3.266-.544-4.9q-.315-2.67-.667-5.338a1.769,1.769,0,0,0-.236-.841,8.574,8.574,0,0,1-2.732.457,9.587,9.587,0,0,1-2.742-.535c-.6.382-1.119.73-1.657,1.058s-1.1.627-1.637.953a19.394,19.394,0,0,1-4.247,1.781,4.315,4.315,0,0,1-.969.107.619.619,0,0,1-.531-.243c-.077-.094-.159-.18-.2-.224a5.526,5.526,0,0,1-.752-.008,1.521,1.521,0,0,1-.636-.2,2.2,2.2,0,0,1-.411-.524,3.613,3.613,0,0,1-.376-.018.594.594,0,0,1-.581-.726,4.944,4.944,0,0,1,.109-.588,10.336,10.336,0,0,0-2.273-2.024,8.064,8.064,0,0,1-6.918.77,6.408,6.408,0,0,0-.157.621c-.081.524-.153,1.051-.213,1.576q-.362,3.163-.714,6.324c-.129,1.181-.238,2.363-.359,3.544-.133,1.307-.271,2.614-.4,3.921-.119,1.18-.235,2.362-.355,3.543-.131,1.307-.268,2.614-.4,3.921q-.183,1.808-.363,3.62c-.129,1.281-.264,2.562-.391,3.845-.122,1.205-.238,2.412-.36,3.618q-.2,2-.408,4c-.118,1.182-.232,2.363-.353,3.545-.171,1.659-.348,3.316-.519,4.975a.82.82,0,0,0,.538.883,2.845,2.845,0,0,0,.358.125c1.052.261,2.1.559,3.16.767,1.087.214,2.2.322,3.288.51m2.5,36.364a8.672,8.672,0,0,0,1.187.217,8.5,8.5,0,0,0,3.431-.33,2.391,2.391,0,0,0,1.616-1.661c.184-.6.3-1.218.442-1.832a1.88,1.88,0,0,0,0-.363c-.218.14-.383.242-.546.35a2.989,2.989,0,0,1-1.39.553,12.982,12.982,0,0,1-1.733.046c-.577-.022-1.152-.128-1.729-.163a3.066,3.066,0,0,1-2.12-.884,6.056,6.056,0,0,0-.217,2.645,2.229,2.229,0,0,0,.184.652,1.205,1.205,0,0,0,.87.768m.361-6.586a10.737,10.737,0,0,0-.608,1.049,1.123,1.123,0,0,0,.512,1.413,1.742,1.742,0,0,0,.5.16c.85.11,1.7.239,2.557.29a5.334,5.334,0,0,0,1.5-.131A2.531,2.531,0,0,0,253.274,209c.031-.12.018-.281.092-.358a1.8,1.8,0,0,0,.35-1.13c.037-.251.039-.505.078-.754.239-1.517.326-3.058.652-4.564a2.875,2.875,0,0,0-.031-.673.331.331,0,0,1,.332-.382.412.412,0,0,1,.1.013.826.826,0,0,0,.427.006c.281-.066.42.072.424.361a2.574,2.574,0,0,0,.011.752,8.5,8.5,0,0,1,.23,1.565c.19,1.222.344,2.449.5,3.677a1.7,1.7,0,0,0,.347,1.128c.077.076.072.234.1.356a2.517,2.517,0,0,0,1.923,1.936,4.964,4.964,0,0,0,1.5.133c.832-.044,1.658-.164,2.485-.271a2.563,2.563,0,0,0,.649-.2.816.816,0,0,0,.487-.542,1.114,1.114,0,0,0-.089-1.078c-.191-.266-.337-.564-.516-.839-.73-1.122-1.458-2.245-2.2-3.362a15.621,15.621,0,0,1-1.482-2.723.575.575,0,0,0-.2-.3.42.42,0,0,1-.227-.563c.044-.171.085-.343.114-.518q.675-4.264,1.346-8.528c.527-3.367,1.141-6.718,1.795-10.061.144-.743.252-1.494.363-2.242a1.25,1.25,0,0,0-.052-.384c-2.339.155-4.629.308-6.916.459a1.485,1.485,0,0,0-.121.889c.024,3.31.066,6.621.087,9.929.014,2.5.02,5,0,7.506,0,.7-.087,1.41-.158,2.114-.044.413-.177.5-.588.505a2.341,2.341,0,0,1-.328-.013c-.211-.032-.247-.139-.323-.5a3.874,3.874,0,0,1-.088-.6c-.048-.807-.116-1.615-.118-2.422-.007-2.551.015-5.1.024-7.655q.014-4.474.024-8.946a1.326,1.326,0,0,0-.125-.809c-2.308-.14-4.614-.282-6.949-.425a2.481,2.481,0,0,0,.035.914c.148.82.3,1.638.465,2.456.776,3.784,1.421,7.59,2.048,11.4.4,2.413.774,4.83,1.169,7.3-.356.177-.461.572-.64.925-.33.655-.662,1.309-1.047,1.927-.788,1.265-1.618,2.5-2.422,3.757m3.31-6.905q-1.57-10.838-3.766-21.831a1.32,1.32,0,0,0-.66-.165c-1.327-.163-2.659-.289-3.981-.49a34.8,34.8,0,0,1-4.711-1.095,2.331,2.331,0,0,1-.284-.106c-.269-.125-.645-.145-.754-.449a2.235,2.235,0,0,1-.1-.951c.269-2.637.566-5.272.839-7.909.23-2.236.437-4.475.664-6.711s.47-4.472.7-6.709c.177-1.734.334-3.469.511-5.2.173-1.708.363-3.415.538-5.124s.339-3.419.514-5.127c.123-1.208.257-2.411.386-3.617.116-1.08.225-2.162.352-3.241.12-1,.259-2,.387-3,.033-.249.061-.5.092-.767-.3-.145-.575-.273-.844-.4-.547-.268-.544-.273-.409-.861.372-1.622.8-3.233,1.039-4.933-.088-.11-.188-.254-.306-.38-1.543-1.637-3.107-3.253-4.628-4.912-.818-.892-1.563-1.853-2.336-2.787a3.41,3.41,0,0,1-.59-1.22.934.934,0,0,1-.033-.295.253.253,0,0,1,.022-.092.409.409,0,0,0,.164.1.481.481,0,0,0,.613.37,4.859,4.859,0,0,0,.8,1.274q1.275,1.606,2.7,3.075c.845.87,1.654,1.775,2.493,2.65.995,1.04,2.005,2.064,3,3.091a50.047,50.047,0,0,0,4.914-5c-.109-.151-.218-.319-.345-.47-1.043-1.235-2.1-2.459-3.134-3.705-.951-1.146-1.875-2.317-2.811-3.476a6.617,6.617,0,0,0-1.135-1.215.4.4,0,0,1-.052-.652,1.607,1.607,0,0,0,.3-.509c.608-1.712,1.2-3.43,1.81-5.143a1.456,1.456,0,0,0,.079-.741c-.323-1.943-.638-3.886-.961-5.829-.21-1.27-.426-2.54-.638-3.81a.935.935,0,0,1-.011-.151.363.363,0,0,1,.289-.385.338.338,0,0,1,.395.271c.062.269.116.544.159.817.267,1.7.523,3.4.794,5.089q.484,3.031.984,6.057c.2,1.246.43,2.488.61,3.738a4.815,4.815,0,0,1,0,1.206c-.109.979-.252,1.952-.391,3,.284.343.6.735.925,1.117,1.2,1.4,2.385,2.817,3.605,4.2.431.489.944.907,1.423,1.353a.9.9,0,0,0,.251.166,7.035,7.035,0,0,0,1.829.559c.055-.321.12-.614.156-.911.247-1.955.5-3.909.73-5.865.182-1.53.339-3.062.519-4.594q.285-2.406.6-4.811a3,3,0,0,1,.109-.49l.019-.011a.47.47,0,0,0,.468-.453.332.332,0,0,1,.315.308.285.285,0,0,1-.011.075,30.355,30.355,0,0,0-.784,5.308q-.268,2.256-.533,4.515-.254,2.146-.514,4.289c-.072.6-.153,1.2-.225,1.8-.037.3-.066.6-.1.944,1.021.444,1.945,1.06,3.032,1.445.581-.82,1.583-.865,2.427-1.245-.109-.886-.214-1.736-.321-2.584-.186-1.479-.376-2.957-.56-4.435q-.255-2.068-.5-4.138c-.134-1.128-.254-2.258-.4-3.386a10.649,10.649,0,0,0-.461-2.448.405.405,0,0,1-.029-.147.282.282,0,0,1,.159-.262.165.165,0,0,0,0,.022.48.48,0,0,0,.683.525,3.1,3.1,0,0,1,.074.36q.251,1.839.477,3.681c.19,1.554.363,3.112.553,4.665q.246,2.029.511,4.059.24,1.88.5,3.755a.7.7,0,0,0,.089.172,2.052,2.052,0,0,0,.861,0,7.952,7.952,0,0,1,.979-.092,2.474,2.474,0,0,0,1.3-.338c.219-.123.44-.239.647-.352.075-.275-.138-.376-.256-.527-.227-.289-.227-.385.017-.638a3.048,3.048,0,0,0,.264-.269c1.331-1.718,2.656-3.44,3.993-5.154a.9.9,0,0,0,.19-.835c-.175-.735-.291-1.486-.451-2.227a5.936,5.936,0,0,1-.048-2.26c.416-2.464.848-4.927,1.273-7.39.31-1.791.627-3.582.931-5.373.093-.547.15-1.1.231-1.651a2.979,2.979,0,0,1,.107-.441.308.308,0,0,1,.337-.243.289.289,0,0,1,.282.3,3.277,3.277,0,0,1-.044.6q-.591,3.509-1.194,7.017c-.123.722-.264,1.442-.38,2.164a1.058,1.058,0,0,0,.022.51q.9,2.532,1.826,5.054a10.036,10.036,0,0,0,.461,1.03.44.44,0,0,1-.08.549q-.572.655-1.134,1.325a11.142,11.142,0,0,0-.993,1.241c-.3.5-.717.9-1.056,1.355q-.54.733-1.088,1.458c-.352.462-.713.918-1.071,1.377s-.721.913-1.077,1.372c-.2.26-.387.525-.623.848,1.414,1.686,3.023,3.076,4.509,4.632.154-.142.289-.251.407-.374,2.1-2.19,4.208-4.367,6.284-6.579.725-.773,1.357-1.632,2.031-2.45a2.032,2.032,0,0,0,.317-.546.46.46,0,0,0,.481-.081.423.423,0,0,0,.319-.43c0-.1-.009-.2-.018-.3.14.113.158.3.055.6a3.909,3.909,0,0,1-.619,1.206c-.9,1.122-1.8,2.243-2.808,3.283-1.456,1.51-2.884,3.045-4.326,4.571-.052.055-.092.118-.179.229.092.5.186,1.047.288,1.587.2,1.067.4,2.135.614,3.2a2.61,2.61,0,0,0,.206.56c.163.354.131.466-.233.649-.313.155-.634.3-.969.451a21.591,21.591,0,0,0,.269,2.264c.173,1.506.365,3.008.538,4.514.14,1.2.265,2.411.394,3.617q.183,1.694.363,3.39.2,1.883.405,3.767c.118,1.106.232,2.21.35,3.316q.2,1.921.407,3.843c.12,1.13.236,2.26.356,3.392q.2,1.883.4,3.768.179,1.695.357,3.391.2,1.883.4,3.768c.118,1.1.232,2.21.352,3.316.183,1.681.376,3.362.55,5.046a3.681,3.681,0,0,1-.05.885.446.446,0,0,1-.212.289,5.983,5.983,0,0,1-.837.345,32.654,32.654,0,0,1-4.256,1.053c-1.589.29-3.192.479-4.8.632a1.958,1.958,0,0,0-.3.076c-1.444,7.294-2.653,14.609-3.692,21.931a7.062,7.062,0,0,1,.431.715,15.446,15.446,0,0,0,1.148,2.131q1.283,1.969,2.551,3.947a9.5,9.5,0,0,1,1.18,2.613,6.2,6.2,0,0,1,.1,3.073,2.117,2.117,0,0,1-1.786,1.731,10.618,10.618,0,0,1-3.913.022,6.349,6.349,0,0,1-.732-.189,3.113,3.113,0,0,1-2.2-2.293,24.9,24.9,0,0,1-.579-2.585c-.245-1.52-.426-3.05-.638-4.577-.076-.549-.177-1.1-.249-1.647-.068-.518-.112-1.038-.18-1.668-.094.153-.147.2-.153.254-.076.678-.133,1.357-.214,2.033-.128,1.052-.281,2.1-.4,3.156a41.237,41.237,0,0,1-.805,4.625,4.774,4.774,0,0,1-.28.862,3.022,3.022,0,0,1-1.779,1.755,5.872,5.872,0,0,1-2.062.424c-.633,0-1.265.026-1.893-.007a6.111,6.111,0,0,1-1.264-.214,1.941,1.941,0,0,1-1.373-1.3,5.536,5.536,0,0,1-.179-2.694,8.075,8.075,0,0,1,1.108-2.962c.48-.8.986-1.587,1.488-2.376.461-.725.951-1.432,1.39-2.17.348-.585.638-1.2.957-1.806.138-.262.286-.52.477-.869M246.081,122.8c.411.78.788,1.58,1.15,2.381a5.934,5.934,0,0,0,.8,1.366c.291.348.574.7.872,1.047a9.24,9.24,0,0,0,1.727,1.5,6.991,6.991,0,0,0,.678-1.056c-.2-.2-.369-.341-.509-.511a.23.23,0,0,1,.033-.339.435.435,0,0,1,.328-.1,3.564,3.564,0,0,1,.581.365l.669-.911a4.314,4.314,0,0,1-.321-.433.308.308,0,0,1,.072-.408.272.272,0,0,1,.345-.036c.128.068.251.14.4.224l.415-.634a1.782,1.782,0,0,1-.172-.3c-.083-.28.05-.459.328-.437a3.557,3.557,0,0,1,.422.087l.743-.805c-.236-.186-.437-.337-.629-.5a3.626,3.626,0,0,1-.392-.352.349.349,0,0,1,.042-.479.311.311,0,0,1,.413.024c.295.238.584.481.879.715a.992.992,0,0,0,.233.092c.133-.135.267-.273.427-.433a3.826,3.826,0,0,0-1.137-.92c-.544-.26-1.082-.54-1.616-.822a5.287,5.287,0,0,0-1.207-.422c-.708-.173-1.4-.4-2.105-.592a1.7,1.7,0,0,1-.761-.472c-.228-.232-.475-.446-.724-.677-.863.885-1.7,1.75-2.542,2.616a2.163,2.163,0,0,0-.162.229,8.553,8.553,0,0,1,.719,1" transform="translate(-128.247 -50.845)" fill="#373635"/>
            <path id="パス_109381" data-name="パス 109381" d="M232.812,103.234a22.722,22.722,0,0,1,.553-3.358c1.123-5.205,2.488-10.35,3.935-15.474.452-1.6.955-3.189,1.456-4.776a13.542,13.542,0,0,1,.579-1.4.461.461,0,0,1,.269-.269.452.452,0,0,0,.216.474.424.424,0,0,0,.207.057,12.155,12.155,0,0,0-1.139,2.9c-.677,2.272-1.322,4.555-1.956,6.838-1.051,3.794-2,7.613-2.813,11.465a24.55,24.55,0,0,0-.54,3.272.435.435,0,0,0-.606.293c-.033.124-.068.247-.1.371a.418.418,0,0,1-.068-.245c0-.05.008-.1.009-.151" transform="translate(-128.277 -42.957)" fill="#373635"/>
            <path id="パス_109382" data-name="パス 109382" d="M96.3,122.3a1.744,1.744,0,0,1-.158-.421.252.252,0,0,1,.071-.235c.093.252.2.5.276.758a.462.462,0,0,1,0,.281c-.058-.131-.121-.255-.185-.383" transform="translate(-52.973 -67.025)" fill="#373635"/>
            <path id="パス_109383" data-name="パス 109383" d="M94.7,120.212a.436.436,0,0,1,.587.235c-.06.062-.133.128-.2.125a.537.537,0,0,1-.317-.152.36.36,0,0,1-.074-.207Z" transform="translate(-52.181 -66.219)" fill="#373635"/>
            <path id="パス_109384" data-name="パス 109384" d="M94.821,123.447a.411.411,0,0,1-.1-.177c-.052-.179-.12-.353-.189-.526a2.7,2.7,0,0,1,.369.581,1.222,1.222,0,0,1-.084.122" transform="translate(-52.09 -67.633)" fill="#373635"/>
            <path id="パス_109385" data-name="パス 109385" d="M89.446,121.42c-.2.267-.387.285-.6.051a6.152,6.152,0,0,0-.462-.587,4.324,4.324,0,0,0-2.436-1.086c-.3-.033-.6-.066-.9-.108a.368.368,0,0,1-.114-.032.292.292,0,0,1-.159-.271.32.32,0,0,1,.345-.316,5.269,5.269,0,0,1,3.2.919,3.663,3.663,0,0,1,.832.727c.068.173.136.348.189.526a.411.411,0,0,0,.1.177" transform="translate(-46.715 -65.606)" fill="#373635"/>
            <path id="パス_109386" data-name="パス 109386" d="M89.411,98.706a.435.435,0,0,0-.587-.235c0-.026-.008-.051-.013-.075A101.435,101.435,0,0,0,86.1,87.612c-.414-1.532-.909-3.044-1.382-4.56-.112-.362-.277-.7-.422-1.054a1.06,1.06,0,0,0-.263-.392.041.041,0,0,0,.016-.007.463.463,0,0,0,.152-.634c-.055-.082-.111-.163-.167-.245a.261.261,0,0,1,.057.014.915.915,0,0,1,.557.487,11.612,11.612,0,0,1,.64,1.45q.729,2.308,1.394,4.638c.726,2.574,1.442,5.147,2.126,7.732.271,1.024.438,2.073.652,3.11.02.1.032.2.051.3a.6.6,0,0,1-.064.211c-.011.014-.024.027-.037.041" transform="translate(-46.305 -44.478)" fill="#373635"/>
            <path id="パス_109387" data-name="パス 109387" d="M83.091,81.438a.3.3,0,0,1-.19-.426.481.481,0,0,1,.493-.3l.168.246a.462.462,0,0,1-.152.634.034.034,0,0,1-.016.007.78.78,0,0,0-.3-.163" transform="translate(-45.663 -44.472)" fill="#373635"/>
            <path id="パス_109388" data-name="パス 109388" d="M81.063,79.268c-.072-.041-.143-.084-.214-.129a.46.46,0,0,1,.115-.233.444.444,0,0,1,.536-.083.36.36,0,0,1-.033.326.338.338,0,0,1-.4.119" transform="translate(-44.549 -43.403)" fill="#373635"/>
            <path id="パス_109389" data-name="パス 109389" d="M71.687,46.41c-.241.172-.387.224-.444.326a.375.375,0,0,0,.053.475c.048.045.133.1.185.088.082-.022.2-.091.212-.152a5.361,5.361,0,0,0-.006-.737m-.6-.152a.462.462,0,0,1,.556-.084.452.452,0,0,1,.227.339.463.463,0,0,1,.295.417.449.449,0,0,1-.024.156,1.293,1.293,0,0,1-.821.491.439.439,0,0,1-.154-.074.469.469,0,0,1-.33-.124.453.453,0,0,1-.114-.474.514.514,0,0,1,.078-.148.048.048,0,0,1,0-.013c.01-.016.018-.033.027-.05.023-.044.044-.091.066-.136a1.328,1.328,0,0,1,.19-.3" transform="translate(-38.956 -25.411)" fill="#373635"/>
            <path id="パス_109390" data-name="パス 109390" d="M71.628,150.012c-.031.183-.172.238-.332.242-.478.017-.957.023-1.436.034v-.021c-.454.01-.906.024-1.361.028a.953.953,0,0,1-.368-.051.311.311,0,0,1-.163-.224.422.422,0,0,1,.145-.306.921.921,0,0,1,.433-.1c.781-.02,1.564-.034,2.345-.041a1.993,1.993,0,0,1,.447.061.339.339,0,0,1,.29.378" transform="translate(-37.451 -82.416)" fill="#373635"/>
            <path id="パス_109391" data-name="パス 109391" d="M62.081,31.31c-.262.072-.522.158-.788.211a.276.276,0,0,1-.232-.123.289.289,0,0,1,.058-.264,1.373,1.373,0,0,1,.9-.314,2.187,2.187,0,0,1,1.474.462,1,1,0,0,1,.2.217.257.257,0,0,1,0,.342.224.224,0,0,1-.332.016c-.079-.06-.15-.133-.228-.2a1.693,1.693,0,0,0-1.061-.349" transform="translate(-33.638 -16.981)" fill="#373635"/>
            <path id="パス_109392" data-name="パス 109392" d="M66.65,17.85a5.956,5.956,0,0,1,.3,4.568c-.048.142-.081.292-.126.464a3.264,3.264,0,0,1,.133,3.929,3.464,3.464,0,0,1-.408.544,1.575,1.575,0,0,0-.435.644l-.3-.006a.47.47,0,0,0,.024-.156.463.463,0,0,0-.295-.417.455.455,0,0,0-.227-.339.462.462,0,0,0-.556.084,1.328,1.328,0,0,0-.19.3c-.022.046-.044.092-.066.136a.512.512,0,0,1-.027.049.089.089,0,0,0,0,.013.512.512,0,0,0-.078.148l-.223-.049c.172-.735.255-1.5.355-2.253s.061-1.516.176-2.262a5.964,5.964,0,0,0-.5-3.023A12.677,12.677,0,0,0,62,16.363c-.017-.018-.034-.038-.049-.058a3.86,3.86,0,0,0-2.073-1.445c-.309-.07-.414-.211-.39-.382.031-.2.254-.33.546-.266a3.275,3.275,0,0,1,1.307.566,8.1,8.1,0,0,1,1.744,1.884,14.157,14.157,0,0,1,2.185,4.714c.084.343.145.692.2,1.042a2.018,2.018,0,0,1-.018.444,2.852,2.852,0,0,0-.01.594,1.406,1.406,0,0,0,.257-.848,7.531,7.531,0,0,0-.424-2.908,14.983,14.983,0,0,0-1.948-4,7.154,7.154,0,0,0-1.538-1.664,2.442,2.442,0,0,0-1.818-.6.789.789,0,0,1-.374-.01.416.416,0,0,1-.232-.251.363.363,0,0,1,.149-.306,1.206,1.206,0,0,1,.5-.141,2.978,2.978,0,0,1,1.732.455,6.015,6.015,0,0,1,1.378,1.179,14.319,14.319,0,0,1,2.473,4.231,12.4,12.4,0,0,1,.682,2.4,1.72,1.72,0,0,0,.118.317c.193-.044.153-.166.162-.251a5.68,5.68,0,0,0-.532-2.948A16.545,16.545,0,0,0,63.1,13.7a9.684,9.684,0,0,0-1.145-.986,2.664,2.664,0,0,0-2-.529c-.15.018-.3.044-.453.049a.251.251,0,0,1-.279-.2.691.691,0,0,1,0-.129V11.9s0-.009,0-.013h0a.529.529,0,0,1,.013-.066.278.278,0,0,1,.068-.129.735.735,0,0,1,.4-.184,3.516,3.516,0,0,1,2.4.5A8.055,8.055,0,0,1,63.92,13.59,18.286,18.286,0,0,1,66.65,17.85m-.7,9.117a2.913,2.913,0,0,0,.91-2.1,1.65,1.65,0,0,0-.526-1.4c-.07.149-.119.255-.17.361a6.645,6.645,0,0,1-.594,1.214,2.338,2.338,0,0,0-.44,1.574,3.789,3.789,0,0,1,.419.131c.132.058.255.142.4.224" transform="translate(-32.633 -6.319)" fill="#373635"/>
            <path id="パス_109393" data-name="パス 109393" d="M59.231,12.391s0,.009,0,.013a.041.041,0,0,1,0-.013" transform="translate(-32.636 -6.828)" fill="#373635"/>
            <path id="パス_109394" data-name="パス 109394" d="M56.937,12.442a.339.339,0,0,0,.294-.3l.571.041a.173.173,0,0,1,.018.07h0a.043.043,0,0,0,0,.013v.005c-.021.172-.1.211-.254.244a6.681,6.681,0,0,1-.9-.064.893.893,0,0,0,.268-.01" transform="translate(-31.225 -6.69)" fill="#373635"/>
            <path id="パス_109395" data-name="パス 109395" d="M55.884,46.951c.492-.009.681.079.625.245-.092.288-.348.246-.563.247a1.346,1.346,0,0,1-.428-.085.224.224,0,0,1-.1-.18.217.217,0,0,1,.12-.163,2.154,2.154,0,0,1,.342-.064" transform="translate(-30.538 -25.87)" fill="#373635"/>
            <path id="パス_109396" data-name="パス 109396" d="M45.582,32.257c-.131-.084-.116-.3.03-.464a2.319,2.319,0,0,1,1.625-.669c.193.049.46.11.717.193a.478.478,0,0,1,.22.187.292.292,0,0,1,0,.211c-.009.034-.078.071-.122.074a.916.916,0,0,1-.292-.027,1.632,1.632,0,0,0-1.791.394c-.109.112-.231.2-.39.1" transform="translate(-25.067 -17.15)" fill="#373635"/>
            <path id="パス_109397" data-name="パス 109397" d="M44.481,62.893a.18.18,0,0,1,.051-.11.932.932,0,0,1,.559.471.5.5,0,0,1,.062.295c-.132-.061-.265-.126-.4-.19-.066-.034-.16-.064-.189-.122a.689.689,0,0,1-.088-.343" transform="translate(-24.509 -34.594)" fill="#373635"/>
            <path id="パス_109398" data-name="パス 109398" d="M44.175,69.591a1.466,1.466,0,0,1,.515.078,11.133,11.133,0,0,0,2.866.627c1.151.132,2.305.243,3.462.318.677.047,1.36.011,2.041.013a4.924,4.924,0,0,1,.528.012.432.432,0,0,1,.321.3.23.23,0,0,1,.009.067.381.381,0,0,1-.365.319c-.378.009-.757,0-1.135,0-.222,0-.446.008-.729.013.05.209.076.376.13.534.2.6.43,1.183.629,1.781a1.974,1.974,0,0,1,.089.591.28.28,0,0,1-.169.214c-.109.023-.288.006-.338-.062a1.7,1.7,0,0,1-.231-.55,17.093,17.093,0,0,0-.862-2.338.978.978,0,0,0-.147-.192c-.34-.036-.688-.075-1.038-.109-.7-.064-1.4-.116-2.107-.192a.725.725,0,0,0-.726.3,7.763,7.763,0,0,0-.6.867c-.325.6-.616,1.211-.918,1.821-.034.068-.058.14-.1.2a.329.329,0,0,1-.387.156.354.354,0,0,1-.207-.436,4.1,4.1,0,0,1,.271-.623c.4-.7.8-1.4,1.205-2.095.062-.106.126-.212.221-.369-.332-.087-.614-.15-.9-.22-.463-.11-.913-.278-1.367-.429a.289.289,0,0,1-.163-.14.423.423,0,0,1-.018-.285.315.315,0,0,1,.217-.173" transform="translate(-24.212 -38.345)" fill="#373635"/>
            <path id="パス_109399" data-name="パス 109399" d="M58.458,339.366c-1.521-1.4-3.05-2.8-4.566-4.211a23.9,23.9,0,0,1-2.708-2.958,4.562,4.562,0,0,1-.922-3.344c.031-.318.048-.637.075-1.014-.781.119-1.492.256-2.21.326s-1.453.066-2.135.093c-.055.068-.082.085-.086.105-.047.476-.094.953-.133,1.43a10.648,10.648,0,0,1-.943,3.873,1.22,1.22,0,0,0-.23.761c.469.318.923.635,1.388.936a14.235,14.235,0,0,1,2.335,1.92,16.4,16.4,0,0,0,3.038,2.368,6.336,6.336,0,0,0,2.717.854,12.736,12.736,0,0,0,3.1-.072,3.422,3.422,0,0,0,1.721-.619c-.166-.17-.295-.316-.438-.448m-14.37-3a1.788,1.788,0,0,0,.712,1.591,4.693,4.693,0,0,0,.694.455c.7.4,1.4.8,2.105,1.2a2.464,2.464,0,0,1,.922.881c.22.366.459.724.666,1.1a3.968,3.968,0,0,0,1.522,1.547,12.622,12.622,0,0,0,4.543,1.58,11.87,11.87,0,0,0,4.286-.24,4.627,4.627,0,0,0,2.308-1.227.727.727,0,0,0,.207-.827,1.98,1.98,0,0,0-.343-.577,14.425,14.425,0,0,0-2.24-1.533,4.28,4.28,0,0,1-1.789.74,13.271,13.271,0,0,1-4.37.049,6.164,6.164,0,0,1-2.26-.824A15.247,15.247,0,0,1,48,337.92a18.878,18.878,0,0,0-3.264-2.576,4.007,4.007,0,0,0-.506-.221c-.058.492-.108.866-.143,1.241m-.719.046a5.837,5.837,0,0,1,.309-1.709c.184-.5.371-.993.584-1.479a7.8,7.8,0,0,0,.678-2.392c.05-.5.15-1,.187-1.5.027-.374-.01-.751-.018-1.19a5.172,5.172,0,0,1-1.921-.6,1.394,1.394,0,0,1-.382-.241.865.865,0,0,1-.211-.386.318.318,0,0,1,.21-.365l.044-.013a.325.325,0,0,1,.233.047,4.091,4.091,0,0,0,2.654.923,14.418,14.418,0,0,0,3.7-.229,3.811,3.811,0,0,0,1.478-.545.522.522,0,0,1,.26-.118h.01a.575.575,0,0,1,.332.119.232.232,0,0,1,0,.34c-.133.15-.286.279-.4.388-.064.531-.135,1-.172,1.481a3.97,3.97,0,0,0,.9,2.968c.717.847,1.457,1.68,2.236,2.469.726.737,1.517,1.411,2.279,2.112.5.461,1.022.906,1.509,1.386a22.812,22.812,0,0,0,3.41,2.761c.294.2.579.408.855.627a1.679,1.679,0,0,1,.617,1.014,1.49,1.49,0,0,1-.408,1.455A5.214,5.214,0,0,1,60,345.065a13.677,13.677,0,0,1-3.147.407,12.509,12.509,0,0,1-6.1-1.513,5.279,5.279,0,0,1-2.31-2.223,3.627,3.627,0,0,0-2.111-2.068c-.465-.26-.926-.52-1.392-.771a3.364,3.364,0,0,1-.988-.813,2.361,2.361,0,0,1-.583-1.676" transform="translate(-23.466 -179.92)" fill="#373635"/>
            <path id="パス_109400" data-name="パス 109400" d="M42.731,64.312a.462.462,0,0,1-.179-.627.022.022,0,0,1,0-.007.243.243,0,0,1,.089.009c.207.058.33.25.268.553-.009.043-.017.084-.022.126a.47.47,0,0,1-.16-.054" transform="translate(-23.412 -35.087)" fill="#373635"/>
            <path id="パス_109401" data-name="パス 109401" d="M40.185,48.609c-.277.17-.244.418-.158.664a.259.259,0,0,0,.212.137.3.3,0,0,0,.189-.2.6.6,0,0,0-.242-.6m-.6.919a.5.5,0,0,1-.272-.428.4.4,0,0,1,.076-.262.468.468,0,0,1,.4-.391.3.3,0,0,1,.041,0l.2,0a.462.462,0,0,1,.281.093.472.472,0,0,1,.367.366.353.353,0,0,1,.01.079.454.454,0,0,1-.266.423.422.422,0,0,1-.043.1.469.469,0,0,1-.475.233c-.014,0-.031,0-.047-.006a.4.4,0,0,1-.278-.2" transform="translate(-21.661 -26.69)" fill="#373635"/>
            <path id="パス_109402" data-name="パス 109402" d="M43.485,52.293A7.1,7.1,0,0,1,41.6,49.854a.91.91,0,0,0-.133-.163c-.474.109-.624.142-.909.024l.038-.355a.469.469,0,0,0,.475-.233.422.422,0,0,0,.043-.1.455.455,0,0,0,.266-.423.381.381,0,0,0-.01-.079l.394-.125a7.559,7.559,0,0,0,.872,1.862,6.2,6.2,0,0,0,.736.959,9.119,9.119,0,0,0,2.756,1.975,2.966,2.966,0,0,0,.417.179c1.358.393,1.448.44,2.636-.064a7.745,7.745,0,0,0,4.554-4.975c.061-.19.112-.382.158-.574l.222.049a.453.453,0,0,0,.114.474.472.472,0,0,0,.33.125.426.426,0,0,0,.154.074,1.287,1.287,0,0,0,.821-.49l.295.005a.8.8,0,0,0-.03.192.808.808,0,0,1-.156.342.837.837,0,0,1-.824.435c-.147-.014-.292-.044-.444-.068a.83.83,0,0,0-.137.181,8.837,8.837,0,0,1-1.68,2.683,1.008,1.008,0,0,0-.258.608c-.109,1.107-.238,2.21-.357,3.315a1.02,1.02,0,0,0,.013.2c.118.132.241.075.361.048a3.327,3.327,0,0,1,.366-.085c.48-.059.737.138.753.612.014.4-.02.808-.028,1.212,0,.147.006.295.01.465.321.149.643.29.956.445a34.747,34.747,0,0,1,4.641,2.857.992.992,0,0,1,.23.194.413.413,0,0,1,.055.1.445.445,0,0,0-.536.084.456.456,0,0,0-.115.233c-.122-.074-.24-.156-.357-.238a30.618,30.618,0,0,0-3.455-2.189c-.31-.164-.628-.325-.944-.48-.295-.143-.577-.3-.907-.034-.133.106-.382-.057-.391-.237a4.66,4.66,0,0,1,.028-.6c.026-.428.063-.855.084-1.285a1.9,1.9,0,0,0-.061-.374c-.282.049-.529.086-.775.137a9.931,9.931,0,0,1-3.614-.1c-1.119-.176-2.226-.427-3.335-.668a8.882,8.882,0,0,1-1.927-.715.5.5,0,0,0-.062-.295.933.933,0,0,0-.559-.471.329.329,0,0,1,.3-.11,1.433,1.433,0,0,1,.146.038.649.649,0,0,1,.137.056,13.608,13.608,0,0,0,4.474,1.325c.771.123,1.547.238,2.321.339a5,5,0,0,0,1.4-.017c.217-1.072.223-2.155.4-3.22-.285-.064-.413.121-.564.23a6.852,6.852,0,0,1-2.757,1.187,2.269,2.269,0,0,1-.6.009,6.215,6.215,0,0,1-2.484-.861c-.216-.122-.431-.238-.686-.377-.054.275-.094.5-.141.712-.021.1-.028.229-.091.282a.515.515,0,0,1-.334.116.1.1,0,0,1-.03-.006c-.072-.026-.172-.12-.172-.18q-.013-.564.027-1.13a.639.639,0,0,0-.229-.6" transform="translate(-22.347 -26.316)" fill="#373635"/>
            <path id="パス_109403" data-name="パス 109403" d="M44.379,18.765A11.307,11.307,0,0,0,41.06,24.35c-.14.562-.339,1.11-.458,1.675a2.816,2.816,0,0,0-.021.974c.172,1.1.38,2.189.57,3.283a7.365,7.365,0,0,0,.229.94l-.394.125a.472.472,0,0,0-.367-.366.458.458,0,0,0-.281-.093l-.2,0-.041,0-.081-.472a.237.237,0,0,0,.062-.009c.294-.091.352-.167.305-.426-.073-.4-.175-.788-.233-1.189-.106-.7-.2-1.4-.277-2.1a2.18,2.18,0,0,1,.125-.96c.194-.57.286-1.174.448-1.758a11.7,11.7,0,0,1,3.779-5.994,6.279,6.279,0,0,1,2.23-1.25,3.929,3.929,0,0,1,.89-.15.731.731,0,0,1,.411.15.314.314,0,0,1,.085.265c-.017.081-.115.148-.18.216a.1.1,0,0,1-.07.026,5.078,5.078,0,0,0-3.21,1.524" transform="translate(-21.963 -9.138)" fill="#373635"/>
            <path id="パス_109404" data-name="パス 109404" d="M35.759,229.638c-.143,2.471-.319,4.942-.415,7.414-.075,1.893-.053,3.79-.072,5.686-.016,1.466-.028,2.932-.058,4.4a4.013,4.013,0,0,1-.133.815.367.367,0,0,1-.162.239.564.564,0,0,1-.143.042.466.466,0,0,1-.207-.013c-.075-.021-.145-.142-.163-.228a.78.78,0,0,1,.037-.3,10.237,10.237,0,0,0,.148-1.886c0-2.173-.013-4.347.034-6.519.04-1.793.156-3.583.244-5.376.037-.757.088-1.514.136-2.271q.2-3.248.411-6.5c-.2.095-.192.312-.246.5-1.164,4.185-2.341,8.362-3.492,12.547-.957,3.48-1.884,6.968-2.834,10.45a1.7,1.7,0,0,1-.349.824l-.448-.006a2.5,2.5,0,0,1-.026-.432,3.518,3.518,0,0,1,.112-.517c1.507-5.5,3-11.007,4.524-16.5,1.152-4.159,2.34-8.306,3.519-12.458a7.683,7.683,0,0,0,.2-1.183c.079-.6.233-1.189.334-1.787.354-2.141.712-4.282,1.047-6.426.617-3.943,1.21-7.887,1.829-11.827.44-2.793.89-5.584,1.373-8.371.247-1.415.572-2.817.871-4.225a2.843,2.843,0,0,1,.223-.641.488.488,0,0,1,.272-.236.451.451,0,0,1,.336.082.291.291,0,0,1,.081.265,30.335,30.335,0,0,0-1.064,4.488c-.38,2.086-.715,4.18-1.053,6.274q-.579,3.55-1.131,7.1c-.254,1.646-.478,3.3-.727,4.946q-.558,3.669-1.131,7.335c-.138.872-.315,1.738-.474,2.609a1.206,1.206,0,0,0-.06.372,2.762,2.762,0,0,1-.208,1.254,13.93,13.93,0,0,0-.627,2.8,5.513,5.513,0,0,0-.055.6A41.02,41.02,0,0,1,35.9,227.6c-.053.682-.1,1.361-.139,2.043" transform="translate(-15.437 -101.853)" fill="#373635"/>
            <path id="パス_109405" data-name="パス 109405" d="M31.237,25a2.408,2.408,0,0,0,.537,1.571c-.02-.959-.037-1.781-.06-2.6,0-.022-.072-.041-.11-.062A1.616,1.616,0,0,0,31.237,25M33.3,17.507A12.813,12.813,0,0,1,35,14.914a9.341,9.341,0,0,1,2.691-2.182,3.5,3.5,0,0,1,1.618-.471c.066,0,.129,0,.194,0,.274.013.441.128.462.3.024.2-.152.365-.472.356a3.333,3.333,0,0,0-1.777.57,9.156,9.156,0,0,0-3.18,3.187,13.9,13.9,0,0,0-2.147,7.092,22.867,22.867,0,0,0,.18,3.479,1.05,1.05,0,0,0,.075.22c.055,0,.109.014.159.014l.081.472a.467.467,0,0,0-.4.392.4.4,0,0,0-.077.262.5.5,0,0,0,.272.428.4.4,0,0,0,.278.2l.047.006-.039.354a5.8,5.8,0,0,1-.527-.264c-.081.264-.149.528-.246.78a1.982,1.982,0,0,1-.255.459.374.374,0,0,1-.537.071.282.282,0,0,1-.088-.312.42.42,0,0,1,.05-.1,4.169,4.169,0,0,0,.482-1.66,3.534,3.534,0,0,0-.009-.634,1.766,1.766,0,0,0-.391.132c-.421.275-.847.55-1.252.851a4.023,4.023,0,0,0-1.139,1.4,5.364,5.364,0,0,0-.14,5.225c.177.334.326.682.5,1.021a2.883,2.883,0,0,1,.273,2.269,10.159,10.159,0,0,0,2.485-1.045,2.239,2.239,0,0,0,.108-1.613,6.829,6.829,0,0,0-.855-2.095c-.306-.52-.583-1.061-.866-1.6a3.293,3.293,0,0,1-.03-2.786.834.834,0,0,1,.154-.257c.19-.224.4-.194.709.114-.045.1-.091.207-.145.313a2.867,2.867,0,0,0-.162.381,2.436,2.436,0,0,0,.1,1.947c.22.453.454.9.716,1.334a7.735,7.735,0,0,1,1.208,3.472c0,.041.039.081.084.166a13.719,13.719,0,0,0,.357-1.883c.034-.306.174-.492.348-.5l0,.007a.462.462,0,0,0,.179.627.47.47,0,0,0,.16.054,17.565,17.565,0,0,1-.389,2.013c-.028.1-.064.2-.1.3s-.081.18-.119.262a30.041,30.041,0,0,0-4.31,1.882c-.484.238-.96.486-1.439.729a.484.484,0,0,0-.7-.353c-.133.071-.267.145-.4.226a.915.915,0,0,1,.281-.251c.274-.176.543-.365.83-.524a3.026,3.026,0,0,0,1-1.018,1.234,1.234,0,0,0,.194-1.011,4.887,4.887,0,0,0-.263-.787c-.193-.44-.4-.874-.618-1.3a6.235,6.235,0,0,1,1.125-6.83,6.458,6.458,0,0,1,.811-.679c.383-.286.78-.551,1.194-.839-.128-.237-.257-.449-.365-.672a3.121,3.121,0,0,1-.062-2.979.755.755,0,0,0,.074-.581,7.259,7.259,0,0,1,.066-3.672,13.279,13.279,0,0,1,2.865-5.7,7.153,7.153,0,0,1,3.908-2.313,11.181,11.181,0,0,1,2.566-.115c.05,0,.5.065.546.079a.855.855,0,0,1,.405.343l-.571-.041a.34.34,0,0,1-.294.3.893.893,0,0,1-.268.01c-.05,0-.088-.01-.108-.013a4.835,4.835,0,0,0-.783-.045,7.088,7.088,0,0,0-1.1.105,6.113,6.113,0,0,0-3.216,1.571,9.244,9.244,0,0,0-1.9,2.443,13.389,13.389,0,0,0-1.5,4.03,5.725,5.725,0,0,0,.048,2.735.68.68,0,0,0,.194-.527A14.261,14.261,0,0,1,33.3,17.507" transform="translate(-14.756 -6.2)" fill="#373635"/>
            <path id="パス_109406" data-name="パス 109406" d="M27.361,76.478c-.345.172-.567.138-.662-.07a.286.286,0,0,1,.02-.285c.129-.08.263-.154.4-.225a.484.484,0,0,1,.7.353l-.454.227" transform="translate(-14.695 -41.788)" fill="#373635"/>
            <path id="パス_109407" data-name="パス 109407" d="M25.155,77.871c.137.159.084.486-.113.5a1.324,1.324,0,0,0-.171.02.426.426,0,0,1-.009-.625c.02-.02.039-.039.058-.055a.55.55,0,0,1,.234.163" transform="translate(-13.626 -42.818)" fill="#373635"/>
            <path id="パス_109408" data-name="パス 109408" d="M24.721,143.863a.379.379,0,0,1-.532.087.317.317,0,0,1-.023-.468c.35-.489.71-.97,1.079-1.447a5.658,5.658,0,0,1,.55-.611.585.585,0,0,1,.55-.181c.1.027.181.135.282.213-.047.126-.055.255-.121.3a7.674,7.674,0,0,0-1.7,1.987,1.431,1.431,0,0,1-.091.119" transform="translate(-13.267 -77.817)" fill="#373635"/>
            <path id="パス_109409" data-name="パス 109409" d="M2.2,123.642c-.122-.008-.217-.085-.269-.254a2.164,2.164,0,0,1,.211-.29.4.4,0,0,1,.489-.109c-.027.107-.054.212-.082.32-.064.23-.189.343-.349.332" transform="translate(-1.065 -67.746)" fill="#373635"/>
            <path id="パス_109410" data-name="パス 109410" d="M2.648,298.825a1.017,1.017,0,0,0,.787.915,4.053,4.053,0,0,0,.965.142,30.975,30.975,0,0,0,3.928-.26c.5-.057,1-.1,1.5-.163a1.806,1.806,0,0,0,1.294-.535,1.668,1.668,0,0,0,.363-1.888,2.468,2.468,0,0,1-.1-.285c-.53-1.551-1.067-3.1-1.593-4.651a7.5,7.5,0,0,1-.353-3.656c.041-.251.062-.5.106-.749s.112-.515.176-.8a9.152,9.152,0,0,1-3.966-1.218c-.173.61-.312,1.115-.4,1.63a12.626,12.626,0,0,1-.687,2.395c-.138.353-.257.712-.393,1.065a6.6,6.6,0,0,0-.438,2.141,4.15,4.15,0,0,1-.284,1.325c-.282.754-.559,1.513-.822,2.276a2.023,2.023,0,0,0-.108.58c-.012.379,0,.756.009,1.131a5.644,5.644,0,0,0,.02.6m-.954,2.628a1.842,1.842,0,0,0,1.245,1.652,4.466,4.466,0,0,0,1.092.274,21.185,21.185,0,0,0,5.793-.3,2.664,2.664,0,0,0,1.876-1.164,3.382,3.382,0,0,0,.386-2.94.462.462,0,0,0-.107.015.37.37,0,0,0-.106.106,1.854,1.854,0,0,1-1.184.873,4.362,4.362,0,0,1-.809.184c-.774.094-1.551.179-2.326.247-.755.068-1.51.111-2.265.164a6.5,6.5,0,0,1-1.581-.05,1.956,1.956,0,0,1-1.652-1.152,1.722,1.722,0,0,0-.18-.247,7.3,7.3,0,0,0-.181,2.337m1.269,2.392a2.6,2.6,0,0,1-2-2.552,7.283,7.283,0,0,1,.345-2.765c.453-1.337.909-2.677,1.4-4a7.933,7.933,0,0,0,.484-2.209A6.376,6.376,0,0,1,3.4,291.2a6.787,6.787,0,0,1,.319-.931,27.061,27.061,0,0,0,1.29-4.583,3.107,3.107,0,0,0,.044-.362.95.95,0,0,0-.152-.194,1.528,1.528,0,0,1-.513-1.639c.123-.72.277-1.436.437-2.152C5.689,277.477,6.511,273.6,7.2,269.7c.431-2.461.844-4.925,1.255-7.393a44.564,44.564,0,0,1,1.673-6.986,19.665,19.665,0,0,1,1.513-3.464,1.394,1.394,0,0,1,.217-.308.31.31,0,0,1,.213-.081.417.417,0,0,1,.275.091.3.3,0,0,1,.057.408c-.26.49-.549.969-.777,1.473a30.351,30.351,0,0,0-2.151,7.084c-.516,2.779-.985,5.566-1.466,8.354q-.891,5.149-2,10.254-.424,1.961-.814,3.929c-.256,1.283-.193,1.385.95,2.052a8.567,8.567,0,0,0,3.139,1.03,22.85,22.85,0,0,0,3.852.027l.448.006c-.112.114-.084.363-.122.563a21.365,21.365,0,0,1-2.867.276,3.189,3.189,0,0,0-.474,1.747,7,7,0,0,0,.3,2.994q.836,2.436,1.662,4.872a.513.513,0,0,0,.051.143,1.659,1.659,0,0,1,.333.976,2.92,2.92,0,0,0,.2.648,5.5,5.5,0,0,1,.265,1.714,3.469,3.469,0,0,1-2.762,3.589,10.832,10.832,0,0,1-1.938.313c-1.235.076-2.475.108-3.712.1a5.63,5.63,0,0,1-1.56-.263" transform="translate(-0.524 -138.56)" fill="#373635"/>
            <path id="パス_109411" data-name="パス 109411" d="M1.31,126.795a.469.469,0,0,1-.334-.559.156.156,0,0,1,.007-.037v-.005a.74.74,0,0,1,.409-.425.3.3,0,0,1,.4.1.379.379,0,0,1,.023.342,2.119,2.119,0,0,0-.346.59.428.428,0,0,1-.16-.009" transform="translate(-0.534 -69.281)" fill="#373635"/>
            <path id="パス_109412" data-name="パス 109412" d="M1.876,98.431a1.235,1.235,0,0,1-.045-.353c.051-.189.125-.533.238-.867.418-1.216.841-2.433,1.276-3.642A80.487,80.487,0,0,1,6.92,85.3c.7-1.428,1.431-2.841,2.156-4.256a11.007,11.007,0,0,1,1.4-2.158,8.1,8.1,0,0,1,.974-.948,1.6,1.6,0,0,1,.615-.269.414.414,0,0,1,.24.01c-.02.017-.038.035-.058.055a.426.426,0,0,0,.009.625A2.253,2.253,0,0,0,10.947,79.4a11.707,11.707,0,0,0-1.089,1.637A93.854,93.854,0,0,0,2.785,97.256c-.081.254-.141.515-.208.777a.4.4,0,0,0-.489.109,2.187,2.187,0,0,0-.211.289" transform="translate(-1.009 -42.789)" fill="#373635"/>
            <path id="パス_109413" data-name="パス 109413" d="M9.753,102.31a13.723,13.723,0,0,0,2.064,1.564A1.224,1.224,0,0,0,12,103.7c.374-.539.742-1.081,1.123-1.642a19.379,19.379,0,0,0-.905-4.021c-.4.746-.738,1.47-1.153,2.147-.431.7-.87,1.4-1.317,2.124M34.332,110.9c-.228-.678-.44-1.3-.668-1.984a4.76,4.76,0,0,0-.715.971A3.227,3.227,0,0,0,32.309,111l.725-.016c.224-.006.451-.007.676-.018a1.455,1.455,0,0,0,.622-.071M34.1,97.764a2.593,2.593,0,0,1-.006.259c.573.386,1.153.779,1.9,1.286-.061-.631-.132-1.079-.142-1.527a2.208,2.208,0,0,0-.413-1.2c-.113-.167-.225-.336-.348-.5a34.667,34.667,0,0,0-3.651-3.844,1.305,1.305,0,0,0-1.469-.286,4.913,4.913,0,0,0-2.126,1.4,18.073,18.073,0,0,0-1.774,2.455,5.609,5.609,0,0,0-.4.812,1.675,1.675,0,0,0-.162,1.1,2.985,2.985,0,0,0,.255.169,1.593,1.593,0,0,0,.245.072c.077-.159.157-.313.233-.471a11.935,11.935,0,0,1,3.546-4.277,1.483,1.483,0,0,1,.465-.234.326.326,0,0,1,.383.177.294.294,0,0,1-.105.394c-.06.046-.129.08-.19.125a10.842,10.842,0,0,0-3.417,3.986,8.441,8.441,0,0,0-.39.984,2.429,2.429,0,0,0-.065.451l.781-.017A12.824,12.824,0,0,1,29.1,96.2a7.832,7.832,0,0,1,1.914-1.592,1.2,1.2,0,0,1,.567-.149.361.361,0,0,1,.274.205c.03.092-.058.224-.111.329-.018.037-.084.048-.131.071a8.555,8.555,0,0,0-3.518,3.852,1.508,1.508,0,0,0-.139.352c-.035.141-.092.295.068.426a.913.913,0,0,0,.617-.061c.333-.593.6-1.107.9-1.6a8.912,8.912,0,0,1,2.6-2.286.9.9,0,0,1,.505-.081.287.287,0,0,1,.2.182.755.755,0,0,1-.082.346c-.012.035-.087.041-.129.071-.557.391-1.136.754-1.663,1.184a4.862,4.862,0,0,0-1.448,2.006,1.539,1.539,0,0,0-.046.432,1.622,1.622,0,0,0,.949-.527c.387-.363.771-.729,1.164-1.088a4.457,4.457,0,0,1,1.348-.823,1.531,1.531,0,0,1,.815-.11c.2.031.311.168.336.425m9,14.607a6.365,6.365,0,0,1-5.066,1.261,7.272,7.272,0,0,1-1.772-.553,2.73,2.73,0,0,0-.074.384,7.4,7.4,0,0,0,.37,2.385c.361,1.21.723,2.419,1.066,3.634a14.976,14.976,0,0,1,.494,3.368c.125,2.524.239,5.049.249,7.578a42.5,42.5,0,0,1-.577,6.788c-.45,2.894-.929,5.783-1.41,8.672q-.758,4.557-1.545,9.111-.772,4.515-1.561,9.031c-.7,4-1.415,8-2.107,12.01-.436,2.537-.848,5.081-1.266,7.621q-.564,3.4-1.116,6.8c-.1.648-.181,1.3-.266,1.949-.043.3-.132.423-.33.418a.392.392,0,0,1-.217-.064.451.451,0,0,1-.158-.406,5.162,5.162,0,0,1,.071-.753c.257-1.519.525-3.036.777-4.556.349-2.09.679-4.186,1.031-6.279.371-2.214.757-4.428,1.14-6.642q.647-3.731,1.3-7.463.781-4.513,1.558-9.029.772-4.481,1.534-8.958c.441-2.614.883-5.229,1.3-7.848.334-2.094.664-4.19.924-6.294a33.224,33.224,0,0,0,.231-3.78c.013-1.819-.022-3.641-.113-5.457-.071-1.436-.111-2.878-.324-4.306a23.435,23.435,0,0,0-.77-3.082q-.368-1.276-.757-2.541a6.983,6.983,0,0,1-.216-1.953c0-.227,0-.455-.005-.682a1,1,0,0,0-.848-1,1.538,1.538,0,0,0-.3-.047c-.532,0-1.062.009-1.592.025-.352.012-.7.043-1.093.068-.95,1.4-1.9,2.792-2.857,4.206a7.109,7.109,0,0,0,1.391.656,8.612,8.612,0,0,1,1.007.518,1.223,1.223,0,0,1,.529,1.325.906.906,0,0,1-.919.836c-.174.016-.352.01-.574.014-.007.15-.021.316-.021.484,0,.739-.194.992-.9,1.187-.095.024-.193.038-.3.061-.222.971-1.012,1.015-1.813,1.106-.061.11-.125.242-.2.365a1.244,1.244,0,0,1-1.2.506,8.651,8.651,0,0,1-1.048-.154c-.172-.026-.343-.051-.513-.079a5.244,5.244,0,0,0-.693.919c-.318.414-.528.468-.959.181-1.012-.669-2.012-1.358-3.015-2.039q-2.856-1.937-5.708-3.873c-.207-.141-.418-.274-.634-.415-.075.065-.156.1-.18.157a52.919,52.919,0,0,0-2.81,8.313,22.856,22.856,0,0,0-.608,4.116c-.042.756-.082,1.513-.15,2.269a15.8,15.8,0,0,0,.061,3.179c.223,1.957.435,3.917.669,5.873.2,1.68.433,3.359.647,5.038.15,1.178.29,2.357.436,3.534.156,1.228.319,2.457.475,3.685.143,1.127.279,2.256.423,3.383.041.325.1.651.137.976a3.829,3.829,0,0,1,.065.677.432.432,0,0,1-.2.283.288.288,0,0,1-.309-.041.258.258,0,0,1-.079-.094,1.755,1.755,0,0,1-.142-.43c-.074-.474-.137-.95-.2-1.425q-.357-2.9-.712-5.794c-.206-1.68-.408-3.359-.62-5.039-.212-1.7-.441-3.407-.651-5.112-.157-1.28-.3-2.561-.444-3.84-.075-.678-.137-1.358-.2-2.037a32.792,32.792,0,0,1,.113-5.3,37.9,37.9,0,0,1,2.8-10.887c.172-.448.363-.89.533-1.336.074-.189.119-.383.184-.594a2.282,2.282,0,0,0-.272-.269c-.854-.585-1.715-1.162-2.568-1.751a.819.819,0,0,0-.708-.167,3,3,0,0,1-.3.037A2.258,2.258,0,0,1,6.5,114.23c-.317-.327-.608-.676-.9-1.025a64.541,64.541,0,0,1-4.879-6.66,9.112,9.112,0,0,1-.6-1.137,1.219,1.219,0,0,1-.068-.889c.117-.384.252-.765.4-1.139a.155.155,0,0,0-.007.037.469.469,0,0,0,.334.559.429.429,0,0,0,.16.009c-.047.114-.088.231-.127.349a1.4,1.4,0,0,0,.085,1.17c.135.244.259.492.412.725a58.013,58.013,0,0,0,5.154,6.926,8.1,8.1,0,0,0,.681.712,1.513,1.513,0,0,0,1.536.4,4.371,4.371,0,0,0,.444-.089,1.443,1.443,0,0,1,1.435.19c.834.524,1.664,1.055,2.495,1.584.124.078.25.16.411.265a34.139,34.139,0,0,1,3.262-3.776c-.275-.288-.533-.56-.8-.829-.422-.434-.85-.865-1.273-1.3a1.563,1.563,0,0,1-.486-1.444c.037-.2.031-.4.057-.6a2.258,2.258,0,0,0-.558-1.826,3.593,3.593,0,0,0-.48-.484q-1.775-1.425-3.558-2.833a3.364,3.364,0,0,0-.535-.273.39.39,0,0,1-.193-.509,2.837,2.837,0,0,1,.267-.455,35.823,35.823,0,0,0,4.01-7.8,16.448,16.448,0,0,0,.957-3.342,6.3,6.3,0,0,0-.149-2.627,12.8,12.8,0,0,0-.761-2.219,1.08,1.08,0,0,1-.136-.422.457.457,0,0,1,.169-.3.294.294,0,0,1,.4.078,1.122,1.122,0,0,1,.114.2,13.855,13.855,0,0,1,1.017,3.244,7.471,7.471,0,0,1-.16,3.081,28.041,28.041,0,0,1-1.522,4.275c-.14.326-.284.648-.441,1.012a2.156,2.156,0,0,1,.41,1.087c.14.821.313,1.637.476,2.456.029.141.084.278.136.448.314-.149.409-.427.555-.644q3.354-4.919,6.689-9.843c.129-.19.252-.38.4-.557a.521.521,0,0,1,.675-.162,4.355,4.355,0,0,1,.512.32q1.914,1.3,3.825,2.6c.21.142.418.279.664.44a3.98,3.98,0,0,0,.322-.3,5.679,5.679,0,0,1,2.658-1.668,1.727,1.727,0,0,1,1.585.23,2.9,2.9,0,0,1,.419.326c1.008,1.03,2.025,2.049,3.009,3.1.393.421.7.922,1.057,1.382.056.074.128.137.261.278.092-.661.181-1.224.25-1.789a20.144,20.144,0,0,0,.285-4c-.083-.981-.165-1.964-.289-2.941-.114-.926-.291-1.844-.43-2.769a1.371,1.371,0,0,1,0-.522.361.361,0,0,1,.262-.208.372.372,0,0,1,.3.163,1.812,1.812,0,0,1,.128.511c.285,1.848.587,3.694.7,5.563a15,15,0,0,1-.136,3.1c-.183,1.248-.3,2.508-.52,3.749a5.767,5.767,0,0,0-.154,2.082,2.282,2.282,0,0,1,.009.282c.169.126.364.279.567.421.26.183.526.352.784.536.071.047.143.1.215.15.378.281.408.493.155.906-.1.172-.222.334-.337.5q-1.727,2.542-3.452,5.079c-.155.231-.305.462-.447.679.108.409.22.793.312,1.179a4.752,4.752,0,0,0,1.442,2.517c.037.033.088.06.11.1a2.432,2.432,0,0,0,1.91,1.076,5.955,5.955,0,0,0,2.924-.154,5.712,5.712,0,0,0,3.83-3.882,5.027,5.027,0,0,0,.129-2.25,16.747,16.747,0,0,0-1.347-4.512.453.453,0,0,0,0-.281c-.075-.26-.183-.506-.277-.759a.387.387,0,0,1,.1-.077.269.269,0,0,1,.347.031,1.845,1.845,0,0,1,.286.437,18.259,18.259,0,0,1,1.394,4.153,11.681,11.681,0,0,1,.2,1.347,5.869,5.869,0,0,1-2.465,5.4m-23.168,1.193a7.237,7.237,0,0,0,.729-.537,3.074,3.074,0,0,1,.968-.576c1-.356,1.991-.725,2.992-1.066a3.37,3.37,0,0,1,1.025-.23q1.629-.015,3.255.066a.82.82,0,0,1,.726,1.093,1.042,1.042,0,0,1-.16.34,1.07,1.07,0,0,1-.48.359c-.3.119-.616.221-.932.311-.459.13-.93.229-1.389.364a1.273,1.273,0,0,0-.9.7,7.659,7.659,0,0,0,2.414,1.341c.1-.126.211-.258.307-.4q.779-1.142,1.551-2.283,3.805-5.593,7.6-11.19a4.974,4.974,0,0,0,.251-.472c-.214-.152-.394-.288-.58-.415q-1.6-1.087-3.2-2.17c-.206-.143-.43-.269-.622-.43a.6.6,0,0,0-.827-.011c-.285.206-.58.405-.844.634-.345.3-.652.638-1,.929a4.883,4.883,0,0,1-.81.549.907.907,0,0,1-.943.023.825.825,0,0,0-.7-.074.992.992,0,0,1-1.122-.427.772.772,0,0,0-.18-.142,4.436,4.436,0,0,1-.529.007.746.746,0,0,1-.764-.774c-.017-.173-.009-.346-.013-.518-.1-.022-.176-.035-.249-.053a.987.987,0,0,1-.74-1.215,4.466,4.466,0,0,1,.449-1.356c.284-.478.581-.947.879-1.415.162-.252.339-.5.525-.767A15.879,15.879,0,0,0,25,92.609c-.519-.359-1.037-.719-1.567-1.064a11.551,11.551,0,0,0-1.681-1.069l-9.41,13.853c.3.255.528.454.757.65.288.246.586.482.859.743a2.969,2.969,0,0,1,.978,2.446,6.3,6.3,0,0,1-.064.753.9.9,0,0,0,.242.838c.167.187.341.37.515.55a24.649,24.649,0,0,1,1.778,1.865,7.452,7.452,0,0,0,1.6,1.366.769.769,0,0,0,.922.025m-5.965,3.75q4.349,2.959,8.7,5.913a2.144,2.144,0,0,0,.342.149l.539-.777c-.24-.11-.4-.179-.556-.26a11.831,11.831,0,0,1-1.327-.713c-1.385-.968-2.751-1.963-4.119-2.956-.9-.654-1.781-1.326-2.676-1.984a5.684,5.684,0,0,0-.57-.33l-.6.753c.067.054.162.136.264.206m6.995-3.627a4.426,4.426,0,0,1-.744.518,1.391,1.391,0,0,1-1.57-.07c-.25-.172-.493-.35-.739-.528s-.485-.348-.713-.512a17.825,17.825,0,0,0-2.459,2.62c.105.089.178.157.256.213.493.353.992.7,1.481,1.056q2.625,1.927,5.243,3.858a8.525,8.525,0,0,0,3.607,1.474,3.449,3.449,0,0,0,.828,0c.185-.013.265-.185.216-.392-.012-.048-.051-.092-.061-.139-.068-.313.091-.492.4-.468.349.03.7.064,1.048.069a.506.506,0,0,0,.489-.319,2.91,2.91,0,0,1-.22-.308.364.364,0,0,1,.321-.579c.149,0,.3.06.447.075.2.02.392.022.6.032a1.231,1.231,0,0,0,.11-.315c.007-.387-.026-.754-.453-.95a.26.26,0,0,1-.113-.387.447.447,0,0,1,.3-.177,5.644,5.644,0,0,1,.751.06c.226.023.45.065.674.079.377.027.469-.3.346-.569a.969.969,0,0,0-.348-.381,5.6,5.6,0,0,0-.812-.4,35.9,35.9,0,0,1-3.7-1.73,4.666,4.666,0,0,1-.811-.546.756.756,0,0,1-.072-1.193,2.221,2.221,0,0,1,1.049-.714c.39-.106.779-.207,1.167-.318s.773-.222,1.155-.349c.172-.057.315-.164.288-.384a.8.8,0,0,0-.639-.17c-.782-.009-1.564-.01-2.347-.012a3.527,3.527,0,0,0-1.256.236c-.826.31-1.65.625-2.482.909a3.469,3.469,0,0,0-1.238.7" transform="translate(0 -46.462)" fill="#373635"/>
            <path id="パス_109414" data-name="パス 109414" d="M49.956,38.158a.4.4,0,1,1-.4-.429.416.416,0,0,1,.4.429" transform="translate(-27.083 -20.789)" fill="#373635"/>
            <path id="パス_109415" data-name="パス 109415" d="M62.688,38.158a.4.4,0,1,1-.4-.429.416.416,0,0,1,.4.429" transform="translate(-34.098 -20.789)" fill="#373635"/>
            <path id="パス_109416" data-name="パス 109416" d="M53.453,52.909c-.093,0-.187,0-.282-.009a3.167,3.167,0,0,1-2.409-1.088.365.365,0,1,1,.6-.414,2.531,2.531,0,0,0,1.85.772,2.8,2.8,0,0,0,2.309-.807.366.366,0,0,1,.548.484,3.433,3.433,0,0,1-2.619,1.062" transform="translate(-27.935 -28.233)" fill="#373635"/>
          </g>
        </g>
      </g>
    </g>
  </g>
</svg>
