<svg xmlns="http://www.w3.org/2000/svg" xmlns:xlink="http://www.w3.org/1999/xlink" width="136" height="116" viewBox="0 0 136 116">
  <defs>
    <clipPath id="clip-path">
      <rect id="長方形_9063" data-name="長方形 9063" width="136" height="116" transform="translate(864 6127)" fill="none"/>
    </clipPath>
    <clipPath id="clip-path-2">
      <rect id="長方形_8772" data-name="長方形 8772" width="113.984" height="78.642" fill="none"/>
    </clipPath>
  </defs>
  <g id="マスクグループ_125" data-name="マスクグループ 125" transform="translate(-864 -6127)" clip-path="url(#clip-path)">
    <g id="グループ_18898" data-name="グループ 18898" transform="translate(872.751 6145.679)">
      <g id="グループ_17879" data-name="グループ 17879" transform="translate(0)" clip-path="url(#clip-path-2)">
        <path id="パス_26857" data-name="パス 26857" d="M289.133,193.842c.011-.147.013-.28.016-.32a8.21,8.21,0,0,0,.027-.916,1.358,1.358,0,0,0-.112-.622.052.052,0,0,1,.09-.053,2.115,2.115,0,0,1,.126,1.082q-.013.409-.053.816a.291.291,0,0,1-.061.011h-.034" transform="translate(-175.544 -116.545)" fill="#373635"/>
        <path id="パス_26858" data-name="パス 26858" d="M279,154.607c.234.416.477.829.694,1.254a28.817,28.817,0,0,1,1.815,4.173,29.688,29.688,0,0,1,1.231,5.185,22.556,22.556,0,0,1,.175,3.293c-.007.636-.025,1.274-.04,1.91a1.623,1.623,0,0,1-.019.258.34.34,0,0,1-.238.261q.04-.407.053-.816a2.119,2.119,0,0,0-.126-1.082.053.053,0,0,0-.091.053,1.354,1.354,0,0,1,.112.621,8.4,8.4,0,0,1-.028.916c0,.04-.005.173-.016.32a.342.342,0,0,1-.3-.228,1.223,1.223,0,0,1-.039-.341c0-.392.011-.782.025-1.173a25.3,25.3,0,0,0-.141-3.814,22.992,22.992,0,0,0-.549-2.853,25.725,25.725,0,0,0-1.879-5.261,20.308,20.308,0,0,0-1.036-2c-.07-.11-.133-.223-.21-.328-.231-.312-.235-.314-.213-.642a2.87,2.87,0,0,1,.257.525c.022.064.125.037.1-.027a3.059,3.059,0,0,0-.256-.531l.1-.058a.6.6,0,0,1,.62.387" transform="translate(-168.934 -93.656)" fill="#373635"/>
        <path id="パス_26859" data-name="パス 26859" d="M210.095,141.66l-.013.04c.005-.008.015-.016.016-.024a.074.074,0,0,0,0-.016m2.08,18.488a1.274,1.274,0,0,1-.042-.168q-.624-2.617-1.248-5.233c-.111-.464-.216-.93-.324-1.395-.009-.042-.023-.084-.032-.126-.088-.428-.022-.531.4-.643a.7.7,0,0,0,.087-.038,2.13,2.13,0,0,0-.322-1.477c-.373-.569-.723-1.153-1.1-1.721q-1.011-1.542-2.039-3.074a8.948,8.948,0,0,0-.562-.717c-.591-.714-1.188-1.423-1.779-2.135a2.354,2.354,0,0,1-.48-.818,2.514,2.514,0,0,1-.107-.463,1.016,1.016,0,0,1,1.313-1.059,1.541,1.541,0,0,1,.525.294c.193.174.38.357.561.544.16.165.308.344.463.519.087-.068.024-.13,0-.184-.287-.633-.576-1.263-.864-1.9A6.051,6.051,0,0,1,206.2,139a1.406,1.406,0,0,1,.043-.728.78.78,0,0,1,.9-.575,1.175,1.175,0,0,1,.844.477,5.067,5.067,0,0,1,.323.514q.737,1.3,1.47,2.609c.064.113.13.226.2.333.015.021.073.011.11.017a.048.048,0,0,0,.006.015l0-.011c-.244-.832-.5-1.661-.726-2.5-.123-.445-.218-.9-.308-1.353a3.889,3.889,0,0,1-.077-.732.953.953,0,0,1,.97-.959.616.616,0,0,1,.292.068,1.628,1.628,0,0,1,.8.765c.188.454.366.912.545,1.369a1.393,1.393,0,0,0,.187.39c0-.093.007-.185.005-.278,0-.334-.016-.666-.017-1a2.884,2.884,0,0,1,.181-1.02,1.022,1.022,0,0,1,.784-.732.376.376,0,0,0,.081-.028.181.181,0,0,0,.036-.027c.057-.146.11-.295.173-.438a1.215,1.215,0,0,1,.137-.221.67.67,0,0,1,1.137-.08,3.359,3.359,0,0,1,.682,1.05c.137.335.247.679.368,1.019.034.094.065.189.1.282.112,0,.063-.082.073-.126a.521.521,0,0,0,0-.129,3.821,3.821,0,0,1,.1-1.163,1.774,1.774,0,0,1,.206-.473.7.7,0,0,1,.918-.25,1.437,1.437,0,0,1,.84.99,8.258,8.258,0,0,1,.289,1.665c.057.953.1,1.907.154,2.861,0,.072.007.145.011.216a.525.525,0,0,0,.291.495,1.281,1.281,0,0,1,.186.141l.216.478a3.9,3.9,0,0,1-.2,1.9c-.034.111-.076.218-.114.327-.225.642-.458,1.279-.669,1.924a8.662,8.662,0,0,0-.242.965c-.068.325-.118.654-.164.984a3.817,3.817,0,0,1-.56,1.58c-.141.218-.278.44-.415.661-.075.121-.144.245-.253.428a1.277,1.277,0,0,0,.8-.344.392.392,0,0,1,.568.066q-.176.068-.351.138a.056.056,0,0,0,0,.1l-.173.593a1.854,1.854,0,0,0-.275.053c-.835.285-1.665.579-2.5.862-.739.251-1.483.489-2.222.74-.231.079-.453.186-.649.267a.554.554,0,0,0-.014.457q.424,2.018.971,4.005c.187.683.345,1.374.512,2.062a1.455,1.455,0,0,1,.045.343.364.364,0,0,1-.011.086l-.172.007c.026-.033.014-.091-.037-.084-.148.019-.269.1-.422.105l-.009,0a.076.076,0,0,1-.007-.015m5.834-17.029a2.2,2.2,0,0,0,.037-.948c-.021-.11-.048-.227-.178-.271a.638.638,0,0,0-.388.329,8.169,8.169,0,0,0-.489.867c-.2.447-.386.9-.558,1.365a3.188,3.188,0,0,0-.311.987.429.429,0,0,1-.69.212.891.891,0,0,1-.179-.291,4.3,4.3,0,0,1-.155-.541c-.177-.76-.349-1.522-.525-2.283-.346-1.508-.689-3.017-1.044-4.523-.086-.364-.207-.722-.326-1.079a.846.846,0,0,0-.412-.532.528.528,0,0,0-.108.089.554.554,0,0,0-.1.19,4.057,4.057,0,0,0-.145.807,11.13,11.13,0,0,0,.078,1.6c.151,1.073.344,2.141.528,3.21a5.51,5.51,0,0,0,.159.585,3.352,3.352,0,0,1,.1.331.339.339,0,0,1-.192.357.31.31,0,0,1-.39-.1,1.162,1.162,0,0,1-.266-.489,5.4,5.4,0,0,0-.2-.662c-.1-.3-.223-.6-.326-.9-.323-.944-.635-1.891-.964-2.834-.152-.436-.329-.864-.5-1.293a.83.83,0,0,0-.408-.433.23.23,0,0,0-.357.217,3.214,3.214,0,0,0,.056.56c.21,1.05.489,2.083.787,3.111s.571,2.033.852,3.05a1.583,1.583,0,0,1,.073.424.42.42,0,0,1-.28.4.361.361,0,0,1-.439-.189c-.049-.071-.089-.15-.131-.226-.19-.341-.378-.683-.569-1.024q-1.123-2.007-2.248-4.013a5.6,5.6,0,0,0-.348-.55.475.475,0,0,0-.488-.222.633.633,0,0,0-.073.54,5.694,5.694,0,0,0,.44,1.313q.991,2.125,1.977,4.25a3.013,3.013,0,0,1,.139.317.373.373,0,0,1-.129.463.378.378,0,0,1-.507-.079c-.109-.116-.2-.245-.3-.368-.611-.752-1.218-1.508-1.834-2.258a7.313,7.313,0,0,0-.54-.564,1.456,1.456,0,0,0-.312-.231.3.3,0,0,0-.329-.016.34.34,0,0,0-.158.375,1.826,1.826,0,0,0,.154.448,3.266,3.266,0,0,0,.349.495c.585.7,1.176,1.393,1.762,2.093a8.728,8.728,0,0,1,.564.714q1.112,1.658,2.2,3.33c.332.509.648,1.028.961,1.548a2.35,2.35,0,0,1,.4,1.311.616.616,0,0,0,.042.153c.648-.155,1.265-.4,1.894-.6a17.257,17.257,0,0,0,1.886-.7.7.7,0,0,1,.086-.825c.2-.305.392-.608.586-.913a3.037,3.037,0,0,0,.432-1.217c.033-.229.074-.457.108-.686a9.1,9.1,0,0,1,.448-1.764c.189-.516.373-1.033.548-1.555.1-.287.18-.58.251-.875m-.616-1.827c-.018-.174-.039-.318-.046-.461-.026-.564-.042-1.127-.071-1.69-.026-.52-.043-1.042-.106-1.557a12.363,12.363,0,0,0-.253-1.274.69.69,0,0,0-.5-.564.678.678,0,0,0-.1.183,3.693,3.693,0,0,0-.1.683c0,.65.022,1.3.049,1.95.035.794.084,1.587.124,2.382a1.512,1.512,0,0,1-.008.345.327.327,0,0,1-.5.232.7.7,0,0,1-.364-.462c-.025-.141-.051-.284-.077-.426-.146-.781-.28-1.564-.441-2.342a11.057,11.057,0,0,0-.507-1.746,3.637,3.637,0,0,0-.569-1.017,1.66,1.66,0,0,0-.194-.171l-.332.576a2.538,2.538,0,0,1,.587,1.158c.027.1.058.194.08.292q.474,2.049.942,4.1c.2.873.4,1.746.6,2.619.015.064.005.149.125.185a1.272,1.272,0,0,0,.094-.166c.111-.267.215-.536.325-.8a5.049,5.049,0,0,1,1.241-2.023" transform="translate(-124.272 -81.739)" fill="#373635"/>
        <path id="パス_26860" data-name="パス 26860" d="M224.5,199.506a.318.318,0,0,1-.048.106c-.177.007-.353.016-.531.026a.383.383,0,0,1-.062-.1l.009,0c.153-.01.275-.086.422-.105.051-.007.062.051.037.084.057,0,.115-.006.172-.007" transform="translate(-135.951 -121.113)" fill="#373635"/>
        <path id="パス_26861" data-name="パス 26861" d="M255.476,110.058a8.515,8.515,0,0,1,.334,4.111,5.248,5.248,0,0,1-.569,1.586,12.886,12.886,0,0,1-1.33,1.979c-.4.511-.816,1.016-1.219,1.526-.126.159-.23.333-.355.493a.673.673,0,0,0-.1.669c.091,0,.174,0,.256,0a.387.387,0,0,1,.423.35c.118.507.229,1.015.346,1.523.058.253.117.508.188.758a.93.93,0,0,1,.028.744l-.1.058c-.087-.147-.182-.289-.277-.432a.056.056,0,0,0-.1.015l-.417-.108a1.3,1.3,0,0,0,.183-.128c-.16-.67-.318-1.325-.5-1.984a1.447,1.447,0,0,0-.2.022c-.462.115-.926.227-1.387.351a29.712,29.712,0,0,0-6.736,2.906l-.31-.552.178-.092a4.1,4.1,0,0,0-.193-.9c-.061-.282-.137-.56-.212-.86-.092-.012-.19-.031-.288-.037-.823-.053-1.646-.1-2.469-.16a3.1,3.1,0,0,1-.677-.136.811.811,0,0,1-.165-.071.692.692,0,0,1-.35-.6c-.052-.823-.114-1.645-.175-2.469-.046-.62-.111-1.24-.138-1.861a.825.825,0,0,0-.323-.624c-.411-.364-.808-.745-1.207-1.124a2.448,2.448,0,0,1-.319-.353.568.568,0,0,1,.055-.786,1.979,1.979,0,0,1,.37-.3c.552-.344,1.111-.679,1.668-1.016.123-.075.251-.141.393-.22.094-.4.189-.812.283-1.219a11.8,11.8,0,0,1,.749-2.306,6.124,6.124,0,0,1,.855-1.3.364.364,0,0,1,.328-.126.375.375,0,0,1,.107.029c.17.071.321.244.275.4a.907.907,0,0,0,.11.622,3.674,3.674,0,0,0,.529.944,1.629,1.629,0,0,0,.154.143c.038-.2.069-.347.1-.5a2.352,2.352,0,0,0,.053-.343c.005-.477.321-.674.714-.8a.355.355,0,0,1,.436.192,6.984,6.984,0,0,0,1.41,2.063c.43.47.845.952,1.266,1.43a2.394,2.394,0,0,1,.571,1.106,2.362,2.362,0,0,0,.1.3c.128-.04.237-.071.343-.11a1.913,1.913,0,0,1,.944-.069,1.587,1.587,0,0,1,1.05.709,2.484,2.484,0,0,1,.375,1.989,2.729,2.729,0,0,1-.75,1.44c-.06.062-.113.128-.184.209.314.763.569,1.544.888,2.312a3.492,3.492,0,0,0,1.178-.154.448.448,0,0,0,.2-.147c.584-.719,1.172-1.434,1.737-2.169a15.084,15.084,0,0,0,.88-1.29,4.751,4.751,0,0,0,.712-2.339,9.272,9.272,0,0,0-.282-2.8A3.274,3.274,0,0,0,253.7,108.7a2.83,2.83,0,0,0-.819-.556.251.251,0,0,1-.153-.287,1.612,1.612,0,0,0-.6-1.42,4.38,4.38,0,0,0-1.329-.963c-.25-.112-.5-.224-.75-.341a3.353,3.353,0,0,0-1.387-.311,9.29,9.29,0,0,0-3.254.43,8.437,8.437,0,0,0-3.051,1.78,1.264,1.264,0,0,1-.129.114.353.353,0,0,1-.2.068.323.323,0,0,1-.2-.074.337.337,0,0,1-.1-.393.745.745,0,0,1,.141-.218,3.371,3.371,0,0,1,.383-.35,9.482,9.482,0,0,1,4.059-1.871,10.279,10.279,0,0,1,2.895-.143,2.427,2.427,0,0,1,.552.109,7.173,7.173,0,0,1,2.676,1.477,3.354,3.354,0,0,1,.794,1.021,2.165,2.165,0,0,1,.189.574.639.639,0,0,0,.261.428c.167.139.33.281.5.418a3.913,3.913,0,0,1,1.3,1.863M251.538,120.6c-.034-.164-.068-.33-.107-.517-.1.005-.188.007-.271.015-.2.016-.4.048-.6.048a.728.728,0,0,1-.719-.464c-.084-.2-.147-.408-.222-.61-.159-.434-.319-.867-.483-1.3a1.692,1.692,0,0,0-.133-.233,2.927,2.927,0,0,1-.3.09.345.345,0,0,1-.422-.215.355.355,0,0,1,.2-.433c.062-.037.131-.06.2-.093a2.152,2.152,0,0,0,1.23-2.2,1.6,1.6,0,0,0-.252-.73.991.991,0,0,0-1.189-.481.34.34,0,0,0-.308.262.344.344,0,0,1-.264.26.971.971,0,0,0-.231.112.341.341,0,0,1-.525-.3c-.006-.144,0-.289,0-.433a2.163,2.163,0,0,0-.5-1.357c-.3-.351-.591-.714-.9-1.054A15.228,15.228,0,0,1,244.17,109c-.039-.06-.07-.13-.187-.11-.052.393-.106.792-.158,1.191a2.205,2.205,0,0,1-.034.3,2.246,2.246,0,0,1-.133.3c.112.2.23.379.321.574a.342.342,0,0,1-.137.485.356.356,0,0,1-.477-.171c-.057-.084-.1-.174-.158-.26a.74.74,0,0,0-.818-.354c-.071.013-.138.039-.209.054-.288.062-.475-.016-.535-.221s.064-.38.345-.456a3.165,3.165,0,0,1,.424-.079c.109-.015.221-.015.35-.023a.655.655,0,0,0-.051-.146,6.886,6.886,0,0,1-.83-1.42c-.019-.044-.07-.075-.124-.133-.086.152-.165.272-.228.4a7.374,7.374,0,0,0-.595,1.579c-.15.633-.3,1.266-.434,1.9a.786.786,0,0,1-.477.617,11.243,11.243,0,0,0-1.792,1.054c-.092.063-.175.139-.289.232.115.118.209.225.312.321.412.385.822.772,1.243,1.149a.816.816,0,0,1,.285.516c.021.152.061.3.1.462h.547c.535,0,1.07-.007,1.6-.008.321,0,.474.158.468.485a1.336,1.336,0,0,1-.046.342,10.061,10.061,0,0,1-.325,1.032,2.633,2.633,0,0,1-2,1.752,2.936,2.936,0,0,0,.069.682,1.231,1.231,0,0,0,.592.154l1.645.091c.346.018.693.033,1.039.056.1.006.23.006.289.066.166.172.375.338.378.607a5.129,5.129,0,0,0,.277,1.266,1.2,1.2,0,0,0,.106.2c.161-.077.3-.143.445-.212.57-.284,1.131-.584,1.707-.851a30.172,30.172,0,0,1,4.469-1.648.719.719,0,0,0,.4-.179m-11.456-.967a2.293,2.293,0,0,0,1.631-2.125,3.119,3.119,0,0,0-.922-.053,2.751,2.751,0,0,0-.913.083c.019.355.016.7.062,1.044a3.341,3.341,0,0,0,.143,1.05" transform="translate(-144.033 -63.232)" fill="#373635"/>
        <path id="パス_26862" data-name="パス 26862" d="M281.258,186.244c-.006.035-.018.106-.031.176q-.293,1.531-.588,3.061a1.654,1.654,0,0,1-.077.292.381.381,0,0,1-.5.223.359.359,0,0,1-.207-.46q.274-1.268.54-2.54c.051-.24.1-.48.148-.721a1.415,1.415,0,0,1,.053-.209.34.34,0,0,1,.415-.223.366.366,0,0,1,.248.4" transform="translate(-169.947 -112.855)" fill="#373635"/>
        <path id="パス_26863" data-name="パス 26863" d="M267.106,166.815a.333.333,0,0,1-.144.376.329.329,0,0,1-.4-.038,1.507,1.507,0,0,1-.2-.284c-.208-.364-.422-.726-.613-1.1a2.176,2.176,0,0,0-.747-.826,3.74,3.74,0,0,0-2.888-.617,2.507,2.507,0,0,0-.646.244,3.856,3.856,0,0,0-1.961,2.216,18.267,18.267,0,0,0-.593,2.4q-.551,2.7-1.1,5.4c-.105.525-.2,1.051-.31,1.575a1.719,1.719,0,0,1-.114.372.336.336,0,0,1-.395.191.38.38,0,0,1-.259-.394c.011-.054.027-.138.047-.223.248-1.116.493-2.231.745-3.344.315-1.383.593-2.772.844-4.167a12.793,12.793,0,0,1,.513-2.06,4.511,4.511,0,0,1,2.866-2.821,2.561,2.561,0,0,1,.983-.142,5.7,5.7,0,0,1,1.576.273,4.372,4.372,0,0,1,1.543.946,1.335,1.335,0,0,1,.243.3c.309.506.612,1.016.916,1.525a.979.979,0,0,1,.089.2" transform="translate(-155.92 -99.334)" fill="#373635"/>
        <path id="パス_26864" data-name="パス 26864" d="M278.13,154.2c.023.064-.079.092-.1.027a2.907,2.907,0,0,0-.258-.526.018.018,0,0,0,0-.008.025.025,0,0,0-.009,0c-.081-.135-.17-.268-.257-.4a.05.05,0,0,1-.009-.038.056.056,0,0,1,.1-.015c.1.143.19.285.276.432a3.04,3.04,0,0,1,.256.531" transform="translate(-168.524 -93.044)" fill="#373635"/>
        <path id="パス_26865" data-name="パス 26865" d="M252.586,151.723c-.118-.058-.213.017-.315.062a21.249,21.249,0,0,0-4.546,2.77c-.93.737-1.844,1.494-2.766,2.242-.191.154-.383.307-.578.457a2.125,2.125,0,0,1-.29.191.489.489,0,0,1-.747-.256c-.056-.117-.1-.242-.143-.363q-.6-1.51-1.208-3.022c-.059-.146-.129-.289-.2-.457-.127.064-.112.208-.2.27a2.032,2.032,0,0,0-.249.169.749.749,0,0,0-.151.258c-.121.325-.24.651-.345.982-.378,1.2-.643,2.433-.944,3.654-.149.6-.308,1.205-.455,1.81-.041.167-.056.34-.084.51a.471.471,0,0,1-.027.169,3.849,3.849,0,0,0-.349,1.156c-.148.589-.267,1.185-.408,1.776a1.075,1.075,0,0,0,.07.713c.361.836.7,1.682,1.045,2.526a2.649,2.649,0,0,1,.15.452.556.556,0,0,1-.02.295.339.339,0,0,1-.595.086.44.44,0,0,1-.081-.151,22.461,22.461,0,0,0-1.094-2.877c-.626-1.478-1.288-2.941-1.936-4.41a1.424,1.424,0,0,0-.081-.137l.173-.593a.045.045,0,0,0,.028,0q.182-.073.364-.143a.348.348,0,0,1,.008.075,1.846,1.846,0,0,0,.21.745c.363.835.737,1.665,1.108,2.5a.79.79,0,0,0,.1.138.366.366,0,0,0,.057-.084q.253-1.031.5-2.062a.553.553,0,0,0-.065-.374c-.153-.328-.3-.659-.447-.988-.04-.089-.093-.173-.142-.262-.09,0-.161,0-.232.012-.114.016-.227.046-.342.057a.493.493,0,0,1-.113,0,1.662,1.662,0,0,1,.452-.135c.068-.006.068-.112,0-.106a2.315,2.315,0,0,0-.529.163l-.076.027a.32.32,0,0,1-.136-.142.353.353,0,0,1,.1-.428,1.5,1.5,0,0,1,.151-.118,1.39,1.39,0,0,1,.035-.919,6.2,6.2,0,0,1,.239-.6,7.942,7.942,0,0,0,.513-1.515c.2-.829.4-1.657.6-2.485.156-.646.315-1.291.462-1.939a2.325,2.325,0,0,0,.044-.515.185.185,0,0,0-.268-.185,2.5,2.5,0,0,0-.455.24c-.1.061-.161.172-.258.228a1.349,1.349,0,0,1-.325.1l-.216-.478c.09-.1.17-.2.258-.291a1.663,1.663,0,0,1,1.023-.521.887.887,0,0,1,.2,0,.811.811,0,0,1,.748.789,2.984,2.984,0,0,1-.068.817c-.271,1.155-.564,2.3-.847,3.455-.039.154-.082.307-.118.462a11.691,11.691,0,0,1-.738,2.265,2.21,2.21,0,0,0-.2.993,1.767,1.767,0,0,0,.212,0,.427.427,0,0,1,.47.3c.074.173.148.345.225.517.035.076.076.15.143.282.056-.172.1-.286.131-.4.32-1.292.629-2.586.959-3.874.136-.532.311-1.053.477-1.577a2.927,2.927,0,0,1,.185-.439.8.8,0,0,1,.872-.51,1.038,1.038,0,0,1,.092-.282,1.177,1.177,0,0,1,.228-.186c.033-.026.074-.057.084-.093.076-.254.293-.342.5-.443.175-.084.347-.174.523-.265l.31.552q-.195.108-.388.218a4.4,4.4,0,0,0-.5.38,25.01,25.01,0,0,0,1.568,3.745,1.4,1.4,0,0,0,.463-.3q1.107-.875,2.207-1.755a28.106,28.106,0,0,1,5.289-3.457l.417.108a.05.05,0,0,0,.009.038c.088.132.176.265.257.4" transform="translate(-143.346 -91.08)" fill="#373635"/>
        <path id="パス_26866" data-name="パス 26866" d="M248.64,124.572a1.135,1.135,0,0,1,.21.7,3.38,3.38,0,0,1-.112.407.338.338,0,0,1-.375.225.334.334,0,0,1-.268-.382c.006-.115.032-.228.035-.342a.22.22,0,0,0-.155-.23.276.276,0,0,0-.274.166c-.019.054-.016.114-.029.17a.3.3,0,0,1-.265.247.324.324,0,0,1-.364-.172.625.625,0,0,1-.063-.327,1.016,1.016,0,0,1,.781-.775.832.832,0,0,1,.88.316" transform="translate(-149.989 -75.444)" fill="#373635"/>
        <path id="パス_26867" data-name="パス 26867" d="M239.345,173.9c.068-.006.068.1,0,.106a1.667,1.667,0,0,0-.452.135.412.412,0,0,1-.153-.051l.076-.027a2.293,2.293,0,0,1,.529-.163" transform="translate(-144.987 -105.608)" fill="#373635"/>
        <path id="パス_26868" data-name="パス 26868" d="M236.82,174.993q-.182.07-.364.143a.049.049,0,0,1-.028,0,.056.056,0,0,1,0-.1c.116-.046.233-.093.35-.138a.3.3,0,0,1,.041.1" transform="translate(-143.561 -106.214)" fill="#373635"/>
        <path id="パス_26869" data-name="パス 26869" d="M230.063,186.489a.325.325,0,0,1-.08.395,1.034,1.034,0,0,1-.3.161q-1.794.583-3.59,1.155a2.442,2.442,0,0,1-.262.059.37.37,0,0,1-.4-.305.348.348,0,0,1,.276-.385c.335-.091.679-.148,1.006-.256.907-.3,1.806-.614,2.708-.921a1.552,1.552,0,0,1,.333-.088.294.294,0,0,1,.313.186" transform="translate(-136.9 -113.141)" fill="#373635"/>
        <path id="パス_26870" data-name="パス 26870" d="M224.021,199.923c.177-.009.353-.018.531-.026a.324.324,0,0,1-.226.139.327.327,0,0,1-.305-.113" transform="translate(-136.048 -121.397)" fill="#373635"/>
        <path id="パス_26871" data-name="パス 26871" d="M15.509,114.1a2.725,2.725,0,0,0-.255-.51c-.037-.057-.128,0-.091.053a2.677,2.677,0,0,1,.252.506.274.274,0,0,1-.258-.038,1.638,1.638,0,0,1-.291-.257,6.146,6.146,0,0,0-2.911-1.8,9.289,9.289,0,0,0-1.824-.362,10.681,10.681,0,0,0-1.383-.086,4.569,4.569,0,0,0-2.873,1.064,4.943,4.943,0,0,0-.849,1.032.533.533,0,0,1-.368.266c-.072.011-.143.027-.213.042a1.838,1.838,0,0,0-1.076.605,8.389,8.389,0,0,0-.625.829,11.894,11.894,0,0,0-1.639,4.13,20.008,20.008,0,0,0-.424,4.092A4.829,4.829,0,0,0,1.86,126.8a3.724,3.724,0,0,0,2.014,1.281,9.012,9.012,0,0,0,1.191.226,10.935,10.935,0,0,0,2.554.054,4.779,4.779,0,0,0,2.481-.935.73.73,0,0,1,.266-.135l.011,0a1.234,1.234,0,0,1-.174.338c-.04.056.051.108.091.053a1.3,1.3,0,0,0,.2-.4.3.3,0,0,1,.214.142.3.3,0,0,1,0,.365.909.909,0,0,1-.178.186,4.013,4.013,0,0,1-1.039.62,6.627,6.627,0,0,1-1.936.452c-.1.007-.2.021-.319.034-.031.094-.064.187-.091.281a2.631,2.631,0,0,1-.458.879,1,1,0,0,1-.109.123.408.408,0,0,1-.241.113.461.461,0,0,0-.285.178A12.386,12.386,0,0,0,3.7,134.012a17.407,17.407,0,0,0-1.379,3.872c-.2.917-.337,1.849-.483,2.777-.087.543-.139,1.09-.2,1.636a11.347,11.347,0,0,0-.048,1.994,1.582,1.582,0,0,1,.008.215.342.342,0,0,1-.258.312.309.309,0,0,1-.224-.029.285.285,0,0,1-.138-.145,1.117,1.117,0,0,1-.1-.416c0-.549-.018-1.1.032-1.647a38.312,38.312,0,0,1,.748-4.885,18.137,18.137,0,0,1,2.079-5.218,10.279,10.279,0,0,1,1.384-1.832q.207-.221.408-.45a.642.642,0,0,1,.395-.246.376.376,0,0,0,.185-.1,1.371,1.371,0,0,0,.35-.735,4.262,4.262,0,0,0-.756-.072,10.34,10.34,0,0,1-1.887-.262,4.508,4.508,0,0,1-2.519-1.592,5.471,5.471,0,0,1-1.236-2.685,5.839,5.839,0,0,1-.049-.648,18.872,18.872,0,0,1,.3-3.54,16.3,16.3,0,0,1,.829-3.184A12.888,12.888,0,0,1,2.4,114.718c.016-.024.034-.046.051-.071A2.935,2.935,0,0,1,4.476,113.3,4.954,4.954,0,0,1,5.5,112.108a4.836,4.836,0,0,1,1.617-.9,5.544,5.544,0,0,1,2.395-.258c.561.064,1.126.094,1.679.2a8.691,8.691,0,0,1,2.642.947,4.96,4.96,0,0,1,1,.753c.22.209.436.423.645.644a.679.679,0,0,1,.153.255.3.3,0,0,1-.115.347.079.079,0,0,1-.013.009" transform="translate(0 -67.357)" fill="#373635"/>
        <path id="パス_26872" data-name="パス 26872" d="M46.816,162.8a.89.89,0,0,1-.108.278.3.3,0,0,1-.344.121.409.409,0,0,1-.166-.1.457.457,0,0,0,.184-.189c.029-.061-.061-.114-.091-.053a.359.359,0,0,1-.152.149.247.247,0,0,1-.016-.084,1.416,1.416,0,0,1,.036-.386c.137-.576.271-1.154.428-1.726.325-1.185.626-2.376.876-3.58.03-.14.051-.282.072-.4-.094-.185-.261-.215-.4-.269-.42-.158-.843-.305-1.268-.449-.972-.329-1.945-.653-2.917-.979l-.489-.159c-.047.083-.078.131-.1.181-.764,1.75-1.584,3.474-2.267,5.258-.15.39-.286.787-.428,1.181-.011.027-.018.056-.029.082a.351.351,0,0,1-.4.25.378.378,0,0,1-.286-.426,1.98,1.98,0,0,1,.128-.412q.553-1.344,1.113-2.685c.061-.146.123-.291.191-.456a.933.933,0,0,1-.209-.5,10.537,10.537,0,0,0-1.334-3.417c-.256-.436-.547-.853-.84-1.266-.418-.59-.851-1.169-1.28-1.752l0,0c.041.02.1-.024.068-.072a2.023,2.023,0,0,0-.465-.509h0a.309.309,0,0,1,.07-.22.335.335,0,0,1,.424-.108.835.835,0,0,1,.178.12.765.765,0,0,1,.111.133c.679.954,1.362,1.906,2.035,2.866.19.272.346.568.52.851.043.071.1.135.17.236.1-.221.177-.4.258-.588.179-.408.191-.418.643-.481a.984.984,0,0,0-.022-.5,1.41,1.41,0,0,0-.088-.246,12.877,12.877,0,0,1-.786-2.475c-.254-1.039-.522-2.076-.768-3.116a2.817,2.817,0,0,1-.076-.729.818.818,0,0,1,.419-.732.893.893,0,0,1,.7-.037,1.634,1.634,0,0,1,.732.448l.172.188c.341-.084.422-.315.432-.617.021-.666.055-1.331.089-1.995a10.218,10.218,0,0,1,.253-1.933,3.613,3.613,0,0,1,.106-.376,1.326,1.326,0,0,1,.5-.639.747.747,0,0,1,1.238.4,4.755,4.755,0,0,1,.141.764,1.275,1.275,0,0,0,.078.379c.049-.13.1-.258.146-.389a4.116,4.116,0,0,1,.631-1.23,2.1,2.1,0,0,1,.258-.293.609.609,0,0,1,.949.073,2.725,2.725,0,0,1,.264.445,1.387,1.387,0,0,1,.075.208,1.589,1.589,0,0,0,.161.064.95.95,0,0,1,.65.646,2.816,2.816,0,0,1,.181,1.019c0,.229,0,.458,0,.69.137-.021.128-.129.158-.2.129-.306.246-.617.374-.924a1.519,1.519,0,0,1,.736-.765.735.735,0,0,1,.286-.088.9.9,0,0,1,.95.866,3.866,3.866,0,0,1-.114.9c-.216.886-.453,1.765-.683,2.646a.728.728,0,0,0-.052.385c.081-.136.139-.231.194-.328q.587-1.038,1.173-2.078c.086-.151.176-.3.269-.445a1.145,1.145,0,0,1,.774-.51.747.747,0,0,1,.881.458,1.208,1.208,0,0,1,.055.809,10.757,10.757,0,0,1-.361,1.111c-.177.442-.389.871-.587,1.305-.047.1-.091.208-.138.318.111.044.137-.04.179-.081.186-.183.357-.381.554-.549a1.84,1.84,0,0,1,.474-.3.954.954,0,0,1,1.294,1.056,1.992,1.992,0,0,1-.325.8q-.163.23-.343.448c-.49.59-.979,1.18-1.475,1.764a9.562,9.562,0,0,0-.737,1.018c-.446.693-.918,1.371-1.373,2.058-.366.555-.72,1.12-1.087,1.674a2.042,2.042,0,0,0-.409,1.48.152.152,0,0,0,.051.034c.412.122.482.23.382.661-.2.845-.4,1.687-.6,2.531q-.416,1.751-.831,3.5m6.044-15.969a.3.3,0,0,0-.2-.418.752.752,0,0,0-.479.274c-.231.24-.464.478-.675.734-.515.625-1.016,1.261-1.525,1.891a2.2,2.2,0,0,1-.262.288.355.355,0,0,1-.443.016.327.327,0,0,1-.135-.381,2.279,2.279,0,0,1,.146-.361q.878-1.887,1.759-3.774a5.022,5.022,0,0,0,.4-1.144,1.692,1.692,0,0,0,.03-.385c0-.133-.126-.186-.254-.129a.686.686,0,0,0-.3.3c-.187.31-.371.62-.547.936q-1.091,1.95-2.176,3.9a1.963,1.963,0,0,1-.206.33.336.336,0,0,1-.529,0,.47.47,0,0,1-.111-.482c.1-.363.186-.728.288-1.09.282-1,.584-2,.849-3,.171-.642.295-1.3.435-1.945a.9.9,0,0,0,.011-.258.183.183,0,0,0-.234-.126.688.688,0,0,0-.391.386c-.143.346-.3.689-.412,1.048-.355,1.178-.785,2.328-1.2,3.484a5.045,5.045,0,0,0-.165.537,1.236,1.236,0,0,1-.286.528.3.3,0,0,1-.358.069.308.308,0,0,1-.2-.306,1.444,1.444,0,0,1,.069-.292c.058-.209.135-.414.173-.626.146-.825.276-1.654.421-2.48a8.573,8.573,0,0,0,.111-1.9,3.142,3.142,0,0,0-.126-.635.807.807,0,0,0-.14-.211.731.731,0,0,0-.348.45,8.393,8.393,0,0,0-.256.827q-.617,2.639-1.222,5.281c-.1.423-.19.846-.3,1.266a1.543,1.543,0,0,1-.19.432.358.358,0,0,1-.422.141.363.363,0,0,1-.307-.321,1.018,1.018,0,0,0-.048-.253c-.281-.7-.552-1.4-.856-2.086a3.728,3.728,0,0,0-.456-.682c-.042-.056-.138-.072-.214-.109a1,1,0,0,0-.116.7c.06.311.126.624.216.928.112.373.241.743.381,1.106a10.018,10.018,0,0,1,.646,2.514,3.711,3.711,0,0,0,.682,1.713c.041.06.083.118.121.179.091.148.176.3.268.445.108.173,0,.362.018.527a24.958,24.958,0,0,0,3.28,1.1,1.819,1.819,0,0,0,.035-.2,2.327,2.327,0,0,1,.341-1.019c.183-.312.366-.624.564-.928.44-.68.9-1.348,1.333-2.031a22.325,22.325,0,0,1,2.364-3.155c.244-.266.467-.553.7-.833a2.738,2.738,0,0,0,.26-.348,2.2,2.2,0,0,0,.2-.432m-7.278-5.692c-.059-.114-.1-.207-.152-.293a1.322,1.322,0,0,0-.136-.157c-.058.066-.1.107-.134.151a3.726,3.726,0,0,0-.608,1.239,18.233,18.233,0,0,0-.609,2.617c-.056.343-.115.685-.17,1.028a.569.569,0,0,1-.322.435.345.345,0,0,1-.54-.277,2.39,2.39,0,0,1,0-.348c.04-.75.088-1.5.123-2.253.022-.505.031-1.012.039-1.518a1.381,1.381,0,0,0-.169-.743c-.307.187-.341.224-.426.535A8.288,8.288,0,0,0,42.2,143.4c-.037.852-.072,1.7-.11,2.578a4.021,4.021,0,0,1,.967,1.5c.124.292.239.589.361.883.032.076.078.147.151.284.077-.3.144-.537.2-.774.349-1.552.687-3.106,1.047-4.655a4.763,4.763,0,0,1,.767-2.073m-2.557,13.232c.016-.036.027-.052.024-.058-.077-.137-.148-.28-.238-.409a4.407,4.407,0,0,1-.8-2.08,8.381,8.381,0,0,0-.564-2.22c-.132-.337-.246-.68-.364-1.022a4.094,4.094,0,0,1-.313-1.945,5.058,5.058,0,0,1-.44-.322,1.142,1.142,0,0,0-.452-.248.141.141,0,0,0-.183.132,2.589,2.589,0,0,0,.046.514c.191.831.392,1.659.592,2.487a15.75,15.75,0,0,0,.984,3.227,1.488,1.488,0,0,1,.1.936,1.648,1.648,0,0,1,.176.191.34.34,0,0,1-.1.488.37.37,0,0,1-.164.053,1.254,1.254,0,0,1-.258-.024c-.112-.013-.223-.028-.354-.045-.181.4-.353.776-.516,1.135l.591,1.687.091.011a13.893,13.893,0,0,0,1-2.57.315.315,0,0,1,.2-.24.373.373,0,0,1,.319.013,1.471,1.471,0,0,1,.166.137.841.841,0,0,0,.462.171" transform="translate(-22.052 -84.965)" fill="#373635"/>
        <path id="パス_26873" data-name="パス 26873" d="M34.729,119.922a3.072,3.072,0,0,1,.273-.493c.008-.011.017-.023.026-.034.039.118.072.238.1.361a.053.053,0,0,0,.1-.027c-.036-.14-.074-.278-.119-.412.146-.1.318-.058.467.109a8.079,8.079,0,0,1,1.644,3.542,8.194,8.194,0,0,1,.131,1.076c.014.115.02.231.031.346a.691.691,0,0,0,.253.487c.26.208.512.426.781.619a1.887,1.887,0,0,1,.436.417.434.434,0,0,1,.022.56c-.072.106-.17.2-.253.3-.215.253-.428.509-.643.763a.575.575,0,0,0-.14.445,6.611,6.611,0,0,1-.32,2.438,13.116,13.116,0,0,1-.647,1.886,2.275,2.275,0,0,1-.175.348.816.816,0,0,1-.221.231.808.808,0,0,1-.3.123,3.421,3.421,0,0,1-1.081.026c-.417-.05-.832-.111-1.248-.165-.07-.009-.141-.009-.228-.016a2.539,2.539,0,0,0-.1.241,9.343,9.343,0,0,0-.353,1.785c-.072.732-.121,1.468-.18,2.2a1.939,1.939,0,0,1,.243.132.348.348,0,0,1,.138.386,5.561,5.561,0,0,0-.6-.28.042.042,0,0,0-.037,0l-.537-.073.1-.012a22.23,22.23,0,0,1,.6-4.45,1.507,1.507,0,0,1-.128-.234.343.343,0,0,1,.327-.484.654.654,0,0,1,.13.007c.459.059.919.108,1.376.181a3.538,3.538,0,0,0,1.48.012,2.268,2.268,0,0,0,.312-.675c-.066-.036-.121-.071-.183-.1a2.229,2.229,0,0,1-1.028-.961,3.534,3.534,0,0,1-.456-1.745,1.121,1.121,0,0,1,.027-.258.4.4,0,0,1,.355-.331,2.3,2.3,0,0,1,.39,0,5.415,5.415,0,0,0,1.59-.1,1.85,1.85,0,0,1,.619-1.347c.14-.165.283-.328.441-.512-.065-.064-.12-.124-.183-.178-.29-.24-.584-.474-.871-.714a1.047,1.047,0,0,1-.379-.71c-.046-.4-.086-.805-.131-1.207a3.371,3.371,0,0,0-.062-.428,10.25,10.25,0,0,0-.814-2.192,1.226,1.226,0,0,0-.393-.52,1.233,1.233,0,0,0-.112.139,5.849,5.849,0,0,1-1.285,1.517c-.141.124-.283.248-.426.37a1.2,1.2,0,0,1-.17.134.351.351,0,0,1-.471-.056l0,0a2.353,2.353,0,0,0,1-.707c.044-.051-.029-.126-.074-.074a2.273,2.273,0,0,1-.975.689.337.337,0,0,1,.107-.371c.071-.071.158-.127.234-.193.253-.216.513-.425.753-.655a3.87,3.87,0,0,0,.837-1.153m2.37,9.257a1.536,1.536,0,0,0,0-.316c-.3.013-.568.019-.838.037a3.059,3.059,0,0,0-.8.046,1.862,1.862,0,0,0,1.192,1.9,11.762,11.762,0,0,0,.44-1.665" transform="translate(-19.552 -72.428)" fill="#373635"/>
        <path id="パス_26874" data-name="パス 26874" d="M34.782,125.275a2.354,2.354,0,0,1-1,.707.347.347,0,0,1-.054-.092,2.276,2.276,0,0,0,.975-.689c.044-.052.118.023.074.074" transform="translate(-20.486 -76.024)" fill="#373635"/>
        <path id="パス_26875" data-name="パス 26875" d="M61.49,198.312c.029-.061.12-.008.091.053a.455.455,0,0,1-.183.188.238.238,0,0,1-.059-.093.357.357,0,0,0,.152-.149" transform="translate(-37.251 -120.418)" fill="#373635"/>
        <path id="パス_26876" data-name="パス 26876" d="M30.377,122.667a.055.055,0,0,0-.071.021l-.159-.119c.04-.053.079-.108.118-.161a5.358,5.358,0,0,0,.816-1.762,2.255,2.255,0,0,1,.173-.487.312.312,0,0,1,.512-.073.367.367,0,0,1,.094.187.616.616,0,0,1-.021.256A7.457,7.457,0,0,1,31,122.52q-.091.143-.188.282a1.591,1.591,0,0,1-.438-.134" transform="translate(-18.308 -72.866)" fill="#373635"/>
        <path id="パス_26877" data-name="パス 26877" d="M34.16,165.51a.288.288,0,0,1-.049.091,5.472,5.472,0,0,0-.578-.269.058.058,0,0,1-.009-.1.042.042,0,0,1,.037,0,5.617,5.617,0,0,1,.6.28" transform="translate(-20.343 -100.342)" fill="#373635"/>
        <path id="パス_26878" data-name="パス 26878" d="M23.815,162.264a.058.058,0,0,0,.009.1,5.625,5.625,0,0,1,.578.269.35.35,0,0,1-.155.113,2.116,2.116,0,0,1-.59.129,6.474,6.474,0,0,1-1.727-.094,13.2,13.2,0,0,1-3.215-1.026,3.146,3.146,0,0,1-1.012-.732,1.071,1.071,0,0,1-.135-.169.328.328,0,0,1,.055-.432l.023-.019a.354.354,0,0,1,.418.014,1.267,1.267,0,0,1,.183.185,2.256,2.256,0,0,0,.8.583,11.8,11.8,0,0,0,3.4.981,3.482,3.482,0,0,0,.827.026Z" transform="translate(-10.635 -97.376)" fill="#373635"/>
        <path id="パス_26879" data-name="パス 26879" d="M30.983,127.039a1.736,1.736,0,0,1-.428-.137.044.044,0,0,1-.018-.07.055.055,0,0,1,.071-.021,1.606,1.606,0,0,0,.438.134l-.063.094" transform="translate(-18.539 -77.009)" fill="#373635"/>
        <path id="パス_26880" data-name="パス 26880" d="M21.947,136.665a.321.321,0,0,1-.387.11,1.663,1.663,0,0,1-.263-.155.827.827,0,0,0-.237-.657c-.046-.051-.121.024-.074.074a.724.724,0,0,1,.21.5,2.863,2.863,0,0,1-.657-.849,6.848,6.848,0,0,1-.551-1.639c-.038-.153-.069-.308-.106-.474-.1-.022-.2-.044-.3-.062a1.572,1.572,0,0,1-.776-.363,2.931,2.931,0,0,1-1.05-1.887,2.1,2.1,0,0,1,.151-1.1,1.642,1.642,0,0,1,2.321-.807c.113.06.22.133.351.213a1.235,1.235,0,0,0,.077-.259,1.124,1.124,0,0,1,.291-.661c.269-.322.542-.641.8-.969.291-.366.584-.732.86-1.109l.159.119a.044.044,0,0,0,.018.07,1.732,1.732,0,0,0,.428.137c-.278.4-.575.781-.888,1.154-.251.3-.494.6-.753.9a1.083,1.083,0,0,0-.279.665c-.016.216-.021.432-.042.649a.52.52,0,0,1-.532.463.424.424,0,0,1-.335-.175,1.426,1.426,0,0,1-.13-.225.876.876,0,0,0-.892-.49.906.906,0,0,0-.819.549,1.436,1.436,0,0,0-.108.889,2.155,2.155,0,0,0,.842,1.371,1.028,1.028,0,0,0,.822.187c.114-.017.225-.056.339-.074a.333.333,0,0,1,.34.143.28.28,0,0,1,.005.363.824.824,0,0,0-.12.775,4.61,4.61,0,0,0,.4,1.233,2.307,2.307,0,0,0,.719.853.936.936,0,0,1,.135.108.345.345,0,0,1,.029.438" transform="translate(-10.774 -76.865)" fill="#373635"/>
        <path id="パス_26881" data-name="パス 26881" d="M38.852,118.251a2.674,2.674,0,0,0-.252-.505c-.037-.057.054-.11.091-.053a2.737,2.737,0,0,1,.255.51.363.363,0,0,1-.094.049" transform="translate(-23.436 -71.459)" fill="#373635"/>
        <path id="パス_26882" data-name="パス 26882" d="M26.054,150.465a.829.829,0,0,1,.238.656,1.113,1.113,0,0,1-.1-.078l0,0a.722.722,0,0,0-.21-.5c-.046-.049.027-.124.074-.074" transform="translate(-15.769 -91.367)" fill="#373635"/>
        <path id="パス_26883" data-name="パス 26883" d="M39.617,119.814a.053.053,0,0,1-.1.027c-.032-.123-.064-.243-.1-.361a.372.372,0,0,1,.085-.078c.046.134.083.271.119.412" transform="translate(-23.935 -72.513)" fill="#373635"/>
        <path id="パス_26884" data-name="パス 26884" d="M25.967,152.937a1.24,1.24,0,0,0,.174-.338.324.324,0,0,1,.114-.007,1.3,1.3,0,0,1-.2.4c-.039.055-.131,0-.091-.053" transform="translate(-15.764 -92.668)" fill="#373635"/>
        <path id="パス_26885" data-name="パス 26885" d="M39.729,132.23a.56.56,0,0,1-.02.213.34.34,0,0,1-.318.251.321.321,0,0,1-.3-.209c-.046-.121-.063-.254-.116-.372A.266.266,0,0,0,38.81,132a.175.175,0,0,0-.206.17c-.016.129-.011.261-.031.388a.33.33,0,0,1-.33.286.326.326,0,0,1-.32-.247,2.291,2.291,0,0,1-.045-.314c.015-.115.022-.2.038-.287a.9.9,0,0,1,1.726-.141,2.01,2.01,0,0,1,.088.379" transform="translate(-23.003 -79.715)" fill="#373635"/>
        <path id="パス_26886" data-name="パス 26886" d="M36.971,127.284a.329.329,0,0,1,.157.371.285.285,0,0,1-.318.235,1.02,1.02,0,0,0-.908.4,1.226,1.226,0,0,1-.123.121.339.339,0,0,1-.438,0,.326.326,0,0,1-.07-.43.678.678,0,0,1,.1-.141,2.575,2.575,0,0,1,1.016-.637,1.5,1.5,0,0,1,.254-.036,2.425,2.425,0,0,1,.329.116" transform="translate(-21.39 -77.229)" fill="#373635"/>
        <path id="パス_26887" data-name="パス 26887" d="M36.78,167.2c.031.047-.027.092-.069.072-.023-.032-.047-.062-.071-.092l-.006-.006a1.652,1.652,0,0,0-.174-.21c-.024-.031-.049-.061-.072-.092a.361.361,0,0,1-.074-.18,2.01,2.01,0,0,1,.465.509" transform="translate(-22.054 -101.231)" fill="#373635"/>
        <path id="パス_26888" data-name="パス 26888" d="M36.686,167.384a1.678,1.678,0,0,1,.174.21c-.057-.071-.117-.139-.174-.21" transform="translate(-22.279 -101.652)" fill="#373635"/>
        <path id="パス_26889" data-name="パス 26889" d="M19.185,180a.331.331,0,0,1-.258.393.34.34,0,0,1-.4-.245,2.223,2.223,0,0,1-.064-.25q-.56-2.361-1.118-4.724a11.323,11.323,0,0,0-.628-1.844,4.077,4.077,0,0,0-1.262-1.629,2.612,2.612,0,0,0-2.37-.484,3.618,3.618,0,0,0-.994.421,7.843,7.843,0,0,0-1.689,1.481.6.6,0,0,0-.192.424.435.435,0,0,1-.017.129.348.348,0,0,1-.347.27.352.352,0,0,1-.322-.346.8.8,0,0,1,.1-.5,2.39,2.39,0,0,1,.249-.353,11.289,11.289,0,0,1,1.4-1.352,4.26,4.26,0,0,1,1.778-.86c.253-.052.513-.074.77-.11a3.341,3.341,0,0,1,1.981.685,4.856,4.856,0,0,1,1.6,2.114,16.017,16.017,0,0,1,.7,2.232c.329,1.377.669,2.751,1,4.127a2.935,2.935,0,0,1,.084.424" transform="translate(-5.778 -103.497)" fill="#373635"/>
        <path id="パス_26890" data-name="パス 26890" d="M11.936,191.919a.327.327,0,0,1-.168.4.342.342,0,0,1-.423-.108.885.885,0,0,1-.109-.186c-.23-.527-.468-1.051-.683-1.584a5.683,5.683,0,0,1-.183-.682,2.192,2.192,0,0,1,.07-.324.336.336,0,0,1,.343-.21.346.346,0,0,1,.291.28.4.4,0,0,1,.009.086,2.543,2.543,0,0,0,.335,1.237c.137.285.278.569.415.854a1.606,1.606,0,0,1,.1.236" transform="translate(-6.298 -114.916)" fill="#373635"/>
        <path id="パス_26891" data-name="パス 26891" d="M201.613,197.548a.66.66,0,0,1,.145.436.3.3,0,0,1-.1-.042.594.594,0,0,0-.115-.328c-.039-.045.026-.112.066-.066" transform="translate(-122.392 -119.961)" fill="#373635"/>
        <path id="パス_26892" data-name="パス 26892" d="M194.207,181.122a.046.046,0,0,1-.035.079.043.043,0,0,1-.031-.013c-.053-.051-.109-.1-.167-.145a.51.51,0,0,1,.08-.054c.053.043.1.087.153.133" transform="translate(-117.801 -109.915)" fill="#373635"/>
        <path id="パス_26893" data-name="パス 26893" d="M182,178.9a.257.257,0,0,1-.146,0,.66.66,0,0,0-.146-.436c-.039-.046-.1.02-.065.066a.6.6,0,0,1,.114.328.405.405,0,0,1-.136-.154,1.954,1.954,0,0,1-.085-.215,14.355,14.355,0,0,0-1.033-2.28c-.282-.489-.59-.965-.918-1.425a6.426,6.426,0,0,0-.651-.707.5.5,0,0,0-.419-.144,25.805,25.805,0,0,0-3.855.525,1.417,1.417,0,0,0-.542.186c-.147.1-.295.026-.436-.048a1.625,1.625,0,0,0-.466.408,8.727,8.727,0,0,0-1.118,1.615c-.04.077-.081.153-.12.231l-.479-.261.043-.079a11.11,11.11,0,0,1,1.24-1.857,6.2,6.2,0,0,1,.508-.528,3.829,3.829,0,0,1,.391-.28v-.511a.459.459,0,0,0-.35-.1,7.243,7.243,0,0,1-2.2-.537,3.289,3.289,0,0,1-1.872-1.841,5.756,5.756,0,0,1-.342-1.062,2.55,2.55,0,0,1,.145-1.437c.061-.155.117-.311.176-.467-.118-.226-.233-.441-.343-.658a1.594,1.594,0,0,1-.113-.244.343.343,0,0,1,.189-.45c.1-.052.214-.087.321-.13l.731-.293.448.226a.162.162,0,0,0-.018.057c-.033.228-.207.307-.392.38s-.35.15-.551.237a2.741,2.741,0,0,0,.283.606.4.4,0,0,1,0,.554,1.06,1.06,0,0,0-.109.246c-.032.079-.1.151-.047.259.333.073.672.141,1.008.223.6.148,1.2.3,1.791.461.422.115.509.3.37.717a3.129,3.129,0,0,1-.161.391,2.457,2.457,0,0,1-1.545,1.46c.057.142.184.161.286.2a6.6,6.6,0,0,0,3.13.491c.191-.017.382-.055.573-.068a.3.3,0,0,1,.327.371.275.275,0,0,1-.2.215c-.161.038-.328.058-.491.086-.137.022-.286-.009-.4.1a.984.984,0,0,0,0,.617,9.269,9.269,0,0,0,1.323-.191c.445-.064.887-.152,1.33-.22s.886-.126,1.348-.19c.007-.141.008-.267.021-.392.022-.19.04-.383.079-.571a.585.585,0,0,1,.232-.366c.058.046.115.093.167.144a.042.042,0,0,0,.031.013l.255.309c-.046.036-.09.078-.145.122v.722a6.086,6.086,0,0,1,1.1,1.186,11.812,11.812,0,0,1,1.09,1.727c.324.643.637,1.291.948,1.94a1.367,1.367,0,0,1,.112.366.307.307,0,0,1-.217.362m-10.169-8.232a1.818,1.818,0,0,0,.339-.728c-.073-.028-.13-.054-.19-.075a13.941,13.941,0,0,0-2.02-.5.841.841,0,0,0-.45.013,1.334,1.334,0,0,0,.12.754,3.507,3.507,0,0,0,.661,1.238,1.91,1.91,0,0,0,1.021-.2,1.5,1.5,0,0,0,.52-.507" transform="translate(-102.484 -100.88)" fill="#373635"/>
        <path id="パス_26894" data-name="パス 26894" d="M185.265,154.763a5.929,5.929,0,0,1-.1,2.107,3.359,3.359,0,0,1-.86,1.569,10.624,10.624,0,0,1-2.182,1.766c-.342.2-.677.42-1.012.634-.016.01-.031.022-.047.033l-.255-.309a.046.046,0,0,0,.035-.079c-.048-.046-.1-.09-.153-.133l.03-.018c.393-.218.771-.462,1.158-.691a9.213,9.213,0,0,0,2.044-1.69,2.725,2.725,0,0,0,.622-1.1,5.14,5.14,0,0,0,.117-2.1,3.643,3.643,0,0,0-.345-1.179,2.224,2.224,0,0,0-.933-1.048.455.455,0,0,1-.278-.453,1.8,1.8,0,0,0-.277-.912c-.1-.165-.205-.326-.309-.489a2.189,2.189,0,0,0-1.059-.863c-.3-.119-.6-.221-.909-.315a8.209,8.209,0,0,1-1.26-.475,2.2,2.2,0,0,1-1-.931c-.034-.062-.074-.12-.119-.19a.734.734,0,0,0-.091.106,1.941,1.941,0,0,0-.295.984.306.306,0,0,1-.264.333.762.762,0,0,1-.265.011c-.126-.014-.252-.043-.378-.07a3.618,3.618,0,0,1-1.649-.7.794.794,0,0,0-.159-.082,1.657,1.657,0,0,0-.034.9c.066.275-.119.45-.4.407a.488.488,0,0,0-.261-.015,1.632,1.632,0,0,0-.736.476,2.009,2.009,0,0,0-.41.778,1.277,1.277,0,0,0-.018.208,3.318,3.318,0,0,1,.287-.278c.184-.139.372-.273.567-.4a.539.539,0,0,1,.448-.042.307.307,0,0,1,.2.481.672.672,0,0,0-.1.547,3.419,3.419,0,0,0,.139.592l-.519.179a4.175,4.175,0,0,1-.183-.767c-.007-.057-.022-.114-.043-.217a2.044,2.044,0,0,0-.2.168,2.712,2.712,0,0,0-.556.961c-.182.55-.353,1.1-.534,1.651-.071.216-.084.461-.3.609a.028.028,0,0,0-.011.013l-.448-.226c.194-.62.378-1.221.571-1.819a1.02,1.02,0,0,0,.037-.523,2.828,2.828,0,0,1,.35-1.933,2.1,2.1,0,0,1,1.071-.96c.118-.047.234-.1.371-.159.02-.176.029-.355.064-.53a5.935,5.935,0,0,1,.169-.629.735.735,0,0,1,.142-.227.382.382,0,0,1,.666.06,1.261,1.261,0,0,0,.665.613,2.422,2.422,0,0,0,1.065.282c.176-.394.321-.75.494-1.093a1.831,1.831,0,0,1,.329-.421.6.6,0,0,1,.264-.145.365.365,0,0,1,.481.264.605.605,0,0,1,.034.15,1.2,1.2,0,0,0,.71.988,7.868,7.868,0,0,0,.924.382c.24.087.49.155.738.218a3.482,3.482,0,0,1,2.412,2.2,2.7,2.7,0,0,1,.163.552.555.555,0,0,0,.2.356,3.782,3.782,0,0,1,1.37,2.63" transform="translate(-104.439 -89.277)" fill="#373635"/>
        <path id="パス_26895" data-name="パス 26895" d="M184.2,164.316a1.889,1.889,0,0,1-.576,1.932,1.514,1.514,0,0,1-.5.322,1.038,1.038,0,0,1-.066-.224c-.011-.06-.1-.035-.09.024a1.06,1.06,0,0,0,.069.231,1.636,1.636,0,0,1-1.1-.079.826.826,0,0,1-.3-.234.252.252,0,0,1,0-.322.272.272,0,0,1,.3-.114,1.416,1.416,0,0,1,.207.1.979.979,0,0,0,1.26-.34,1.459,1.459,0,0,0,.255-.949.8.8,0,0,0-1.282-.605,4.388,4.388,0,0,1-.537.294.311.311,0,0,1-.358-.065.411.411,0,0,1-.142-.344,1.274,1.274,0,0,0-.32-.845,6.942,6.942,0,0,1-1.26-2.58,2.156,2.156,0,0,0-.062-.223,1.871,1.871,0,0,0-.115-.207c-.07.307-.124.557-.182.807a1.426,1.426,0,0,1-.084.295.306.306,0,0,1-.485.113,1.637,1.637,0,0,1-.24-.249,4.769,4.769,0,0,1-.842-1.486l.519-.179a2.972,2.972,0,0,0,.477.886.863.863,0,0,0,.124.107,1.731,1.731,0,0,0,.07-.161c.06-.223.112-.448.176-.671a2.177,2.177,0,0,1,.145-.4.345.345,0,0,1,.552-.117.537.537,0,0,1,.183.288c.115.368.226.737.339,1.105a5.87,5.87,0,0,0,.909,1.945,6.531,6.531,0,0,1,.41.561c.12.192.212.4.321.613.179-.061.357-.128.538-.183a1.343,1.343,0,0,1,1.681.955" transform="translate(-107.953 -96.525)" fill="#373635"/>
        <path id="パス_26896" data-name="パス 26896" d="M191.179,177.968a.712.712,0,0,1-.088.031,1.062,1.062,0,0,1-.068-.231c-.01-.059.08-.085.09-.025a1.04,1.04,0,0,0,.066.224" transform="translate(-116.008 -107.923)" fill="#373635"/>
        <path id="パス_26897" data-name="パス 26897" d="M175.932,165.475a.906.906,0,0,1,.326.75.49.49,0,0,1-.027.151.293.293,0,0,1-.326.213.287.287,0,0,1-.251-.254c-.018-.1-.022-.2-.049-.3a.137.137,0,0,0-.245-.037c-.039.049-.064.112-.1.16a.267.267,0,0,1-.278.09.27.27,0,0,1-.225-.234.441.441,0,0,1,.037-.26.826.826,0,0,1,.679-.44.668.668,0,0,1,.464.162" transform="translate(-106.124 -100.394)" fill="#373635"/>
        <path id="パス_26898" data-name="パス 26898" d="M163.288,185.189l.479.261c-.279.538-.542,1.086-.813,1.629a1.742,1.742,0,0,1-.124.239.32.32,0,0,1-.257.143.234.234,0,0,1-.2-.109c-.1-.145-.26-.211-.342-.353-.1-.166-.177-.343-.26-.517-.116-.243-.227-.49-.346-.732-.062-.125-.138-.244-.215-.379a1.708,1.708,0,0,0-.228.064c-.6.256-1.2.518-1.807.773-.485.2-.972.4-1.48.613-.092.154-.018.329.012.5.018.1.064.2.082.3a.253.253,0,0,1,0,.089l-.554,0-.014,0a.915.915,0,0,1-.04-.162c-.035-.216-.067-.432-.092-.649-.043-.368-.007-.432.322-.607a.74.74,0,0,0,.078-.064,1.366,1.366,0,0,0-.171-.084,4.253,4.253,0,0,1-.811-.354,2.4,2.4,0,0,1-1.153-1.571,6.41,6.41,0,0,1-.113-.917,1.259,1.259,0,0,1,.027-.344c.084-.449.242-.6.708-.679a.7.7,0,0,0,.088-.036c.016-.1.026-.215.053-.325a.742.742,0,0,1,.8-.638c.088,0,.177,0,.259,0,.355-.626.563-.71,1.2-.483.049-.062.1-.131.155-.2a.76.76,0,0,1,1.061-.19,1.347,1.347,0,0,1,.493.532c.1.193.182.4.267.6.055.13.1.263.158.413h.34a.981.981,0,0,1,.957.964,2.362,2.362,0,0,1-.586,1.475c-.1.117-.2.225-.349.384.109-.022.156-.03.2-.042.336-.1.458-.035.605.274.221.465.454.922.684,1.382a1.565,1.565,0,0,0,.1.149c.1.02.123-.053.152-.105q.342-.619.678-1.241m-2.136-1.872a1.306,1.306,0,0,0,.045-.417.352.352,0,0,0-.28-.328.244.244,0,0,0-.34.158.2.2,0,0,1-.046.061.292.292,0,0,1-.494-.119,1.245,1.245,0,0,1-.026-.189,3.529,3.529,0,0,0-.392-1.16,1,1,0,0,0-.325-.375.2.2,0,0,0-.312.092.675.675,0,0,0-.027.378.279.279,0,0,1-.125.3.331.331,0,0,1-.4-.036,2.693,2.693,0,0,1-.22-.215.4.4,0,0,0-.291-.155.282.282,0,0,0-.141.262c-.011.128-.006.258-.026.384a.306.306,0,0,1-.523.19,1.479,1.479,0,0,1-.134-.138c-.075-.079-.162-.141-.272-.094s-.126.156-.128.26c0,.128,0,.257,0,.384a1.889,1.889,0,0,1,.006.231.289.289,0,0,1-.359.254,2.628,2.628,0,0,1-.245-.108,1.294,1.294,0,0,0-.2-.037,1.359,1.359,0,0,0-.072.313,4.757,4.757,0,0,0,.06.8,1.766,1.766,0,0,0,.982,1.3,6.007,6.007,0,0,0,.717.273c.4.134.336.031.52.468a13.03,13.03,0,0,0,2.3-1.046c-.034-.049-.057-.08-.076-.112a.364.364,0,0,1,.042-.516,2.663,2.663,0,0,1,.2-.176,1.813,1.813,0,0,0,.572-.895" transform="translate(-94.277 -109.478)" fill="#373635"/>
        <path id="パス_26899" data-name="パス 26899" d="M160.854,199.21a.238.238,0,0,1-.026.1c-.168,0-.335,0-.5,0a.211.211,0,0,1-.017-.033.612.612,0,0,1-.022-.059l.014,0,.554,0" transform="translate(-97.342 -120.979)" fill="#373635"/>
        <path id="パス_26900" data-name="パス 26900" d="M160.387,199.447c.168,0,.335,0,.5,0a.283.283,0,0,1-.5,0" transform="translate(-97.403 -121.124)" fill="#373635"/>
        <path id="パス_26901" data-name="パス 26901" d="M92.741,154.262a1.045,1.045,0,0,0,.045.52.388.388,0,0,1-.037.025.3.3,0,0,1-.356-.051.276.276,0,0,1-.055-.321,1.194,1.194,0,0,1,.121-.2,1.3,1.3,0,0,0,.233-.838,2.536,2.536,0,0,0-.7-1.707c-.106-.112-.22-.215-.327-.328a2.335,2.335,0,0,1-.165-.207c-.03-.039-.047-.1-.086-.121a7.977,7.977,0,0,0-2.051-.955c-.411-.1-.821-.214-1.237-.289a4.278,4.278,0,0,0-2.384.253,3.21,3.21,0,0,0-1,.652c-.365.343-.7.715-1.054,1.072a.858.858,0,0,0-.18.377c-.076.246-.133.3-.382.281a.6.6,0,0,0-.394.114,1.662,1.662,0,0,0-.454.468,5.018,5.018,0,0,0-.878,2.28,5.472,5.472,0,0,0,.007,1.691,4.837,4.837,0,0,0,.24.851,5.668,5.668,0,0,0,2.628,2.922,2.5,2.5,0,0,0,.393.156.443.443,0,0,1,.249.223,2.038,2.038,0,0,1,.3,1.173,1.906,1.906,0,0,0,.022.258l2.741.44-.083.521q-.914-.145-1.831-.264c-.357-.048-.719-.048-1.077-.078a.377.377,0,0,0-.316.111,6.25,6.25,0,0,0-.661.7,16.289,16.289,0,0,0-.905,1.387,14.559,14.559,0,0,0-1.089,2.382,1.648,1.648,0,0,1-.071.179.321.321,0,0,1-.407.2l-.016-.007a.046.046,0,0,0-.076-.049l0,0a.349.349,0,0,1-.1-.358.964.964,0,0,1,.061-.182,18.967,18.967,0,0,1,2.151-3.868,6.094,6.094,0,0,1,.936-1.021.405.405,0,0,0,.082-.079,1.026,1.026,0,0,0-.064-.81c-.058-.066-.113-.136-.172-.2a.525.525,0,0,0-.132-.128,7.071,7.071,0,0,1-2.137-1.687.638.638,0,0,0-.113-.079,1.9,1.9,0,0,0-.067.219c-.086.494-.154.991-.255,1.482a2.255,2.255,0,0,1-1.364,1.7,3.481,3.481,0,0,1-.917.288,1.2,1.2,0,0,1-.19.023.289.289,0,0,1-.27-.185.279.279,0,0,1,.066-.318.477.477,0,0,1,.091-.07.6.6,0,0,0,.27-.634,1.726,1.726,0,0,0-.1-.411c-.11-.288-.23-.572-.353-.855-.155-.354-.313-.706-.476-1.056a7.377,7.377,0,0,1-.5-1.5,4.793,4.793,0,0,1,.047-2.367,2.656,2.656,0,0,1,.516-1.026,2,2,0,0,1,1.927-.723c.176.026.348.076.558.124.058-.154.1-.273.148-.393a5.98,5.98,0,0,1,.718-1.36,2.287,2.287,0,0,1,.97-.8.747.747,0,0,0,.271-.2c.373-.408.747-.816,1.141-1.2a5.68,5.68,0,0,1,.719-.579,3.845,3.845,0,0,1,1.912-.649c.205-.019.411-.022.617-.03a5.258,5.258,0,0,1,1.371.179,8.71,8.71,0,0,1,2.174.768,4.536,4.536,0,0,1,.788.545,7.887,7.887,0,0,1,.747.719,3.036,3.036,0,0,1,.792,2.343,1.734,1.734,0,0,1-.419.977.274.274,0,0,1-.027.03.918.918,0,0,1-.034-.426c.009-.059-.082-.084-.09-.024m-11.386,4.7a1.239,1.239,0,0,0-.132-.59,4.6,4.6,0,0,1-.486-2.159c0-.307.039-.614.056-.922.006-.1,0-.2,0-.3a4.409,4.409,0,0,0-.423-.134,1.389,1.389,0,0,0-1.447.5,2.029,2.029,0,0,0-.361.675,4,4,0,0,0-.187,1.482,5.562,5.562,0,0,0,.459,1.86c.243.567.506,1.125.759,1.686a3.029,3.029,0,0,1,.359,1.472,1.548,1.548,0,0,0,1.074-1.168,10.514,10.514,0,0,0,.333-2.4" transform="translate(-47.229 -90.578)" fill="#373635"/>
        <path id="パス_26902" data-name="パス 26902" d="M115.919,162.638a1.045,1.045,0,0,1-.045-.52c.009-.06.1-.035.09.025a.911.911,0,0,0,.034.426.489.489,0,0,1-.079.07" transform="translate(-70.362 -98.434)" fill="#373635"/>
        <path id="パス_26903" data-name="パス 26903" d="M117.41,164.917a1.294,1.294,0,0,1,.323.365c.029.053-.052.1-.081.047a1.29,1.29,0,0,0-.34-.372.253.253,0,0,1,.1-.04" transform="translate(-71.244 -100.154)" fill="#373635"/>
        <path id="パス_26904" data-name="パス 26904" d="M109.135,164.9a.743.743,0,0,1,.225.046c.288.11.577.22.86.342.312.133.37.3.22.613a5.991,5.991,0,0,1-.306.58.379.379,0,0,0-.03.4c.038.082.066.168.1.251a2.528,2.528,0,0,1,.105,1.663,8.753,8.753,0,0,1-.335.944,3.171,3.171,0,0,1-1.7,1.707,7.017,7.017,0,0,1-2.225.589,1.056,1.056,0,0,0-.469.092v.551a3.288,3.288,0,0,1,.991.912,11,11,0,0,1,.763,1.084l-.46.267a8.26,8.26,0,0,0-.813-1.089c-.134-.153-.288-.289-.438-.438a1.309,1.309,0,0,1-.23.079.366.366,0,0,1-.223-.013,2.707,2.707,0,0,0-.994-.285q-.3-.051-.609-.1l.084-.521,1.272.2a1.135,1.135,0,0,0,.028-.578c-.007-.062-.086-.114-.145-.186a2.012,2.012,0,0,1,.37-.472.445.445,0,0,1,.248-.073c.382-.049.767-.079,1.148-.137a5.36,5.36,0,0,0,1.362-.411c.139-.063.272-.14.433-.224a1.911,1.911,0,0,0-.137-.153,3.948,3.948,0,0,1-1.137-1.892c-.089-.3.014-.463.324-.54.474-.118.951-.221,1.427-.331l.878-.2a2.063,2.063,0,0,0-.271-.647.374.374,0,0,1,.018-.491,6.107,6.107,0,0,0,.316-.631c-.217-.093-.392-.168-.567-.247a1.378,1.378,0,0,1-.271-.142.267.267,0,0,1-.1-.309.3.3,0,0,1,.12-.161,1.3,1.3,0,0,1,.339.372c.029.053.11.006.081-.047a1.294,1.294,0,0,0-.323-.365.265.265,0,0,1,.073-.007m.626,3.609a.52.52,0,0,0,.016-.113.128.128,0,0,0-.114-.132.511.511,0,0,0-.188.013q-.765.181-1.529.37a.621.621,0,0,0-.129.062,2.378,2.378,0,0,0,1.119,1.535c.046-.055.081-.092.112-.132a4.133,4.133,0,0,0,.714-1.6" transform="translate(-62.896 -100.143)" fill="#373635"/>
        <path id="パス_26905" data-name="パス 26905" d="M120.942,181.872a3.3,3.3,0,0,1-.357,1.867,2.605,2.605,0,0,1-1.4,1.156c-.165.067-.335.122-.52.188.467.254.492.3.424.8-.024.178-.045.357-.081.534a.99.99,0,0,1-.106.286.261.261,0,0,1-.3.108l-.033-.013a.988.988,0,0,0,.247-.28.046.046,0,0,0-.08-.047.961.961,0,0,1-.245.273.25.25,0,0,1-.083-.193.905.905,0,0,1,.043-.224,1.542,1.542,0,0,0,.082-.584.571.571,0,0,0-.033-.053.07.07,0,0,0-.028-.026l-3.444-1.446a.826.826,0,0,0-.269.381c-.156.324-.306.651-.461.975a.815.815,0,0,1-.342.45c-.06.03-.087.124-.137.18a.306.306,0,0,1-.494-.04c-.046-.076-.072-.165-.112-.245-.33-.654-.648-1.314-.994-1.96-.073-.134-.148-.265-.227-.393l.459-.267c.14.225.273.455.4.688.222.406.443.813.666,1.219.042.076.093.148.153.244a2.361,2.361,0,0,0,.165-.237c.219-.436.434-.875.65-1.312a1.714,1.714,0,0,1,.1-.208.363.363,0,0,1,.438-.146.683.683,0,0,0,.267.063c-.073-.081-.143-.165-.219-.242a2.507,2.507,0,0,1-.632-1.133,1.974,1.974,0,0,1-.054-.534.968.968,0,0,1,.93-.906c.115,0,.23,0,.361,0,.05-.135.094-.267.148-.394.091-.213.181-.426.285-.632a1.357,1.357,0,0,1,.4-.464.781.781,0,0,1,1.178.167c.032.055.069.1.1.152.772-.251.946-.016,1.232.494.083,0,.172,0,.26,0a.751.751,0,0,1,.8.637c.027.11.037.224.057.344.1.017.185.026.269.049a.633.633,0,0,1,.476.459,1.231,1.231,0,0,1,.062.262m-1.857,2.424a2.081,2.081,0,0,0,1.256-2.383c-.009-.063-.071-.119-.114-.187l-.194.092c-.376.178-.56.053-.544-.362.007-.167.007-.334,0-.5a.2.2,0,0,0-.356-.137c-.072.073-.135.155-.213.221a.291.291,0,0,1-.483-.158,1.031,1.031,0,0,1-.012-.192c-.008-.115-.01-.23-.026-.345a.2.2,0,0,0-.156-.191c-.158.019-.242.138-.343.235a.931.931,0,0,1-.239.19.289.289,0,0,1-.428-.271,1.463,1.463,0,0,0,.017-.19,1.138,1.138,0,0,0-.08-.291.16.16,0,0,0-.231-.065.856.856,0,0,0-.345.355,3.169,3.169,0,0,0-.415,1.232c-.018.166-.056.311-.225.368a.289.289,0,0,1-.375-.185.219.219,0,0,0-.255-.12.378.378,0,0,0-.322.241.519.519,0,0,0-.022.34,1.921,1.921,0,0,0,.6,1.054,3.368,3.368,0,0,1,.256.234.335.335,0,0,1,.014.483,1.047,1.047,0,0,1-.1.1,15.972,15.972,0,0,0,2.337,1.071.414.414,0,0,1,.373-.442,4.7,4.7,0,0,0,.624-.2" transform="translate(-68.012 -108.775)" fill="#373635"/>
        <path id="パス_26906" data-name="パス 26906" d="M128.789,197.821a.047.047,0,0,1,.081.047.994.994,0,0,1-.247.28.275.275,0,0,1-.078-.053.952.952,0,0,0,.244-.273" transform="translate(-78.065 -120.123)" fill="#373635"/>
        <path id="パス_26907" data-name="パス 26907" d="M113.334,164.855a.3.3,0,0,1-.4.45c-.075-.048-.139-.112-.215-.158a.127.127,0,0,0-.2.1.934.934,0,0,0,.007.224c.009.076.037.15.038.225a.279.279,0,0,1-.21.285.3.3,0,0,1-.335-.127.978.978,0,0,1-.145-.536c.013-.075.026-.177.05-.276a.707.707,0,0,1,1.047-.477,1.412,1.412,0,0,1,.353.288" transform="translate(-67.947 -99.885)" fill="#373635"/>
        <path id="パス_26908" data-name="パス 26908" d="M108.657,156.113a5.429,5.429,0,0,1,.282,1.571,4.318,4.318,0,0,1-.187,1.23,3.3,3.3,0,0,1-.262.554.653.653,0,0,1-.183.193.268.268,0,0,1-.353-.02.293.293,0,0,1-.082-.315.54.54,0,0,1,.074-.134,1.993,1.993,0,0,0,.348-.849,3.127,3.127,0,0,0-.275-2.131.916.916,0,0,1-.055-.1.3.3,0,0,1,.1-.344.318.318,0,0,1,.361,0,.653.653,0,0,1,.227.348" transform="translate(-65.501 -94.562)" fill="#373635"/>
        <path id="パス_26909" data-name="パス 26909" d="M99.629,158.67a1,1,0,0,1,.014.23c-.022.617-.034,1.234-.075,1.849a3.443,3.443,0,0,1-.629,1.8c-.1.136-.192.273-.289.409a1.256,1.256,0,0,0-.212.4.291.291,0,0,1-.452.193,3.666,3.666,0,0,1-.5-.277.8.8,0,0,0-1.283.511,1.379,1.379,0,0,0,.595,1.367.939.939,0,0,0,.955,0c.045-.026.085-.059.131-.08a.27.27,0,0,1,.319.053.29.29,0,0,1,.068.32.5.5,0,0,1-.3.287,1.592,1.592,0,0,1-1.128.086,1.573,1.573,0,0,1-.963-.778,2.032,2.032,0,0,1-.253-1.41,1.362,1.362,0,0,1,1.722-1.052c.2.056.384.142.612.228a3.67,3.67,0,0,0,1.066-2.417c.013-.462,0-.925,0-1.387a2.363,2.363,0,0,1,.007-.308.3.3,0,0,1,.589-.024" transform="translate(-58.053 -96.214)" fill="#373635"/>
        <path id="パス_26910" data-name="パス 26910" d="M87.138,197.333a.046.046,0,0,1,.076.049.349.349,0,0,1-.078-.048l0,0" transform="translate(-52.918 -119.831)" fill="#373635"/>
        <path id="パス_26911" data-name="パス 26911" d="M159.428,4.9V17.756h-1.917v-.37h1.548V5.271h-36l.208-.182L123.1,4.9Z" transform="translate(-74.731 -2.977)" fill="#373635"/>
        <path id="パス_26912" data-name="パス 26912" d="M158.3,6.212H122.543l-.131-.149.253-.22h36V17.958h-1.547v-.37H158.3Z" transform="translate(-74.341 -3.548)" fill="#373635"/>
        <path id="パス_26913" data-name="パス 26913" d="M201.263,91.745H195.1v-.369h5.8V74.508h.369Z" transform="translate(-118.483 -45.249)" fill="#373635"/>
        <rect id="長方形_8706" data-name="長方形 8706" width="0.369" height="7.24" transform="translate(82.411 14.779)" fill="#373635"/>
        <rect id="長方形_8707" data-name="長方形 8707" width="0.369" height="0.369" transform="translate(82.411 14.41)" fill="#373635"/>
        <path id="パス_26914" data-name="パス 26914" d="M209.857,62.942V56.072h.369v7.24h-.369Z" transform="translate(-127.446 -34.052)" fill="#373635"/>
        <rect id="長方形_8708" data-name="長方形 8708" width="0.369" height="0.369" transform="translate(82.042 28.89)" fill="#373635"/>
        <rect id="長方形_8709" data-name="長方形 8709" width="0.369" height="0.369" transform="translate(82.042 22.02)" fill="#373635"/>
        <rect id="長方形_8710" data-name="長方形 8710" width="0.369" height="7.24" transform="translate(82.042 14.779)" fill="#373635"/>
        <path id="パス_26915" data-name="パス 26915" d="M208.917,63.144V57.012h.369v6.5h-.369Z" transform="translate(-126.875 -34.623)" fill="#373635"/>
        <path id="パス_26916" data-name="パス 26916" d="M200.894,91.376h-5.8v-.369h5.427v-16.5h.369Z" transform="translate(-118.483 -45.248)" fill="#373635"/>
        <rect id="長方形_8711" data-name="長方形 8711" width="3.428" height="0.369" transform="translate(78.614 28.521)" fill="#373635"/>
        <rect id="長方形_8712" data-name="長方形 8712" width="3.428" height="0.37" transform="translate(78.614 22.388)" fill="#373635"/>
        <path id="パス_26917" data-name="パス 26917" d="M156.585,73.568v.369h-33.84v-.369h33.84Z" transform="translate(-74.543 -44.678)" fill="#373635"/>
        <rect id="長方形_8713" data-name="長方形 8713" width="0.739" height="0.369" transform="translate(77.875 28.521)" fill="#373635"/>
        <rect id="長方形_8714" data-name="長方形 8714" width="0.739" height="5.763" transform="translate(77.875 22.758)" fill="#373635"/>
        <rect id="長方形_8715" data-name="長方形 8715" width="0.739" height="0.37" transform="translate(77.875 22.388)" fill="#373635"/>
        <rect id="長方形_8716" data-name="長方形 8716" width="3.25" height="0.369" transform="translate(74.625 28.521)" fill="#373635"/>
        <rect id="長方形_8717" data-name="長方形 8717" width="3.25" height="0.37" transform="translate(74.625 22.388)" fill="#373635"/>
        <path id="パス_26918" data-name="パス 26918" d="M192.62,56.441h-3.677v-.369h7.843v.369H192.62Z" transform="translate(-114.745 -34.052)" fill="#373635"/>
        <rect id="長方形_8718" data-name="長方形 8718" width="0.739" height="0.369" transform="translate(73.886 28.521)" fill="#373635"/>
        <path id="パス_26919" data-name="パス 26919" d="M188.887,57.952v5.763h-.739V57.952h.739Z" transform="translate(-114.262 -35.195)" fill="#373635"/>
        <rect id="長方形_8719" data-name="長方形 8719" width="0.426" height="0.37" transform="translate(74.198 22.388)" fill="#373635"/>
        <rect id="長方形_8720" data-name="長方形 8720" width="0.312" height="0.37" transform="translate(73.886 22.388)" fill="#373635"/>
        <rect id="長方形_8721" data-name="長方形 8721" width="3.62" height="0.369" transform="translate(70.265 28.521)" fill="#373635"/>
        <path id="パス_26920" data-name="パス 26920" d="M188,56.071h.37v.369H188Z" transform="translate(-114.174 -34.052)" fill="#373635"/>
        <path id="パス_26921" data-name="パス 26921" d="M182.55,57.012v.37h-3.62v-.37h3.62Z" transform="translate(-108.664 -34.623)" fill="#373635"/>
        <path id="パス_26922" data-name="パス 26922" d="M175.706,39.824h-7.343v-.369h7.713V45.98h-.369Z" transform="translate(-102.247 -23.961)" fill="#373635"/>
        <path id="パス_26923" data-name="パス 26923" d="M182.912,85.857h2v2.562h-2Zm.37,2.192h1.26V86.227h-1.26Z" transform="translate(-111.082 -52.141)" fill="#373635"/>
        <path id="パス_26924" data-name="パス 26924" d="M181.972,84.917h2.738v3.3h-2.738Zm.369,2.931h2V85.286h-2Z" transform="translate(-110.512 -51.57)" fill="#373635"/>
        <rect id="長方形_8722" data-name="長方形 8722" width="0.739" height="0.369" transform="translate(69.527 28.521)" fill="#373635"/>
        <rect id="長方形_8723" data-name="長方形 8723" width="0.739" height="5.763" transform="translate(69.527 22.758)" fill="#373635"/>
        <rect id="長方形_8724" data-name="長方形 8724" width="0.739" height="0.37" transform="translate(69.527 22.388)" fill="#373635"/>
        <path id="パス_26925" data-name="パス 26925" d="M183.48,79.707h-5.927V93.94h-.369v-14.6h6.665v14.6h-.369Z" transform="translate(-107.604 -48.182)" fill="#373635"/>
        <path id="パス_26926" data-name="パス 26926" d="M176.243,78.4h7.4V93.369h-.37v-14.6h-6.666v14.6h-.369Z" transform="translate(-107.032 -47.61)" fill="#373635"/>
        <rect id="長方形_8725" data-name="長方形 8725" width="3.411" height="0.369" transform="translate(66.116 28.521)" fill="#373635"/>
        <rect id="長方形_8726" data-name="長方形 8726" width="3.411" height="0.37" transform="translate(66.116 22.388)" fill="#373635"/>
        <path id="パス_26927" data-name="パス 26927" d="M176.076,56.441h-7.713v-.369h7.713Z" transform="translate(-102.247 -34.052)" fill="#373635"/>
        <rect id="長方形_8727" data-name="長方形 8727" width="0.739" height="0.369" transform="translate(65.377 28.521)" fill="#373635"/>
        <rect id="長方形_8728" data-name="長方形 8728" width="0.739" height="5.763" transform="translate(65.377 22.758)" fill="#373635"/>
        <rect id="長方形_8729" data-name="長方形 8729" width="0.369" height="0.369" transform="translate(65.747 22.02)" fill="#373635"/>
        <rect id="長方形_8730" data-name="長方形 8730" width="0.369" height="6.156" transform="translate(65.747 15.863)" fill="#373635"/>
        <rect id="長方形_8731" data-name="長方形 8731" width="0.369" height="0.369" transform="translate(65.747 15.494)" fill="#373635"/>
        <path id="パス_26928" data-name="パス 26928" d="M167.221,57.012v.37h-.739v-.37h.739Z" transform="translate(-101.104 -34.623)" fill="#373635"/>
        <rect id="長方形_8732" data-name="長方形 8732" width="0.369" height="0.369" transform="translate(65.378 22.02)" fill="#373635"/>
        <rect id="長方形_8733" data-name="長方形 8733" width="0.369" height="6.156" transform="translate(65.378 15.863)" fill="#373635"/>
        <rect id="長方形_8734" data-name="長方形 8734" width="0.369" height="0.369" transform="translate(65.378 15.494)" fill="#373635"/>
        <rect id="長方形_8735" data-name="長方形 8735" width="3.681" height="0.369" transform="translate(61.696 28.521)" fill="#373635"/>
        <rect id="長方形_8736" data-name="長方形 8736" width="3.681" height="0.37" transform="translate(61.696 22.388)" fill="#373635"/>
        <path id="パス_26929" data-name="パス 26929" d="M153.275,81.342V95.157h-.369V81.711h-5.761v-.369Z" transform="translate(-89.361 -49.399)" fill="#373635"/>
        <rect id="長方形_8737" data-name="長方形 8737" width="0.739" height="0.369" transform="translate(60.957 28.521)" fill="#373635"/>
        <rect id="長方形_8738" data-name="長方形 8738" width="0.739" height="5.763" transform="translate(60.957 22.758)" fill="#373635"/>
        <rect id="長方形_8739" data-name="長方形 8739" width="0.739" height="0.37" transform="translate(60.957 22.388)" fill="#373635"/>
        <rect id="長方形_8740" data-name="長方形 8740" width="3.694" height="0.369" transform="translate(57.264 28.521)" fill="#373635"/>
        <path id="パス_26930" data-name="パス 26930" d="M146.842,45.98V39.454h7.713v.369h-7.343V45.98Z" transform="translate(-89.177 -23.961)" fill="#373635"/>
        <path id="パス_26931" data-name="パス 26931" d="M146.842,56.441v-.369h7.713v.369h-7.713Z" transform="translate(-89.177 -34.052)" fill="#373635"/>
        <rect id="長方形_8741" data-name="長方形 8741" width="0.369" height="13.446" transform="translate(57.415 32.312)" fill="#373635"/>
        <rect id="長方形_8742" data-name="長方形 8742" width="0.369" height="0.369" transform="translate(57.415 31.943)" fill="#373635"/>
        <rect id="長方形_8743" data-name="長方形 8743" width="0.37" height="0.369" transform="translate(57.295 22.02)" fill="#373635"/>
        <path id="パス_26932" data-name="パス 26932" d="M145.9,38.514h16.9v6.895h-.37V38.883H146.271v6.526h-.37Z" transform="translate(-88.605 -23.389)" fill="#373635"/>
        <path id="パス_26933" data-name="パス 26933" d="M146.27,57.012h3.292v.37H145.9v-.37Z" transform="translate(-88.605 -34.623)" fill="#373635"/>
        <rect id="長方形_8744" data-name="長方形 8744" width="0.369" height="13.446" transform="translate(57.046 32.312)" fill="#373635"/>
        <rect id="長方形_8745" data-name="長方形 8745" width="0.369" height="0.369" transform="translate(57.046 31.943)" fill="#373635"/>
        <rect id="長方形_8746" data-name="長方形 8746" width="0.031" height="0.37" transform="translate(57.264 22.388)" fill="#373635"/>
        <rect id="長方形_8747" data-name="長方形 8747" width="0.739" height="0.369" transform="translate(56.525 28.521)" fill="#373635"/>
        <rect id="長方形_8748" data-name="長方形 8748" width="0.739" height="5.763" transform="translate(56.525 22.758)" fill="#373635"/>
        <rect id="長方形_8749" data-name="長方形 8749" width="0.739" height="0.37" transform="translate(56.525 22.388)" fill="#373635"/>
        <rect id="長方形_8750" data-name="長方形 8750" width="3.694" height="0.369" transform="translate(52.831 28.521)" fill="#373635"/>
        <rect id="長方形_8751" data-name="長方形 8751" width="3.694" height="0.37" transform="translate(52.831 22.388)" fill="#373635"/>
        <rect id="長方形_8752" data-name="長方形 8752" width="0.739" height="0.369" transform="translate(52.092 28.521)" fill="#373635"/>
        <rect id="長方形_8753" data-name="長方形 8753" width="0.739" height="5.763" transform="translate(52.092 22.758)" fill="#373635"/>
        <rect id="長方形_8754" data-name="長方形 8754" width="0.739" height="0.37" transform="translate(52.092 22.388)" fill="#373635"/>
        <rect id="長方形_8755" data-name="長方形 8755" width="3.89" height="0.369" transform="translate(48.202 28.521)" fill="#373635"/>
        <rect id="長方形_8756" data-name="長方形 8756" width="3.89" height="0.37" transform="translate(48.202 22.388)" fill="#373635"/>
        <path id="パス_26934" data-name="パス 26934" d="M126.635,56.441h-3.89v-.369h9.093v.369h-5.2Z" transform="translate(-74.543 -34.052)" fill="#373635"/>
        <path id="パス_26935" data-name="パス 26935" d="M129.655,95.157V81.342h6.13v.369h-5.76V95.157Z" transform="translate(-78.74 -49.399)" fill="#373635"/>
        <path id="パス_26936" data-name="パス 26936" d="M128.714,80.4h13.737V94.586h-.369V80.77h-13V94.586h-.37Z" transform="translate(-78.168 -48.828)" fill="#373635"/>
        <path id="パス_26937" data-name="パス 26937" d="M122.174,91.007v.369h-.369V74.508h.369Z" transform="translate(-73.972 -45.249)" fill="#373635"/>
        <rect id="長方形_8757" data-name="長方形 8757" width="0.369" height="0.369" transform="translate(47.833 22.02)" fill="#373635"/>
        <path id="パス_26938" data-name="パス 26938" d="M122.174,6.553V17.929h-.369V6.613l.238-.209Z" transform="translate(-73.972 -3.889)" fill="#373635"/>
        <rect id="長方形_8758" data-name="長方形 8758" width="0.369" height="0.369" transform="translate(47.833 28.521)" fill="#373635"/>
        <path id="パス_26939" data-name="パス 26939" d="M122.174,35.754h34.578v.369H121.805v-.369Z" transform="translate(-73.972 -21.713)" fill="#373635"/>
        <path id="パス_26940" data-name="パス 26940" d="M121.8,36.694h34.578v.369H121.8Z" transform="translate(-73.972 -22.284)" fill="#373635"/>
        <rect id="長方形_8759" data-name="長方形 8759" width="0.369" height="7.24" transform="translate(47.833 14.779)" fill="#373635"/>
        <path id="パス_26941" data-name="パス 26941" d="M122.174,57.381v5.763h-.369V57.012h.369Z" transform="translate(-73.972 -34.623)" fill="#373635"/>
        <rect id="長方形_8760" data-name="長方形 8760" width="0.369" height="0.369" transform="translate(47.833 28.89)" fill="#373635"/>
        <rect id="長方形_8761" data-name="長方形 8761" width="0.369" height="7.24" transform="translate(47.464 14.779)" fill="#373635"/>
        <path id="パス_26942" data-name="パス 26942" d="M121.234,6.936V18.253h-.369V7.26Z" transform="translate(-73.401 -4.212)" fill="#373635"/>
        <rect id="長方形_8762" data-name="長方形 8762" width="0.369" height="0.369" transform="translate(47.463 28.89)" fill="#373635"/>
        <path id="パス_26943" data-name="パス 26943" d="M120.864,36.492v-.739h.369v.739Z" transform="translate(-73.401 -21.713)" fill="#373635"/>
        <rect id="長方形_8763" data-name="長方形 8763" width="0.369" height="0.369" transform="translate(47.463 22.019)" fill="#373635"/>
        <path id="パス_26944" data-name="パス 26944" d="M120.864,57.012h.369v6.132h-.369V57.012Z" transform="translate(-73.401 -34.623)" fill="#373635"/>
        <rect id="長方形_8764" data-name="長方形 8764" width="0.369" height="0.369" transform="translate(47.463 28.521)" fill="#373635"/>
        <path id="パス_26945" data-name="パス 26945" d="M120.864,91.007v-16.5h.369V91.376h-.369Z" transform="translate(-73.401 -45.249)" fill="#373635"/>
        <rect id="長方形_8765" data-name="長方形 8765" width="2.216" height="0.37" transform="translate(45.247 22.388)" fill="#373635"/>
        <rect id="長方形_8766" data-name="長方形 8766" width="2.216" height="0.369" transform="translate(45.247 22.02)" fill="#373635"/>
        <path id="パス_26946" data-name="パス 26946" d="M96.779,6.508V7l-15.2,13.318v-.167h-.369Z" transform="translate(-49.316 -3.953)" fill="#373635"/>
        <path id="パス_26947" data-name="パス 26947" d="M96.081,5.259v.49L80.507,19.393h-.37l-.082-.094Z" transform="translate(-48.618 -3.194)" fill="#373635"/>
        <rect id="長方形_8767" data-name="長方形 8767" width="0.37" height="0.369" transform="translate(44.878 22.02)" fill="#373635"/>
        <path id="パス_26948" data-name="パス 26948" d="M100.047,39.824H91.822V45.98h-.37V39.455h8.964V45.98h-.369Z" transform="translate(-55.539 -23.961)" fill="#373635"/>
        <path id="パス_26949" data-name="パス 26949" d="M91.822,56.071h8.6v.369H91.453v-.369Z" transform="translate(-55.539 -34.052)" fill="#373635"/>
        <rect id="長方形_8768" data-name="長方形 8768" width="0.369" height="0.369" transform="translate(35.544 22.02)" fill="#373635"/>
        <path id="パス_26950" data-name="パス 26950" d="M90.512,38.514h9.7v6.895h-.369V38.883H90.881v6.526h-.369Z" transform="translate(-54.968 -23.389)" fill="#373635"/>
        <path id="パス_26951" data-name="パス 26951" d="M90.882,57.012h9.334v.37h-9.7v-.37Z" transform="translate(-54.968 -34.623)" fill="#373635"/>
        <rect id="長方形_8769" data-name="長方形 8769" width="3.298" height="0.369" transform="translate(32.246 22.019)" fill="#373635"/>
        <path id="パス_26952" data-name="パス 26952" d="M96.139,83.216H87.5V96.071h-.369V82.846h9.382V96.071h-.369Z" transform="translate(-52.912 -50.312)" fill="#373635"/>
        <path id="パス_26953" data-name="パス 26953" d="M86.185,81.906H96.306V95.5h-.369V82.275H86.555V95.5h-.369Z" transform="translate(-52.34 -49.742)" fill="#373635"/>
        <path id="パス_26954" data-name="パス 26954" d="M81.573,41.251v.167l-.37.326V41.25Z" transform="translate(-49.314 -25.051)" fill="#373635"/>
        <path id="パス_26955" data-name="パス 26955" d="M81.184,42l.37-.326-.013,5.653h-.37Z" transform="translate(-49.296 -25.31)" fill="#373635"/>
        <path id="パス_26956" data-name="パス 26956" d="M81.541,56.071v.369h-.369v-.369Z" transform="translate(-49.295 -34.052)" fill="#373635"/>
        <path id="パス_26957" data-name="パス 26957" d="M81.54,57.012h0Z" transform="translate(-49.295 -34.623)" fill="#373635"/>
        <path id="パス_26958" data-name="パス 26958" d="M80.63,41.25v.493l-.37.324v-.493Z" transform="translate(-48.741 -25.051)" fill="#373635"/>
        <path id="パス_26959" data-name="パス 26959" d="M80.632,41.248l-.37.324v-.325Z" transform="translate(-48.743 -25.049)" fill="#373635"/>
        <path id="パス_26960" data-name="パス 26960" d="M80.613,42.505,80.6,47.833h-.369l.011-5Z" transform="translate(-48.725 -25.813)" fill="#373635"/>
        <rect id="長方形_8770" data-name="長方形 8770" width="0.369" height="0.369" transform="translate(31.506 22.387) rotate(-89.817)" fill="#373635"/>
        <path id="パス_26961" data-name="パス 26961" d="M74.9,73.568H92.949v.369H74.9Z" transform="translate(-45.485 -44.678)" fill="#373635"/>
        <path id="パス_26962" data-name="パス 26962" d="M75.267,91.007H79.33v.369H74.9V74.508h.37Z" transform="translate(-45.485 -45.249)" fill="#373635"/>
        <path id="パス_26963" data-name="パス 26963" d="M75.844,17.615l.805-.705.082.094v.325l-.921.807L74.446,16.58,91.859,1.327l1.23,1.4h-.414v.09l-.851-.972L74.967,16.614Z" transform="translate(-45.211 -0.806)" fill="#373635"/>
        <path id="パス_26964" data-name="パス 26964" d="M74.326,91.376h4.433v.369h-4.8V74.507h.37Z" transform="translate(-44.914 -45.248)" fill="#373635"/>
        <path id="パス_26965" data-name="パス 26965" d="M73.957,72.627h18.42V73H73.957Z" transform="translate(-44.914 -44.106)" fill="#373635"/>
        <rect id="長方形_8771" data-name="長方形 8771" width="0.37" height="0.369" transform="translate(29.043 28.89)" fill="#373635"/>
        <path id="パス_26966" data-name="パス 26966" d="M74.968,17.852l-1.85-2.112L91.086,0l1.686,1.925h-.49l-1.23-1.4L73.639,15.774,75,17.33l.921-.807v.493Z" transform="translate(-44.405 0)" fill="#373635"/>
        <path id="パス_26967" data-name="パス 26967" d="M71.505,63.144h.739v.369H71.136v-6.5h7.609v.369h-7.24Z" transform="translate(-43.201 -34.623)" fill="#373635"/>
        <path id="パス_26968" data-name="パス 26968" d="M70.564,62.942h1.108v.369H70.195v-7.24h3.942v.368H70.564Z" transform="translate(-42.629 -34.052)" fill="#373635"/>
      </g>
    </g>
  </g>
</svg>
