<svg xmlns="http://www.w3.org/2000/svg" xmlns:xlink="http://www.w3.org/1999/xlink" width="136" height="116" viewBox="0 0 136 116">
  <defs>
    <clipPath id="clip-path">
      <rect id="長方形_9448" data-name="長方形 9448" width="136" height="116" transform="translate(864 12351)" fill="none"/>
    </clipPath>
    <clipPath id="clip-path-2">
      <rect id="長方形_9447" data-name="長方形 9447" width="73.155" height="108.684" transform="translate(0 0)" fill="#1f1f1f"/>
    </clipPath>
  </defs>
  <g id="マスクグループ_341" data-name="マスクグループ 341" transform="translate(-864 -12351)" clip-path="url(#clip-path)">
    <g id="グループ_26272" data-name="グループ 26272" transform="translate(900.705 12353.004)">
      <g id="グループ_26271" data-name="グループ 26271" transform="translate(0 -0.004)" clip-path="url(#clip-path-2)">
        <path id="パス_110459" data-name="パス 110459" d="M559.65,214.513a1.69,1.69,0,0,1-.013,1.694,1.806,1.806,0,0,1-1.58.829,3.345,3.345,0,0,1-2.081-.864l-.717-.595c-1.979-1.642-4.69-3.891-5.927-4.322a.372.372,0,0,1,.109-.723c.255-.008.512-.014.767-.014,2.746,0,7.624.519,9.442,3.995M559,215.82a.965.965,0,0,0-.012-.963c-1.492-2.854-5.423-3.493-8.058-3.583a59.108,59.108,0,0,1,4.8,3.73c.249.206.489.406.716.593a2.56,2.56,0,0,0,1.607.694,1.059,1.059,0,0,0,.945-.471" transform="translate(-490.746 -188.152)" fill="#1f1f1f"/>
        <path id="パス_110460" data-name="パス 110460" d="M552.439,109.964a1.664,1.664,0,0,1,1.4,1.635c0,.819-.644,1.9-2.439,2.258-.289.057-.595.118-.914.18-2.524.492-5.98,1.165-7.1,1.851a.372.372,0,0,1-.49-.543c1.566-2.053,4.739-5.5,8.4-5.5a5.7,5.7,0,0,1,1.148.117m.652,1.632a.926.926,0,0,0-.8-.9,4.9,4.9,0,0,0-1-.1c-1.3,0-3.837.56-6.887,4.073a59.022,59.022,0,0,1,5.936-1.358l.913-.178c1.354-.269,1.837-.993,1.839-1.532" transform="translate(-485.147 -98.176)" fill="#1f1f1f"/>
        <path id="パス_110461" data-name="パス 110461" d="M592.729,451.491a.342.342,0,0,1,.265-.256c.07-.168.141-.336.221-.5a.3.3,0,0,1,.184-.167c.181.3.094.562-.257.807a1.487,1.487,0,0,1-.156.1l-.284.134c.008-.037.019-.077.028-.114" transform="translate(-529.731 -402.698)" fill="#1f1f1f"/>
        <path id="パス_110462" data-name="パス 110462" d="M530.374,832.249c-.045,0-.089-.011-.133-.018a.411.411,0,0,1,.1-.038.389.389,0,0,1,.61-.216h.007c-.018-.019.017,0,0,0l.014,0c.038,0,.076,0,.116,0a.712.712,0,0,1,.39.086.642.642,0,0,1,.168.171,4.6,4.6,0,0,1-1.272.007" transform="translate(-473.907 -743.512)" fill="#1f1f1f"/>
        <path id="パス_110463" data-name="パス 110463" d="M530.138,843.589a.434.434,0,0,1-.078.066.425.425,0,0,1-.018-.491.4.4,0,0,1,.631-.112,3.635,3.635,0,0,1,.548.5.329.329,0,0,1-.1,0,.544.544,0,0,1-.184.117c-.282.1-.471-.072-.625-.308a1.423,1.423,0,0,1-.172.227" transform="translate(-473.667 -753.391)" fill="#1f1f1f"/>
        <path id="パス_110464" data-name="パス 110464" d="M494.511,1008.331a.356.356,0,0,1,.472.345,2.34,2.34,0,0,1-.137.739.5.5,0,0,1-.236-.379c-.036-.235-.067-.47-.1-.706" transform="translate(-441.973 -901.19)" fill="#1f1f1f"/>
        <path id="パス_110465" data-name="パス 110465" d="M471.656,867.6a6.022,6.022,0,0,0,.567-.283.347.347,0,0,0,.171-.215l.062.012c-.012.158-.032.315-.034.475-.013.978-.012,1.959-.037,2.937a4.38,4.38,0,0,0,.219,1.5,53,53,0,0,1,1.492,6.178c.274,1.359.53,2.721.788,4.082a2.273,2.273,0,0,1,.049.484.434.434,0,0,1-.38.475.366.366,0,0,1-.2-.045,2.346,2.346,0,0,0,.137-.739.356.356,0,0,0-.472-.345c-.047-.35-.1-.7-.164-1.046-.407-2.079-.8-4.164-1.262-6.232a29.969,29.969,0,0,0-.882-2.925,2.655,2.655,0,0,1-.127-.956c.028-1,.049-2,.069-3,0-.117,0-.235,0-.362" transform="translate(-421.479 -774.983)" fill="#1f1f1f"/>
        <path id="パス_110466" data-name="パス 110466" d="M465.752,862.64a.38.38,0,0,1,.546.428.347.347,0,0,1-.171.215,6.026,6.026,0,0,1-.567.283c0-.069,0-.14,0-.215-.156.008-.274.027-.391.021a.389.389,0,0,1-.407-.3,5.594,5.594,0,0,0,.991-.435" transform="translate(-415.384 -770.944)" fill="#1f1f1f"/>
        <path id="パス_110467" data-name="パス 110467" d="M364.1,493.417a5.185,5.185,0,0,1,2.643.311c.343.115.669.281,1.06.447a3.515,3.515,0,0,0-.085-.45c-.4-1.178-.787-2.359-1.2-3.529q-1.769-4.953-3.557-9.9c-.157-.441-.3-.889-.448-1.332-.044-.13-.107-.251-.2-.461a2.558,2.558,0,0,0-.125.353c-.3,1.935-.584,3.87-.884,5.8-.105.685-.227,1.366-.354,2.049-.094.507-.108.514-.65.707.1,1.677.228,3.362.3,5.048.047,1.073.071,2.148.1,3.234.012.625.025,1.253.041,1.888a2.954,2.954,0,0,0,.306.217c.483.261.973.513,1.46.77.269.143.537.29.838.453,0-.11-.005-.216,0-.322a.352.352,0,0,1,.263-.366.384.384,0,0,1,.44.131,1.2,1.2,0,0,1,.2.438,6.242,6.242,0,0,1,.143,1.027,9.243,9.243,0,0,1-.866,4.336,6.268,6.268,0,0,1-4.028,3.319,2.047,2.047,0,0,1-.6.07.384.384,0,0,1-.378-.336.389.389,0,0,1,.286-.418c.186-.058.379-.093.584-.141a4.037,4.037,0,0,0-1.227-1.026,1.169,1.169,0,0,0-.539-.023c-.043.009-.085.016-.128.02a.641.641,0,0,0-.168-.171.712.712,0,0,0-.39-.086c-.039,0-.078,0-.116,0l-.014,0c.016,0-.019-.02,0,0H356.8a.389.389,0,0,0-.61.216.415.415,0,0,0-.1.038,2.834,2.834,0,0,1-1.135-.392,2.581,2.581,0,0,0-.294-.135,6.85,6.85,0,0,1-3.929,3.944l-.062-.012a.38.38,0,0,0-.546-.428,5.583,5.583,0,0,1-.991.435s0,0,0,0a.409.409,0,0,1,.249-.446,3.173,3.173,0,0,1,.4-.158c.21-.074.426-.138.637-.21a5.216,5.216,0,0,0,2.141-1.373c.041-.045.082-.092.126-.135a4.512,4.512,0,0,0,1.267-2.218,2.019,2.019,0,0,0-.118-.185,7.547,7.547,0,0,1-1.446-2.941,19.934,19.934,0,0,1-.629-4.656,6.693,6.693,0,0,0-.231-1.753,2.247,2.247,0,0,0-.111-.248c-.187.089-.35.162-.506.248-.285.156-.574.31-.845.491-.092.061-.135.194-.2.294a.392.392,0,0,1-.516.2c-.4-.152-.805-.261-1.2-.435-2.867-1.283-5.618-2.806-8.41-4.239a39.691,39.691,0,0,1-3.967-2.42c-.53-.356-.514-.573.055-.909l.59.012c-.058.055-.133.118-.233.2.125.1.241.214.371.3a34.2,34.2,0,0,0,3.6,2.2c1.63.841,3.255,1.695,4.9,2.506,1.222.606,2.474,1.155,3.711,1.734a.728.728,0,0,0,.8-.064c.353-.241.737-.432,1.108-.65.1-.059.192-.133.3-.21a1.212,1.212,0,0,0-.509-.461,5.2,5.2,0,0,0-1.715-.627c-.438-.1-.878-.178-1.316-.273a4.13,4.13,0,0,1-1.51-.642,3.634,3.634,0,0,1-.514-.432,1.172,1.172,0,0,1-.319-1.289c.013-.037.027-.075.037-.114a.5.5,0,0,0,0-.085c-.185-.246-.393-.5-.573-.766a1.117,1.117,0,0,1,.186-1.676,1.631,1.631,0,0,1,.159-.119c-.048-.156-.092-.287-.126-.421-.062-.237-.129-.473-.168-.714-.152-.914-.084-1.269.848-1.893a2.789,2.789,0,0,1,.664-.3,10.865,10.865,0,0,1,4.525-.515,9.6,9.6,0,0,1,3.621,1.241c.176.094.351.2.514.287.123-.075.071-.159.041-.224a4.4,4.4,0,0,0-1.388-1.827c-.772-.569-1.531-1.154-2.285-1.748-.367-.29-.719-.6-1.057-.924a2.511,2.511,0,0,1-.715-1.393,1.81,1.81,0,0,1,.061-.906,1.208,1.208,0,0,1,.755-.823l.311-.111c.05-.363.1-.724.15-1.083.182-1.437.3-2.88.36-4.327a1.666,1.666,0,0,1,.023-.242.366.366,0,0,1,.724.034,1.93,1.93,0,0,1,0,.367c-.058.855-.11,1.709-.185,2.563-.079.912-.18,1.822-.275,2.763.129.066.248.137.374.191a23.4,23.4,0,0,1,4.188,2.514,3.875,3.875,0,0,1,.695.682,18.239,18.239,0,0,1,1.714,2.455c.566.991,1.121,1.989,1.681,2.983.038.068.085.13.117.181.159.005.137-.106.149-.17.163-.9.333-1.805.476-2.709.318-1.994.613-3.992.93-5.985.394-2.474.814-4.947,1.2-7.423.142-.926.219-1.863.32-2.8,0-.023,0-.048.007-.071.015-.049.027-.1.04-.149a.374.374,0,0,0,.736-.074v-.438a.411.411,0,0,1,.1.3c0,.039-.01.08-.015.12-.058.341-.136.68-.173,1.022-.269,2.5-.745,4.958-1.153,7.433a3.35,3.35,0,0,0,.186,2.2c1.339,4.239,2.958,8.378,4.477,12.554.448,1.226.857,2.465,1.286,3.7a1.54,1.54,0,0,1,.127.939c.081.075.134.137.2.186a9.467,9.467,0,0,1,2.672,3.528,13.646,13.646,0,0,1,1.259,4.948,6.357,6.357,0,0,1-.776,3.537c-.117.215-.235.431-.37.634a13.241,13.241,0,0,1-4,3.9,6.724,6.724,0,0,1-2.975,1.044,5.587,5.587,0,0,1-1.34-.052,7.7,7.7,0,0,1-3.076-1.127,8.567,8.567,0,0,1-2.295-2.087c-.3-.411-.628-.805-.954-1.2a2.5,2.5,0,0,0-.839-.787.346.346,0,0,1-.121-.091.437.437,0,0,0,.079-.066,1.437,1.437,0,0,0,.172-.227c.154.236.342.412.625.308a.543.543,0,0,0,.184-.117.325.325,0,0,0,.1,0,.375.375,0,0,1,.034.037c.469.54.918,1.093,1.378,1.64.142.172.29.34.432.506a7.756,7.756,0,0,0,1.91-.03,5.664,5.664,0,0,0,3.312-1.822,9.8,9.8,0,0,0,1.664-2.408,6.739,6.739,0,0,0,.583-4.228c-.032-.18-.07-.361-.087-.543a.364.364,0,0,1,.278-.417.394.394,0,0,1,.453.228,4.223,4.223,0,0,1,.153.591,7.815,7.815,0,0,1-.806,4.975,11.508,11.508,0,0,1-1.535,2.2,6.481,6.481,0,0,1-4.211,2.258c-.2.022-.4.056-.6.085.01.061,0,.115.024.132a6.551,6.551,0,0,0,3.948,1.448,4.982,4.982,0,0,0,2.081-.427,8.207,8.207,0,0,0,2.183-1.332,14.23,14.23,0,0,0,1.989-1.988,6.9,6.9,0,0,0,1.518-3.031,6.7,6.7,0,0,0,.037-2.194,13.071,13.071,0,0,0-1.565-4.8,8.427,8.427,0,0,0-2.928-3.061,5.433,5.433,0,0,0-2.655-.832,2.976,2.976,0,0,0-1.259.2,4.7,4.7,0,0,0-2.091,1.534.373.373,0,0,1-.527.152.4.4,0,0,1-.211-.352.513.513,0,0,1,.062-.234,1.224,1.224,0,0,1,.205-.3,5.658,5.658,0,0,1,3.022-1.746M346.329,491.4a3.548,3.548,0,0,0,1.4.58c.439.09.881.168,1.318.266a6.273,6.273,0,0,1,1.828.668,2.846,2.846,0,0,1,1.347,1.677,8.482,8.482,0,0,1,.278,1.435c.064.544.082,1.1.1,1.648a17.6,17.6,0,0,0,.629,3.853,6.558,6.558,0,0,0,.929,1.985c.075.115.184.279.291.29a.607.607,0,0,1,.617.556.317.317,0,0,0,.153.177,2.743,2.743,0,0,0,.6.3,2.976,2.976,0,0,0,1.572.074,1.7,1.7,0,0,1,1.6.37c.333.27.659.548.99.817.123.1.257.187.393.285a5.3,5.3,0,0,0,2.432-2.437,9.051,9.051,0,0,0,.8-3.675,2.685,2.685,0,0,0-.058-.45,1,1,0,0,1-.714-.1c-.662-.4-1.347-.754-2.1-1.169a1.046,1.046,0,0,1-.174.273.371.371,0,0,1-.633-.247,2.654,2.654,0,0,1-.027-.487c-.005-.978.013-1.959-.01-2.936-.033-1.385-.074-2.772-.152-4.155-.061-1.1-.194-2.194-.269-3.291a3.258,3.258,0,0,0-.394-1.4c-.467-.836-.933-1.673-1.41-2.505a18.477,18.477,0,0,0-1.713-2.455,2.939,2.939,0,0,0-.552-.567c-.815-.575-1.632-1.151-2.48-1.678a14.577,14.577,0,0,0-1.641-.815,1.546,1.546,0,0,0-.589-.128c-.317-.011-.481.154-.522.478a1.47,1.47,0,0,0,.1.777,1.975,1.975,0,0,0,.542.732c.433.369.87.739,1.321,1.089.611.474,1.236.934,1.859,1.393a4.533,4.533,0,0,1,1.238,1.418,6.39,6.39,0,0,1,.682,1.7.628.628,0,0,0,.279.447,18.615,18.615,0,0,1,1.8,1.465.635.635,0,0,1,.284.384.365.365,0,0,1-.127.385.355.355,0,0,1-.4.035,1.161,1.161,0,0,1-.2-.145c-.278-.238-.55-.483-.833-.717a6.75,6.75,0,0,0-.87-.669c-.264-.15-.509-.321-.759-.492a12.621,12.621,0,0,0-3.443-1.693,4.508,4.508,0,0,0-.892-.2,10.41,10.41,0,0,0-3.881.287,5.883,5.883,0,0,0-1.018.409.822.822,0,0,0-.488,1c.055.217.073.443.137.656a1.88,1.88,0,0,0,.205.367c.429-.1.824-.2,1.222-.281a32.3,32.3,0,0,1,3.336-.413,2.775,2.775,0,0,1,1.652.3,38.086,38.086,0,0,1,4.555,2.743c.312.227.607.48.9.735a.344.344,0,0,1,.086.441.4.4,0,0,1-.467.2,1.384,1.384,0,0,1-.359-.217c-.177-.137-.335-.3-.513-.433a34.555,34.555,0,0,0-4.718-2.822,1.568,1.568,0,0,0-.887-.176c-.446.038-.892.085-1.34.115a14.887,14.887,0,0,0-3.008.511,7.221,7.221,0,0,0-.7.233.581.581,0,0,0-.413.455,3.316,3.316,0,0,0,.219.4c.153.212.327.413.513.645.158-.017.26-.022.359-.038a21.578,21.578,0,0,1,3.472-.256,4.363,4.363,0,0,1,2.116.51,21.023,21.023,0,0,1,3.393,2.174,1.986,1.986,0,0,1,.231.2.4.4,0,0,1,.009.507.366.366,0,0,1-.446.088,4.234,4.234,0,0,1-.5-.344,20.3,20.3,0,0,0-3.109-1.938,3.59,3.59,0,0,0-1.829-.418c-.773.033-1.545.082-2.318.123a2.226,2.226,0,0,0-1.331.5,1.066,1.066,0,0,0,.5.588" transform="translate(-299.753 -417.006)" fill="#1f1f1f"/>
        <path id="パス_110468" data-name="パス 110468" d="M387.023,156.17a.372.372,0,0,1-.312.423,1.169,1.169,0,0,1-.186.014,4.564,4.564,0,0,1-2.52-1.254c-.437-.387-1.166-1.139-1.148-1.843a.372.372,0,0,1,.371-.362h.011a.371.371,0,0,1,.361.381c-.005.231.27.712.9,1.266a3.625,3.625,0,0,0,2.1,1.062.37.37,0,0,1,.423.312" transform="translate(-342.181 -136.876)" fill="#1f1f1f"/>
        <path id="パス_110469" data-name="パス 110469" d="M397.089,202.679a1.041,1.041,0,0,1-.2,1.177.54.54,0,0,1-.9-.3c-.021-.1-.022-.2-.034-.3a.741.741,0,0,1,.461-.784.489.489,0,0,1,.675.211" transform="translate(-353.885 -180.904)" fill="#1f1f1f"/>
        <path id="パス_110470" data-name="パス 110470" d="M323.511,275.953a1.039,1.039,0,0,1,.2.842c-.484,4.06-.932,6.122-2.028,6.122a.856.856,0,0,1-.164-.017,3.483,3.483,0,0,1-1.325-.625,1.386,1.386,0,0,0-.64-.313,3.279,3.279,0,0,0-1.288.418,4.163,4.163,0,0,1-1.633.506,1.363,1.363,0,0,1-.77-.224c-.462-.307-.748-1.179-.849-2.592-.1-1.344-.007-3.7.647-4.284a1.015,1.015,0,0,1,.7-.249,4.779,4.779,0,0,1,1.817.617,2.058,2.058,0,0,0,2.725.2,5.432,5.432,0,0,1,1.956-.667.835.835,0,0,1,.656.262m-.543.754a.453.453,0,0,0-.014-.261.278.278,0,0,0-.1-.012,5.386,5.386,0,0,0-1.637.6,3.82,3.82,0,0,1-1.323.478h-.014a5.453,5.453,0,0,1-2.029-.683,4.531,4.531,0,0,0-1.495-.545.276.276,0,0,0-.2.058,7.58,7.58,0,0,0-.4,3.677c.1,1.4.384,1.937.52,2.027a.622.622,0,0,0,.358.1,3.692,3.692,0,0,0,1.322-.438,4.019,4.019,0,0,1,1.558-.487c.028,0,.055,0,.083,0a1.986,1.986,0,0,1,1.02.443,2.784,2.784,0,0,0,1.056.51h.01s.345-.073.715-1.706c.245-1.079.411-2.395.575-3.76" transform="translate(-281.513 -246.263)" fill="#1f1f1f"/>
        <path id="パス_110471" data-name="パス 110471" d="M360.132,248.347c.253.014.415.011.575.035a.372.372,0,0,1,.335.37c0,.208-.147.338-.407.356q-.452.03-.907.052a.366.366,0,0,1-.4-.286.374.374,0,0,1,.243-.439,4.1,4.1,0,0,1,.566-.088" transform="translate(-321.141 -221.962)" fill="#1f1f1f"/>
        <path id="パス_110472" data-name="パス 110472" d="M282.292,153.488c.128,1.588-4.533,2.54-4.581,2.547a.443.443,0,0,1-.053,0,.371.371,0,0,1-.051-.739,14.338,14.338,0,0,0,2.292-.683c1.382-.542,1.662-.954,1.653-1.068a.371.371,0,1,1,.741-.059" transform="translate(-247.827 -136.875)" fill="#1f1f1f"/>
        <path id="パス_110473" data-name="パス 110473" d="M324.584,88.677a.364.364,0,0,1,.084.445.349.349,0,0,1-.412.176,1.828,1.828,0,0,1-.334-.147c-.809-.433-1.622-.854-2.42-1.306a10.538,10.538,0,0,1-4.105-4.33,2.633,2.633,0,0,1-.28-.93.61.61,0,0,1,0-.139,1.367,1.367,0,0,1,.046-.218.4.4,0,0,1,.378-.242,1.333,1.333,0,0,1,.26.16.332.332,0,0,1,.093.219,2.924,2.924,0,0,0,.625,1.565,9.421,9.421,0,0,0,3.392,3.275c.725.413,1.471.788,2.207,1.185.12.066.242.132.355.207.039.025.076.051.112.079" transform="translate(-283.421 -73.276)" fill="#1f1f1f"/>
        <path id="パス_110474" data-name="パス 110474" d="M306.667,204.663a.528.528,0,0,1-.745.156.755.755,0,0,1-.361-.663,1.691,1.691,0,0,1,.08-.475.523.523,0,0,1,.579-.425.572.572,0,0,1,.611.476,1.262,1.262,0,0,1-.164.931" transform="translate(-273.097 -181.662)" fill="#1f1f1f"/>
        <path id="パス_110475" data-name="パス 110475" d="M292.271,20.141c.326-.04.651-.091.973-.138a.4.4,0,0,1,.169.012c-.176.1-.347.222-.525.327a.379.379,0,0,1-.617-.2" transform="translate(-261.219 -17.874)" fill="#1f1f1f"/>
        <path id="パス_110476" data-name="パス 110476" d="M247.129,41.857a5.528,5.528,0,0,1-.373-2.219,1.721,1.721,0,0,0-.212.03,6.6,6.6,0,0,1-2.521.341,2.42,2.42,0,0,0-.488-.007,2.709,2.709,0,0,1-1.47-.3c-.541-.232-1.084-.458-1.664-.7-.107.481-.211.93-.308,1.379a3.909,3.909,0,0,1-.722,1.243c.05.046.075.08.108.092a1.314,1.314,0,0,0,.232.076,14.5,14.5,0,0,0,3.877.333c.447-.026.893-.034,1.341-.061.63-.037,1.257-.084,1.887-.13a2.428,2.428,0,0,0,.314-.07m8.4,9.6a17.479,17.479,0,0,1,2.509,1.395c.149.1.309.183.464.274a44.439,44.439,0,0,1,4.806-2.189,56.453,56.453,0,0,0,5.633-2.668c.1-.053.244-.063.272-.257a2.249,2.249,0,0,0-.275-.184,4,4,0,0,0-1.6-.374,9.672,9.672,0,0,0-2.61.243,9.039,9.039,0,0,0-5.314,3.141,1.884,1.884,0,0,0-.316.511.493.493,0,0,1-.5.364.51.51,0,0,1-.525-.339c-.058-.13-.118-.26-.183-.387a8.4,8.4,0,0,0-1.843-2.418,10.531,10.531,0,0,0-2.063-1.416,8.711,8.711,0,0,0-3.614-1.044,10.088,10.088,0,0,0-4.249.71,2.751,2.751,0,0,0-.278.153c.138.075.19.108.245.133,1.116.5,2.24.98,3.348,1.493,1,.463,1.978.967,2.974,1.435,1.032.486,2.073.952,3.113,1.424m-2.879-5.671a11.687,11.687,0,0,1,3.384,1.8,11.083,11.083,0,0,1,2.559,2.965,6.85,6.85,0,0,0,.7-.712c.248-.242.492-.489.752-.717s.5-.416.767-.6.572-.375.878-.572a1.847,1.847,0,0,0-.135-.232,4.777,4.777,0,0,0-1.178-1.147,5.437,5.437,0,0,0-1.856-.873c-1.3-.24-2.577-.6-3.87-.889a30.275,30.275,0,0,0-3.677-.615,1.919,1.919,0,0,0-1.023.042.35.35,0,0,1-.479-.25c-.025-.075-.028-.159-.046-.239-.082-.357-.159-.716-.253-1.071A2.345,2.345,0,0,0,249,42.3c-.154.032-.273.058-.392.081-.56.1-1.117.254-1.683.3q-1.828.151-3.662.216a14.528,14.528,0,0,1-3.882-.412c-.216-.052-.435-.093-.7-.149-.128.141-.265.29-.4.442q-.991,1.125-1.978,2.25a.074.074,0,0,0-.015.057.144.144,0,0,0,.025.053c.032.022.064.059.1.065,1.859.368,3.714.751,5.58,1.086a8.968,8.968,0,0,0,2.439.117,4.1,4.1,0,0,1,.667.039,10.823,10.823,0,0,1,3.676-1.032,9.347,9.347,0,0,1,3.87.372m.515-2.06c1,.175,2,.391,2.992.588.126-.2.235-.382.361-.555a6.05,6.05,0,0,1,.425-.521,14.2,14.2,0,0,0,2.863-5.079,17.054,17.054,0,0,0,.85-3.75,14.314,14.314,0,0,0,0-2.933c-.178-1.868-.367-3.734-.618-5.593-.263-1.939-.613-3.865-.914-5.8a43.618,43.618,0,0,0-1.981-7.562,28.764,28.764,0,0,0-1.5-3.609,14.773,14.773,0,0,0-2.832-3.891c-.626-.612-1.29-1.19-1.962-1.752a11.143,11.143,0,0,0-4.528-2.191,10.08,10.08,0,0,0-4.663.03,10.856,10.856,0,0,0-2.706.946c-.052.028-.1.055-.152.085a.4.4,0,0,0-.169-.012c-.322.047-.647.1-.973.138a.414.414,0,0,1,.14-.413,3.34,3.34,0,0,1,.6-.412A12.282,12.282,0,0,1,242.153.2,9.6,9.6,0,0,1,245.2.066a12.243,12.243,0,0,1,5.59,2.16,21.606,21.606,0,0,1,3.262,2.951,16.387,16.387,0,0,1,2.943,4.766,45.125,45.125,0,0,1,2.854,9.718c.275,1.629.562,3.254.8,4.887.207,1.391.368,2.789.527,4.188.114,1.012.184,2.03.288,3.044a14.832,14.832,0,0,1-.529,5.388,16.883,16.883,0,0,1-2.553,5.588c-.38.528-.818,1.015-1.228,1.521-.037.046-.066.1-.155.235.623.137,1.178.25,1.729.386a4.508,4.508,0,0,1,.867.279,6.994,6.994,0,0,1,2.772,2.249,1.2,1.2,0,0,0,.151.141c.185-.066.374-.136.564-.2a11.5,11.5,0,0,1,4.567-.668,4.008,4.008,0,0,1,1.253.259,8.66,8.66,0,0,1,.922.472,1.233,1.233,0,0,1,.284.231,1.113,1.113,0,0,1,.163.205.3.3,0,0,0-.184.167c-.08.165-.151.333-.221.5a.342.342,0,0,0-.265.256c-.009.037-.019.076-.028.114-1.971.926-3.918,1.9-5.95,2.7-.892.347-1.772.732-2.65,1.113-.429.188-.846.4-1.262.617a1.523,1.523,0,0,0-.709.56.32.32,0,0,1-.432.115c-.055-.024-.114-.047-.17-.069a2.527,2.527,0,0,1-.491-.238,35.845,35.845,0,0,0-5.475-2.842c-.316-.144-.629-.29-.941-.441-1.4-.67-2.788-1.352-4.19-2.009-.534-.25-1.092-.452-1.647-.658-.36-.134-.592.01-.64.394-.118.952-.231,1.9-.324,2.858-.175,1.785-.334,3.572-.5,5.359-.186,1.971-.274,3.946-.338,5.924-.085,2.548-.2,5.094-.308,7.642a4.653,4.653,0,0,1-.046.487c-.051.369-.064.461-.235.628l-.59-.012c0-.14-.008-.281,0-.422.082-1.036.2-2.072.245-3.109.105-2.241.183-4.482.263-6.725.054-1.569.173-3.136.336-4.7.138-1.339.253-2.679.378-4.02q.207-2.222.413-4.445c.011-.117,0-.236,0-.374a1.877,1.877,0,0,0-.253-.03,17.556,17.556,0,0,1-3.76-.433c-1.4-.275-2.8-.573-4.193-.857-.158-.033-.32-.053-.547-.089l-.491-.435q1.88-2.128,3.766-4.257a3.008,3.008,0,0,0,.54-.807,3.1,3.1,0,0,0-.182-2.823c-2.657-4.818-5.352-9.616-8.033-14.423l.551-.312c.992,1.745,1.961,3.506,2.943,5.257q2.618,4.668,5.243,9.333c.117.209.2.44.322.718l2.427,1.01a.571.571,0,0,0,.176.042,9.339,9.339,0,0,0,2.982-.115,7.014,7.014,0,0,0,3.063-1.588c.708-.675,1.418-1.35,2.079-2.072a10.816,10.816,0,0,0,2.383-4.367,27.479,27.479,0,0,0,1.243-8.071,7.224,7.224,0,0,0-.053-.729c-.048-.41.055-.529.5-.55a1.052,1.052,0,0,0,.116,0c.012,0,.021-.03.03-.045a8.633,8.633,0,0,0-.933-1.21l-.083-.091q-.041-.046-.086-.092c-.054-.058-.112-.118-.169-.177a.123.123,0,0,0-.012-.012c-.057-.061-.118-.121-.178-.181-.045-.045-.089-.089-.135-.133s-.076-.075-.116-.112-.105-.1-.158-.149l-.109-.1c-.054-.05-.109-.1-.165-.147s-.12-.106-.181-.158c-.02-.017-.04-.035-.061-.051-.051-.045-.1-.087-.154-.13l-.051-.041-.062-.051a12.819,12.819,0,0,0-1.533-1.309,1.927,1.927,0,0,0-.233-.16.674.674,0,0,0-.123-.087q-.252-.2-.506-.39l-.5-.381-.261-.2c-.154-.12-.308-.24-.461-.362-.1-.075-.192-.153-.288-.231-.236-.193-.469-.391-.694-.6a10.913,10.913,0,0,1-1.668-1.866,39.759,39.759,0,0,1-2.951-4.93,3.652,3.652,0,0,1-.273-.677A1.477,1.477,0,0,1,243,7.022a.384.384,0,0,1,.382-.33.408.408,0,0,1,.357.289.532.532,0,0,1,.034.18,1.694,1.694,0,0,0,.269.863,32.4,32.4,0,0,0,3.215,5.194,9.776,9.776,0,0,0,1.868,1.843c1.513,1.179,3.039,2.339,4.477,3.61a13.594,13.594,0,0,1,3.4,4.511,12.021,12.021,0,0,1,1.032,6.081,1.889,1.889,0,0,1-.054.363.4.4,0,0,1-.359.283.373.373,0,0,1-.354-.354,2.635,2.635,0,0,1,.007-.3c.009-.49.023-.978.026-1.468a10.6,10.6,0,0,0-1.739-5.652.622.622,0,0,0-.123-.131c-.009-.007-.036,0-.094.008,0,.066-.015.14-.015.212,0,.367.008.734.013,1.1a24.941,24.941,0,0,1-.707,5.754,21.164,21.164,0,0,1-.9,3.173,12.045,12.045,0,0,1-2.644,4.149c-.488.494-.974.986-1.478,1.462a7.067,7.067,0,0,1-1.843,1.308.967.967,0,0,0-.174.632c0,.387.018.773.041,1.16.015.256.054.511.085.809.327-.075.661-.15.992-.228.1-.024.192-.069.291-.088a.565.565,0,0,1,.731.387,4.3,4.3,0,0,1,.187.58c.078.274.144.549.22.845,1.019.153,2.028.286,3.027.46" transform="translate(-206.602 0.005)" fill="#1f1f1f"/>
        <path id="パス_110477" data-name="パス 110477" d="M280.436,23.923a.372.372,0,0,1-.284-.606c.171.016.342.028.51.056a2.284,2.284,0,0,1,.524.154.4.4,0,0,1,.241.318,9.178,9.178,0,0,1-.991.078" transform="translate(-250.32 -20.839)" fill="#1f1f1f"/>
        <path id="パス_110478" data-name="パス 110478" d="M230.5,493.967q-.115.245-.231.491c-.013.025-.027.05-.042.075.054-.131.106-.262.154-.4a.356.356,0,0,1,.119-.169" transform="translate(-205.771 -441.486)" fill="#1f1f1f"/>
        <path id="パス_110479" data-name="パス 110479" d="M218.505,508.739a.368.368,0,0,1,.122.487c-.172.4-.325.8-.47,1.2-.282.13-.617-.236-.461-.546a12.475,12.475,0,0,1,.571-1.194.416.416,0,0,1,.238.052" transform="translate(-194.533 -454.641)" fill="#1f1f1f"/>
        <path id="パス_110480" data-name="パス 110480" d="M194.477,180.919c.293.465.592.926.871,1.4q4.539,7.683,9.072,15.369a5.992,5.992,0,0,1,.639,1.381c.039.137.079.275.108.413.034.171-.051.319-.183.327-.149.01-.214-.093-.258-.214a1.79,1.79,0,0,1-.076-.232,5.12,5.12,0,0,0-.639-1.446q-2.61-4.422-5.212-8.848-1.97-3.343-3.946-6.684c-.258-.439-.544-.859-.814-1.293a.87.87,0,0,1-.153-.322c-.008-.076.081-.164.137-.267a.9.9,0,0,1,.235.12,1.638,1.638,0,0,1,.219.292" transform="translate(-173.287 -161.329)" fill="#1f1f1f"/>
        <path id="パス_110481" data-name="パス 110481" d="M170.812,865.226a6.925,6.925,0,0,1-.692-.318.336.336,0,0,1-.123-.5c.141.034.285.064.431.087.181.031.359.069.54.1.016.005.03.024.072.061a1.612,1.612,0,0,1,.007.635c0,.005,0,.013,0,.019-.079-.028-.156-.057-.235-.088" transform="translate(-151.88 -772.57)" fill="#1f1f1f"/>
        <path id="パス_110482" data-name="パス 110482" d="M152.841,209.557a.451.451,0,0,1-.33-.385c.076-.171.141-.341.224-.5a.314.314,0,0,1,.424-.112.508.508,0,0,1,.285.5.489.489,0,0,1-.6.5" transform="translate(-136.308 -186.369)" fill="#1f1f1f"/>
        <path id="パス_110483" data-name="パス 110483" d="M127.92,1017.389c-.317-.264.029-.687.367-.607-.036.089-.073.179-.108.268a.672.672,0,0,1-.255.342l0,0" transform="translate(-114.218 -908.748)" fill="#1f1f1f"/>
        <path id="パス_110484" data-name="パス 110484" d="M124,887.56a4.557,4.557,0,0,1,.228-.7q.68-1.637,1.374-3.269c.98-2.286,1.948-4.577,3.046-6.809.117-.235.262-.456.425-.736.027-1.212.054-2.495.083-3.808l.583-.125c.079.031.156.061.235.088a35.142,35.142,0,0,0-.075,3.649.865.865,0,0,1-.256.771,1.289,1.289,0,0,0-.237.422c-1.078,2.129-2.015,4.323-2.933,6.525-.541,1.3-1.068,2.614-1.6,3.922-.338-.081-.683.343-.367.607l0,0a.345.345,0,0,1-.283.018c-.2-.067-.3-.273-.229-.563" transform="translate(-110.802 -779.461)" fill="#1f1f1f"/>
        <path id="パス_110485" data-name="パス 110485" d="M111.895,611.907a.387.387,0,0,1-.452.224,1.8,1.8,0,0,1-.4-.151c-.337-.185-.676-.372-1-.577-.584-.368-1.157-.753-1.74-1.125a6.97,6.97,0,0,0-2.507-1.061.624.624,0,0,1-.118-.031.4.4,0,0,1-.294-.466c.046-.2.231-.316.506-.294.16.038.361.079.555.136a6.745,6.745,0,0,1,1.516.631c.647.382,1.284.78,1.93,1.163.558.332,1.121.655,1.682.982a1.465,1.465,0,0,1,.205.131.382.382,0,0,1,.117.439" transform="translate(-94.179 -543.782)" fill="#1f1f1f"/>
        <path id="パス_110486" data-name="パス 110486" d="M85.8,457.1a.359.359,0,0,1-.39-.1.319.319,0,0,1-.061-.091,1.06,1.06,0,0,0,.209-.031,6.868,6.868,0,0,1,1.119-.289.369.369,0,0,1,.146.017c-.268.131-.535.264-.8.392a1.643,1.643,0,0,1-.219.1" transform="translate(-76.283 -408.077)" fill="#1f1f1f"/>
        <path id="パス_110487" data-name="パス 110487" d="M85.24,433.557a1.058,1.058,0,0,1-.209.031.38.38,0,0,1,.016-.362.971.971,0,0,1,.256-.258,4.685,4.685,0,0,1,.692-.384c.9-.37,1.807-.737,2.721-1.078.856-.32,1.726-.6,2.591-.9a2.264,2.264,0,0,1,.228-.085.42.42,0,0,1,.561.25.62.62,0,0,1,.03.224c-.011.292-.153.426-.462.438a1.308,1.308,0,0,0-.356.031c-1.209.423-2.424.829-3.619,1.289-.4.156-.795.343-1.185.535a.369.369,0,0,0-.146-.017,6.868,6.868,0,0,0-1.119.289" transform="translate(-75.963 -384.757)" fill="#1f1f1f"/>
        <path id="パス_110488" data-name="パス 110488" d="M74.744,468.49a.854.854,0,0,1-.2-.03.357.357,0,0,1-.048-.182c0-.214-.037-.459-.03-.692a.97.97,0,0,1,.472.156.39.39,0,0,1-.19.747" transform="translate(-66.55 -417.909)" fill="#1f1f1f"/>
        <path id="パス_110489" data-name="パス 110489" d="M16.923,65.657c.453,1.5.786,3.037,1.159,4.562a7.921,7.921,0,0,1,.163,1.076.765.765,0,0,1-.081.35c-1.228,2.891-2.551,5.737-4,8.522-.074.144-.152.289-.222.436a.6.6,0,0,0,0,.164c1.989,1.1,4.046,2.133,5.95,3.4.234-.108.252-.307.311-.472.407-1.13.814-2.262,1.206-3.4.586-1.7,1.16-3.393,1.74-5.091a4.028,4.028,0,0,1,.148-.4.955.955,0,0,1,.172-.249.407.407,0,0,1,.272-.114,12.48,12.48,0,0,0-.571,1.194c-.156.31.18.676.461.546-.3.841-.555,1.7-.854,2.54-.58,1.633-1.134,3.275-1.7,4.912-.119.344-.255.685-.389,1.046a4.048,4.048,0,0,0,.744.627c.6.479.64.56.375,1.3-.294.823-.62,1.638-.937,2.455a1.792,1.792,0,0,1-.2.375.346.346,0,0,1-.205.135.359.359,0,0,1-.233-.023A.374.374,0,0,1,20,89.151a3.519,3.519,0,0,1,.154-.462c.277-.746.557-1.49.832-2.234a2.8,2.8,0,0,0,.083-.316,4.075,4.075,0,0,0-.3-.292,23.728,23.728,0,0,0-3.494-2.359c-1.266-.7-2.546-1.377-3.82-2.062-.16-.087-.333-.156-.515-.242-.2.069-.41.139-.659.222-.283.673-.576,1.364-.861,2.06a1.427,1.427,0,0,0-.052.3.589.589,0,0,1-.743.516,3.227,3.227,0,0,0-2.6.616,9.214,9.214,0,0,0-1.482,1.366A22.706,22.706,0,0,0,2.175,93.5q-.265.716-.544,1.429a12.534,12.534,0,0,0-.68,6.492,19.049,19.049,0,0,0,2.606,7.195,7.8,7.8,0,0,0,1.083,1.4,3.831,3.831,0,0,0,3.918,1.093,7.112,7.112,0,0,0,2.168-.967c.547-.354,1.079-.734,1.595-1.135a31.313,31.313,0,0,0,3.343-3.048,16.6,16.6,0,0,0,2.57-3.486,21.441,21.441,0,0,0,2.384-6.261A12.856,12.856,0,0,0,20.79,92.5a6.528,6.528,0,0,0-.521-1.816c-.046-.114-.109-.221-.149-.335a.378.378,0,0,1,.152-.428.412.412,0,0,1,.205-.067.3.3,0,0,1,.251.087,2.044,2.044,0,0,1,.359.558,7.564,7.564,0,0,1,.563,2.492,15.651,15.651,0,0,1-.869,5.712,26.711,26.711,0,0,1-1.407,3.319,19.369,19.369,0,0,1-4.2,5.526c-.224.208-.446.42-.692.651a1.976,1.976,0,0,1-.052.45,1.5,1.5,0,0,1-.232.345,2.4,2.4,0,0,0,.561,1.147,6.093,6.093,0,0,0,3.354,2.091.336.336,0,0,0,.123.5,6.935,6.935,0,0,0,.692.318l-.583.125c-.157-.055-.3-.118-.454-.156a7.028,7.028,0,0,1-3.833-2.481,2.867,2.867,0,0,1-.488-.842c-.054-.151-.112-.3-.183-.492-.156.107-.289.192-.416.286-.594.429-1.171.886-1.784,1.289a7.49,7.49,0,0,1-2.8,1.178,4.466,4.466,0,0,1-3.983-1.06,7.627,7.627,0,0,1-1.374-1.632A19.565,19.565,0,0,1,.375,102.6c-.15-.78-.254-1.57-.333-2.361a12.571,12.571,0,0,1,.25-3.589c.061-.317.2-.629-.041-.93A4.952,4.952,0,0,1,.3,95.055c.268-1.4.535-2.8.823-4.2.513-2.495,1.01-4.994,1.572-7.478a78.642,78.642,0,0,1,2.331-8.423,21.551,21.551,0,0,1,1.692-3.792,3.879,3.879,0,0,1,.56-.8.838.838,0,0,1,.637-.292c-.007.233.027.478.03.692a.357.357,0,0,0,.048.182l-.1-.019a1.625,1.625,0,0,0-.483.623A20.833,20.833,0,0,0,5.87,74.875c-.735,1.992-1.283,4.038-1.828,6.088C3.309,83.722,2.75,86.519,2.2,89.322q-.285,1.471-.569,2.941c-.017.079-.021.159-.032.242.184-.015.188-.164.24-.271.333-.7.644-1.41,1.005-2.094a23.628,23.628,0,0,1,3.341-4.664,10.263,10.263,0,0,1,1.068-1A4.134,4.134,0,0,1,10.172,83.4c.119,0,.241-.014.392-.024.1-.221.2-.439.3-.66.226-.548.446-1.1.666-1.644a.855.855,0,0,1,.5-.49,1.687,1.687,0,0,1,1.023-.227,73.876,73.876,0,0,0,4.438-9.246c-.26-1.127-.52-2.237-.776-3.349-.108-.475-.227-.948-.354-1.418-.5-1.853-1.111-3.671-1.722-5.488q-.539-1.594-1.07-3.188a1.065,1.065,0,0,0-.105-.286A1.42,1.42,0,0,1,13.3,56.2a45.316,45.316,0,0,1,1.2-4.865c.065-.215.131-.427.2-.659q-.212-.4-.428-.8c-.56-1.042-1.116-2.084-1.677-3.126a2.627,2.627,0,0,1-.067-2.134,1.293,1.293,0,0,1,.335-.424c.153-.16.331-.3.483-.462q2.717-2.907,5.43-5.815a2.191,2.191,0,0,0,.5-.946,39.212,39.212,0,0,1,3.616-9.065,14.555,14.555,0,0,1,3.051-3.722c.231-.2.474-.39.721-.566a4.091,4.091,0,0,1,2.947-.769c.072.008.147.015.22.021a.372.372,0,0,0,.284.606,9.178,9.178,0,0,0,.991-.078.367.367,0,0,1-.024.19.416.416,0,0,1-.459.221.678.678,0,0,1-.121-.023,5.061,5.061,0,0,0-1.27-.155,3.161,3.161,0,0,0-2.025.561,9.307,9.307,0,0,0-1.7,1.484,16.364,16.364,0,0,0-2.3,3.231,38.122,38.122,0,0,0-2.764,6.786c-.1.308-.19.617-.3.967.131.037.219.07.309.088a2.539,2.539,0,0,1,1.577.974,7.3,7.3,0,0,1,.569.867c.471.834.924,1.68,1.386,2.518.078.138.17.268.289.457.1-.19.18-.323.241-.463a7.937,7.937,0,0,1,.755-1.325,27.292,27.292,0,0,1,3.02-3.607c.748-.778,1.473-1.582,2.156-2.42A7.523,7.523,0,0,0,32,30.8c.093-.374.212-.745.327-1.113a1.914,1.914,0,0,1,.166-.393.373.373,0,0,1,.422-.167.358.358,0,0,1,.268.367.184.184,0,0,1,0,.034,1.178,1.178,0,0,1-.046.266c-.158.527-.327,1.051-.482,1.579A8.1,8.1,0,0,1,31.1,34.191c-.693.853-1.45,1.656-2.189,2.472-.6.664-1.262,1.283-1.827,1.976a11.217,11.217,0,0,0-2.039,3.247,1.246,1.246,0,0,1-.068.171.936.936,0,0,0,.061.974c.025.045.051.089.075.134l-.551.312a7.531,7.531,0,0,0-.479-.622,7.594,7.594,0,0,1-.293-.722q-1-1.818-2.038-3.624a2.232,2.232,0,0,0-.9-.892c-.465-.245-.633-.22-1.008.174-.056.058-.109.119-.167.178q-2.9,3.112-5.794,6.222c-.18.193-.376.374-.557.567-.08.086-.188.184-.205.288a2.262,2.262,0,0,0,.13,1.491c.551,1,1.083,2.009,1.626,3.013.033.062.054.161.2.127a3.939,3.939,0,0,1,1.189-1.253c.852-.594,1.7-1.192,2.58-1.747a16.448,16.448,0,0,1,1.572-.817,2.305,2.305,0,0,1,1.315-.191,1.039,1.039,0,0,1,.936.972,1.4,1.4,0,0,1-.122.714,2.212,2.212,0,0,1-.709.905c-.509.375-1.028.733-1.532,1.117a13.394,13.394,0,0,0-1.123.938,2.788,2.788,0,0,0-.493.691A5.182,5.182,0,0,0,18.131,53a6.714,6.714,0,0,0-.068,1.238,1.381,1.381,0,0,0,.576-.248q.894-.529,1.78-1.073a2.719,2.719,0,0,1,1.134-.427,12.936,12.936,0,0,1,4.137.137,1.822,1.822,0,0,1,.351.1,1.034,1.034,0,0,1,.7,1.1c-.018.322-.073.644-.118,1.031a1.133,1.133,0,0,1,.517,1.521,1.06,1.06,0,0,1-.039.116.577.577,0,0,0,.054.576.987.987,0,0,1-.1,1.145,2.581,2.581,0,0,1-.358.416c-.346.316-.7.625-1.06.922-.538.438-1.078.87-1.631,1.29a2.079,2.079,0,0,0-.79,1.395,1.347,1.347,0,0,0,.2,1.048c.186.268.37.539.56.8a11.242,11.242,0,0,1,1.432,2.552c.031.083.033.209.219.222.116-.129.253-.273.382-.424q2.19-2.593,4.378-5.188c.275-.328.527-.675.79-1.012.037-.047.071-.109.121-.131a.3.3,0,0,1,.219-.016.261.261,0,0,1,.115.193.542.542,0,0,1-.092.284,6.551,6.551,0,0,1-.437.59q-2.406,2.851-4.817,5.7c-.183.216-.38.418-.6.658.045.308.093.648.144.989a.088.088,0,0,0,.027.053c.013.013.037.013.086.024a1.242,1.242,0,0,0,.164-.136c.222-.241.439-.483.656-.727l1.706-1.928.491.435c-.086.105-.183.234-.29.356q-1,1.152-2.012,2.305c-.215.245-.4.529-.82.448-.051.254-.1.448-.131.646a11.128,11.128,0,0,1-.972,2.9.356.356,0,0,0-.119.169c-.048.135-.1.267-.154.4a.913.913,0,0,1-.091.126.362.362,0,0,1-.441.1.367.367,0,0,1-.191-.412,2.112,2.112,0,0,1,.126-.342c.223-.525.449-1.049.674-1.572a7.121,7.121,0,0,0,.506-2.2,5.06,5.06,0,0,0-.342-2.16,8.351,8.351,0,0,0-1.016-1.947c-.292-.418-.579-.838-.881-1.25a2.2,2.2,0,0,1-.338-1.859,2.663,2.663,0,0,1,.988-1.635c.583-.446,1.163-.9,1.731-1.359.363-.3.709-.615,1.048-.939.142-.135.323-.3.222-.525a.54.54,0,0,0-.632-.254,5.042,5.042,0,0,0-.84.161c-.719.225-1.433.469-2.144.717a1.824,1.824,0,0,0-.71.467c-.592.618-1.19,1.231-1.782,1.85-.407.428-.807.865-1.212,1.3a.858.858,0,0,1-.132.124.391.391,0,0,1-.457,0,.366.366,0,0,1-.1-.442,1.413,1.413,0,0,1,.211-.3c.966-1.024,1.938-2.04,2.9-3.066a2.536,2.536,0,0,1,.956-.64,15.282,15.282,0,0,1,2.742-.849c.337-.063.681-.1,1.025-.143a.764.764,0,0,0,.109-.712,1.957,1.957,0,0,0-.937-.174c-.612.016-1.224.034-1.832.105a11.122,11.122,0,0,0-2.455.479,4.684,4.684,0,0,0-.878.419,21.31,21.31,0,0,0-2.509,1.952.944.944,0,0,0-.286.455.322.322,0,0,1-.377.235.4.4,0,0,1-.342-.308.56.56,0,0,1,.08-.524,2.155,2.155,0,0,1,.334-.355c.759-.617,1.529-1.223,2.284-1.844a4.986,4.986,0,0,1,2.337-1,17.589,17.589,0,0,1,3.765-.389,1.349,1.349,0,0,0,.211-.032,1.9,1.9,0,0,0,.13-.384c.107-.837.04-.862-.675-1a10.17,10.17,0,0,0-3.591-.063,2.051,2.051,0,0,0-.685.236A43.054,43.054,0,0,0,16.757,56.1a1.666,1.666,0,0,0-.482.459.345.345,0,0,1-.469.157.411.411,0,0,1-.224-.458,1.108,1.108,0,0,1,.235-.412,2.188,2.188,0,0,1,.391-.291c.333-.233.669-.463,1.026-.71.007-.2.014-.4.022-.6a11.658,11.658,0,0,1,.36-2.66,4.247,4.247,0,0,1,1.515-2.31c.292-.221.59-.437.885-.654.444-.324.891-.647,1.333-.974a1.418,1.418,0,0,0,.521-.737.357.357,0,0,0-.326-.479,1.551,1.551,0,0,0-.778.122,12.486,12.486,0,0,0-2.2,1.2c-.16.11-.248.328-.409.437s-.4.1-.555.216c-.464.331-.912.687-1.35,1.051a2.088,2.088,0,0,0-.616.972c-.258.771-.538,1.541-.749,2.326-.287,1.062-.524,2.138-.77,3.21a1.725,1.725,0,0,0,.035.955c.943,2.908,1.888,5.816,2.771,8.742" transform="translate(0 -20.394)" fill="#1f1f1f"/>
      </g>
    </g>
  </g>
</svg>
