<svg xmlns="http://www.w3.org/2000/svg" width="30" height="30" viewBox="0 0 30 30">
  <g id="グループ_25937" data-name="グループ 25937" transform="translate(-978 -7351)">
    <path id="パス_1013" data-name="パス 1013" d="M15,0A15,15,0,1,1,0,15,15,15,0,0,1,15,0Z" transform="translate(978 7351)" fill="#216724"/>
    <path id="magnifying-glass" d="M35.644,34.991l-2.886-2.885a5.078,5.078,0,1,0-.652.652l2.885,2.886a.461.461,0,1,0,.652-.652Zm-10.93-6.128a4.149,4.149,0,1,1,4.149,4.149A4.149,4.149,0,0,1,24.714,28.863Z" transform="translate(963.221 7336.221)" fill="#fff"/>
  </g>
</svg>
