<svg xmlns="http://www.w3.org/2000/svg" width="78" height="71" viewBox="0 0 78 71">
  <g id="グループ_25936" data-name="グループ 25936" transform="translate(0)">
    <path id="パス_110124" data-name="パス 110124" d="M166.274,50.76l1.358,1.208L165.52,53.3V50.09Z" transform="translate(-92.79 -28.002)" fill="#216724"/>
    <path id="パス_110125" data-name="パス 110125" d="M9.265,51.54v2.593L7.14,52.784l1.8-1.054Z" transform="translate(-3.992 -28.813)" fill="#216724"/>
    <path id="パス_110126" data-name="パス 110126" d="M30.725,73.762,3.65,100.4V56.56L24.442,69.771Z" transform="translate(-2.041 -31.619)" fill="#216724"/>
    <path id="パス_110127" data-name="パス 110127" d="M78.869,123.941H7.44l26.7-26.361.018.009H51.83Z" transform="translate(-4.159 -54.55)" fill="#216724"/>
    <path id="パス_110128" data-name="パス 110128" d="M139.114,56.54v43.85L111.73,73.8l15.663-9.869Z" transform="translate(-62.72 -31.608)" fill="#216724"/>
    <path id="パス_110129" data-name="パス 110129" d="M85.61,11.1H62.23L73.92,4.23Z" transform="translate(-34.918 -2.365)" fill="#216724"/>
    <path id="パス_110130" data-name="パス 110130" d="M31.836,23.45,15.6,32.988V23.45Z" transform="translate(-8.721 -13.109)" fill="#fff"/>
    <path id="パス_110131" data-name="パス 110131" d="M142.488,23.45v8.475L127.2,23.45Z" transform="translate(-71.368 -13.109)" fill="#fff"/>
    <path id="パス_110132" data-name="パス 110132" d="M84.573,84.83l-6.328,3.986H61.369l-.609-.384-.062-.066-.018.018L55.09,84.83Z" transform="translate(-30.926 -47.423)" fill="#fff"/>
    <path id="パス_110133" data-name="パス 110133" d="M79.841,31.925v7.5L64,49.445H31.53v.172L15.6,39.453V32.988L31.771,23.45H64.614Zm-9.728-1.239H25.355v1.072H70.113Zm-2.85,6.253H28.2v1.072H67.263Zm-.531,6.253H28.736v1.072H66.731Z" transform="translate(-8.721 -13.109)" fill="#fff"/>
    <path id="パス_110134" data-name="パス 110134" d="M76.4,55.255V99.1L49.106,72.51l-1.34.851h-.093L74.72,99.713H3.27l26.7-26.361-1.384-.886L1.6,99.1V55.263L0,54.241H0v47.082H78V54.241Z" transform="translate(0 -30.322)" fill="#1f1f1f"/>
    <path id="パス_110135" data-name="パス 110135" d="M141.2,19.8V30.851l-.309-.243-1.3-.723V21.41H124.3l-2.284-1.266.19-.344Z" transform="translate(-68.472 -11.069)" fill="#1f1f1f"/>
    <path id="パス_110136" data-name="パス 110136" d="M143.315,45.942l.754.67,1.358,1.208-2.112,1.332Zm-1.609,4.224L125.8,60.19h.273v1.072l.313.5,8.872-5.587,11.72-7.386,1.606-1.014-5.27-4.136-.309-.243-1.3-.723Z" transform="translate(-70.585 -23.854)" fill="#1f1f1f"/>
    <path id="パス_110295" data-name="パス 110295" d="M0,0H44.68V1.072H0Z" transform="translate(16.673 17.577)" fill="#1f1f1f"/>
    <path id="パス_110294" data-name="パス 110294" d="M0,0H38.956V1.072H0Z" transform="translate(19.535 23.83)" fill="#1f1f1f"/>
    <path id="パス_110293" data-name="パス 110293" d="M0,0H38.148V1.072H0Z" transform="translate(19.939 30.083)" fill="#1f1f1f"/>
    <path id="パス_110137" data-name="パス 110137" d="M84.459,85.328,77.668,89.61l-1.345.851H58.49l-.013-.013,0,0-1.389-.886L50.8,85.575l.472-.745h1.42l5.591,3.554.018-.018.062.066.609.384H75.847l6.328-3.986h1.971Z" transform="translate(-28.529 -47.423)" fill="#1f1f1f"/>
    <path id="パス_110138" data-name="パス 110138" d="M123.921,82.4v1.072H121.95l1.7-1.072Z" transform="translate(-68.357 -46.064)" fill="#1f1f1f"/>
    <path id="パス_110139" data-name="パス 110139" d="M84.471,82.4l-1.7,1.072H53.29l-1.42-.9V82.4Z" transform="translate(-29.127 -46.064)" fill="#1f1f1f"/>
    <path id="パス_110140" data-name="パス 110140" d="M80.126,9.916,68.436,3.05,56.746,9.916Zm-11.69-7.8,14.675,8.14L85.4,11.526H52.42Z" transform="translate(-29.437 -1.185)" fill="#1f1f1f"/>
    <path id="パス_110141" data-name="パス 110141" d="M45.817,0,30.952,8.731H11.96V20.822l1.605-.944V10.341H29.8L45.817.935l14.675,8.14.19-.344Z" transform="translate(-6.686)" fill="#1f1f1f"/>
    <path id="パス_110142" data-name="パス 110142" d="M53.29,83.69H51.87v-.9Z" transform="translate(-29.074 -46.282)" fill="#1f1f1f"/>
    <path id="パス_110143" data-name="パス 110143" d="M3.154,49.172l1.8-1.054.326-.189v2.593ZM5.28,46.024l-1.385.811L.01,49.119l1.605,1.023L22.407,63.353l.472-.745v-.9L6.885,51.545V45.08Z" transform="translate(-0.006 -25.201)" fill="#1f1f1f"/>
  </g>
</svg>
